<?xml version="1.0" encoding="utf-8"?>
<!-- Generator: Adobe Illustrator 16.0.4, SVG Export Plug-In . SVG Version: 6.00 Build 0)  -->
<!DOCTYPE svg PUBLIC "-//W3C//DTD SVG 1.1//EN" "http://www.w3.org/Graphics/SVG/1.1/DTD/svg11.dtd">
<svg version="1.1" xmlns="http://www.w3.org/2000/svg" xmlns:xlink="http://www.w3.org/1999/xlink" x="0px" y="0px" width="4896px"
	 height="3809px" viewBox="0 0 4896 3809" enable-background="new 0 0 4896 3809" xml:space="preserve">
<g id="hardware">
	<g>
		<path fill="none" stroke="#FFFFFF" stroke-width="8" stroke-linecap="round" stroke-miterlimit="10" d="M1755.03,1473.582
			c-50.37,51.868-139.404,163.052-62.754,224.147c40.794,32.516,91.898,24.509,128.782-12.415
			c33.153-33.187,68.621-61.715,111.655-83.707c85.87-43.881,181.607-61.556,272.357-91.461
			c86.685-28.566,107.828-72.003,127.251-117.262c17.771-41.41,37.655-146.406,28.095-189.328
			c-10.235-45.956-21.484-97.128-39.736-139.749c-17.282-40.364-62.849-158.207-153.636-200.88
			c-176.7-83.057-383.801-80.871-542.459,23.271c-72.808,47.791-128.215,106.08-161.216,183.987
			c-35.237,83.187-68.254,165.23-68.371,260.624c-0.089,71.747,28.866,200.707,117.942,201.742
			c43.507,0.505,80.436-20.387,120.962-31.119C1676.425,1490.169,1755.03,1473.582,1755.03,1473.582z"/>
		<path fill="none" stroke="#FFFFFF" stroke-width="8" stroke-linecap="round" stroke-miterlimit="10" d="M1755.03,1473.582
			c35.973-15.305,55.609-81.099,64.487-112.424c10.653-37.586,25.056-69.143,56.409-96.146
			c60.3-51.929,134.024-116.587,192.009-164.362"/>
		<path fill="none" stroke="#FFFFFF" stroke-width="8" stroke-linecap="round" stroke-miterlimit="10" d="M1671.229,1088.72
			c15.195,8.96,20.84,36.617,33.208,53.535c17.762,24.295,25.519,28.101,28.865,61.301c2.764,27.414,5.038,47.001-2.573,68.974
			c-10.623,30.672-8.68,39.026,2.796,72.86"/>
		<path fill="none" stroke="#FFFFFF" stroke-width="8" stroke-linecap="round" stroke-miterlimit="10" d="M1997.329,810.919
			c-8.397,16.765-30.891,19.912-39.938,38.742c-6.251,13.015-5.502,36.449-9.237,50.421c-6.953,25.992-45.564,79.715-19.314,104.836
			"/>
		<path fill="none" stroke="#FFFFFF" stroke-width="8" stroke-linecap="round" stroke-miterlimit="10" d="M2090.232,837.318
			c-7.53,26.242-22.277,32.686-21.886,62.234c0.306,23.11,4.576,38.838-5.197,61.914c-7.522,17.77-19.821,31.747-25.59,49.749
			c-3.374,10.521-4.928,19.35-6.297,30.948c-0.563,4.766,0,34.133,0,21.727"/>
		<path fill="none" stroke="#FFFFFF" stroke-width="8" stroke-linecap="round" stroke-miterlimit="10" d="M1463.369,1070.186
			c20.176-7.864,20.091-20.612,36.395-34.24c24.956-20.862,48.526-26.076,75.339-37.145c26.997-11.146,31.185-21.627,45.616-44.231
			c17.95-28.113,36.047-26.463,59.821-42.762"/>
		<path fill="none" stroke="#FFFFFF" stroke-width="8" stroke-linecap="round" stroke-miterlimit="10" d="M1868.356,1643.012
			c-7.639-16.465,14.188-37.934,23.93-51.318c13.894-19.097,16.789-29.444,17.931-52.935c2.323-47.797,12.596-63.278,43.453-99.318"
			/>
		<path fill="none" stroke="#FFFFFF" stroke-width="8" stroke-linecap="round" stroke-miterlimit="10" d="M2217.484,1135.276
			c-31.242,63.33-84.405,85.598-136.483,127.174c-30.718,24.525-62.991,14.99-94.032,33.451
			c-15.714,9.346-60.684,61.208-58.131,65.947"/>
		<path fill="none" stroke="#FFFFFF" stroke-width="8" stroke-linecap="round" stroke-miterlimit="10" d="M1633.985,1222.179
			c19.557-42.998,63.299-28.257,96.126-44.23c16.426-7.991,22.743-27.188,37.183-34.202c17.986-8.735,45.882-0.314,64.639,0.84
			c77.72,4.784,146.625-10.042,214.848-37.244c28.733-5.484,50.763-24.856,77.753-37.405c27.693-12.874,52.479-19.1,68.121-49.499"
			/>
		<path fill="none" stroke="#FFFFFF" stroke-width="8" stroke-linecap="round" stroke-miterlimit="10" d="M1553.288,1098.031
			c5.765,36.034-14.636,94.82,9.312,133.46"/>
		<path fill="none" stroke="#FFFFFF" stroke-width="8" stroke-linecap="round" stroke-miterlimit="10" d="M2018.847,1417.714
			c27.473-34.454,28.05-18.388,64.927-11.452"/>
		<path fill="none" stroke="#FFFFFF" stroke-width="8" stroke-linecap="round" stroke-miterlimit="10" d="M2124.841,1339.653
			c20.099,4.188,32.716,10.109,48.34,16.159c16.77,6.492,34.1,16.163,50.51,2.933"/>
		<path fill="none" stroke="#FFFFFF" stroke-width="8" stroke-linecap="round" stroke-miterlimit="10" d="M1814,930.43
			c1.42,13.104-5.58,28.692-3.095,40.349c3.249,15.223,14.6,15.746,19.547,27.011c13.406,30.51-2.721,44.856-10.168,72.07"/>
		<path fill="none" stroke="#FFFFFF" stroke-width="8" stroke-linecap="round" stroke-miterlimit="10" d="M1503.628,1395.988
			c-0.207,8.849,14.722,12.806,27.922,9.3c15.925-4.225,21.568-18.411,28.785-34.129c16.389-35.697,34.088-39.098,64.08-58.132"/>
		<polygon fill="none" stroke="#FFFFFF" stroke-width="8" stroke-linecap="round" stroke-miterlimit="10" points="709.936,2775.235 
			2938.523,1790.985 2798.283,125.918 245.859,444.652 		"/>
	</g>
	<g>
		<path fill="none" stroke="#FFFFFF" stroke-width="8" stroke-linecap="round" stroke-miterlimit="10" d="M2678.967,2579.674
			c-78.294,42.92-223.297,113.901-241.666,113.891c-19.832-0.012-84.605-59.899-88.301-67.498c-3.68-7.566-2.465-34.066,0-64.066
			c0.831-10.121,175.037-83.027,253.147-114.352"/>
		<path fill="none" stroke="#FFFFFF" stroke-width="8" stroke-linecap="round" stroke-miterlimit="10" d="M2678.967,2579.674"/>
		<path fill="none" stroke="#FFFFFF" stroke-width="8" stroke-linecap="round" stroke-miterlimit="10" d="M2602.147,2447.648"/>
		<path fill="none" stroke="#FFFFFF" stroke-width="8" stroke-linecap="round" stroke-miterlimit="10" d="M2648.129,2552.727"/>
		<path fill="none" stroke="#FFFFFF" stroke-width="8" stroke-linecap="round" stroke-miterlimit="10" d="M2349,2566.035
			c7.5,23.465,75.026,76.803,91,79.465c11.643,1.94,126.943-50.097,208.129-92.773"/>
	</g>
	<path fill="none" stroke="#FFFFFF" stroke-width="8" stroke-linecap="round" stroke-miterlimit="10" d="M2440,2645.5
		c0,12.034-1.35,34-2.699,48.064"/>
</g>
<g id="hands">
	<path fill="none" stroke="#FFFFFF" stroke-width="8" stroke-linecap="round" stroke-miterlimit="10" d="M2984.981,2080.138
		c14.616-21.952,26.007-48.206,51.019-60.138c13.946-6.654,33.393-10.167,49-9.302c18.218,1.009,27.005,2.216,41.945,11.58
		c10.268,6.435,22.824,17.418,35.555,28.722c14.557,12.924,32.639,21.556,46.477,34.952c11.187,10.829,23.353,21.788,34.523,32.261
		c13.728,12.87,23.516,24.181,33.249,40.839c17.124,29.307,25.251,65.948,29.865,95.342c2.978,18.967,15.273,69.525,18.386,87.106
		c4.037,22.807,19.815,126.943,18.5,153c-0.846,16.762-0.338,34.443-3.723,51.5c-3.33,16.786-6.194,35.465-7.777,53
		c-1.599,17.704,1.5,30,3.248,45.504c1.854,16.437,11.211,29.616,17.529,44.473c6.32,14.86,45.631,89.925,76.723,152.523
		c17.381,34.994,129.579,203.368,129.579,203.368"/>
	<path fill="none" stroke="#FFFFFF" stroke-width="8" stroke-linecap="round" stroke-miterlimit="10" d="M3518.752,2127.749
		c12.667-2.358,26.161,20.007,25.196,30.251c-1.526,16.201-10.262,25.362-23.372,37c-20.278,18-37.576,55-71.576,58
		c-29.755,2.625-66.882,2.385-93.996-8.249c-14.061-5.515-26.537-16.403-37.223-26.5c-12.443-11.757-13.053-28.09-8.753-44.199
		c2.261-8.469,8.294-21.528,11.714-29.5"/>
	<path fill="none" stroke="#FFFFFF" stroke-width="8" stroke-linecap="round" stroke-miterlimit="10" d="M3662,1739
		c4.229,0.145-4.756-2.197-7.023-3.251c-3.367-1.565-6.436-3.428-9.948-4.777c-6.722-2.583-13.977-4.341-20.802-7.221
		c-13.229-5.58-24.584-13.634-39.227-16.528c-16.119-3.187-30.896-4.226-48-4.223c-16.828,0.003-37.975,2.081-54,4.5
		c-33.318,5.029-61.574,10.864-94,22.251c-19.034,6.685-35.461,15.448-51.777,27.252c-9.113,6.593-31.641,26.68-35.219,34.997
		c-13.762,31.986-7.229,60.516,22.048,78.752c13.409,8.353,28.146,14.71,42.948,20.248c13.71,5.129,30.021,7.307,43.023,14.251
		c7.157,3.823,13.604,12.196,17.977,18.749"/>
	<path fill="none" stroke="#FFFFFF" stroke-width="8" stroke-linecap="round" stroke-miterlimit="10" d="M3023,2175
		c-1.665-16.328-6.111-34.415-10.004-49.997c-3.184-12.745-11.554-24.776-20.022-34.754c-9.211-10.853-17.211-23.425-25.941-34.277
		c-8.258-10.266-16.761-21.477-24.532-32.472c-14.639-20.708-45.881-40.766-70.5-47.254c-29.35-7.735-59.741,8.158-80,30.754
		c-22.162,24.718-59.031,67.919-75.5,97c-18.034,31.847-22.699,41.187-44.548,70c-7.378,9.73-17.187,25.496-19.004,36.948
		c-1.178,7.423-0.636,15.561-0.948,23.059c-0.224,5.392,3.097,11.909,2.119,17.043c-1.355,7.114-21.342,25.11-29.394,31.699
		c-12.095,9.898-33.489,20.405-44.393,31.585c-26.333,27-25.245,45.152-20.579,65.819c3.202,14.182,16.328,26.978,24.746,38.847
		c10.587,14.928,18.046,23,18.046,23s-5.546,38,22.787,87.19c8.367,14.527,43.858,39.403,53.412,50.061
		c11.342,12.651,17.882,34.094,27.588,47.417c21.334,29.284,27.28,34.71,50.333,62.666c14.517,17.605,38.379,55.31,52.282,73.889
		c14.052,18.778,32.376,39.255,49.385,53.445c27.22,22.709,48.575,42.354,73.667,66.332c6.717,6.419,32.639,31.571,38.026,39
		c11.854,16.344,28.602,62.563,30.308,70.667c2.022,9.607,5.217,49.412,13.831,63.745c9.031,15.027,22.431,33.244,33.836,46.255
		c10.851,12.379,20.158,29.634,29.248,43.385c12.085,18.281,20.507,25.462,33.085,41.948c6.52,8.546,15.93,23.798,22.667,32
		c15.333,18.667,26,41.667,26,41.667"/>
	<path fill="none" stroke="#FFFFFF" stroke-width="8" stroke-linecap="round" stroke-miterlimit="10" d="M3630,1878
		c0,0-8.636,18.654-8.777,24.223c-0.088,3.469,2.808,12.157,1.626,14.578c-0.438,0.898-10.025,6.608-11.578,7.473
		c-16.733,9.331-37.638,14.019-56.116,7.877c10.784,13.193,4.807,30.715-3.88,44.1C3543,1989,3534.717,1999.338,3525,2010
		c-18.131,19.892-42.08,44-70.028,46.403c-8.054,0.692-21.581-3.635-29.407-6.403c-7.861-2.781-13.081-5.861-16.811-14.777
		c-5.998-14.343,3.064-32.871,7.246-46.246c4.841-15.485,10.324-28.194,12-44.977c1.793-17.96-0.765-32.595-4.219-49.777
		c-6.719-33.419-5.372-68.474,29.445-84.974c32.202-15.261,65.634-24.478,98.77-35.026c33.02-10.512,67.345-19.309,101.131-28.248
		c32.31-8.549,62.253-8.872,91.147,10.751C3769.71,1774,3785.537,1796.259,3800,1822c7.838,13.949,11.293,27.007,17.805,39.052
		c7.757,14.349,18.834,27.188,28.973,40c21.875,27.641,36.981,54.73,51.223,87.448c4.129,9.486,16.2,29.172,27,41.5
		c13.473,15.378,25.256,20.8,42.977,29.223c18.588,8.834,70.253,34.142,78.07,38.025c11.327,5.627,41.862,20.288,56.431,29.793
		c15.585,10.168,55.986,38.689,71.245,49.424c12.028,8.462,54.777,32.535,54.777,32.535"/>
	<path fill="none" stroke="#FFFFFF" stroke-width="8" stroke-linecap="round" stroke-miterlimit="10" d="M3514.354,2021.306
		c0,0,15.617-3.887,26.646-1.306c23.5,5.5,25.21,21.649,24,36c-1.109,13.156-12.497,33.061-24.923,45
		c-8.899,8.551-13.643,17.325-21.325,26.749c-19.357,23.745-57.544,23.407-85.752,26.228c-34.008,3.4-82.719,2.226-101.719-4.977
		c-34.114-12.932-54.693-34.048-59.777-48c-4.954-13.594-8.091-32.312-2.601-47.285c5.047-13.763,19.637-33.546,35.708-43.018"/>
	<path fill="none" stroke="#FFFFFF" stroke-width="8" stroke-linecap="round" stroke-miterlimit="10" d="M3407,2030
		c-19.995,1.417-36.225,1.026-68-8c-6.469-1.837-40.052-12.458-46.023-16.223c-10.977-6.92-32.93-31.037-35.977-46.777
		c-4.537-23.435,1.969-43.692,15.195-62.752c7.805-11.248,28.072-31.846,37.657-37.395"/>
	<path fill="none" stroke="#FFFFFF" stroke-width="8" stroke-linecap="round" stroke-miterlimit="10" d="M3385.389,2252.278
		c0,0,15.346,12.062,38.607,29.971c13.719,10.562,45.554,22.5,61.504,28.423c31.029,11.521,53.402,19.395,85.5,21.328
		c41.5,2.5,59.971,10.249,92.116,15c33.676,4.977,62.472,13.284,95.884,22c23,6,51.975,24.247,83,46.5
		c29.234,20.968,133,102.5,133,102.5"/>
</g>
<g id="details_1_">
	<path fill="none" stroke="#FFFFFF" stroke-width="8" stroke-linecap="round" stroke-miterlimit="10" d="M3622.849,1916.801
		c0,0,30.765-1.37,34.147-8.998C3663.116,1894,3673,1885,3673,1885"/>
	<path fill="none" stroke="#FFFFFF" stroke-width="5" stroke-linecap="round" stroke-miterlimit="10" d="M3508,1743
		c8.895,12.068,12.82,27.527,6.354,43.02"/>
	<path fill="none" stroke="#FFFFFF" stroke-width="5" stroke-linecap="round" stroke-miterlimit="10" d="M3391,1752
		c17.087-0.008,35.519,5.482,48.752,16.248c13.59,11.054,25.298,19.647,39.355,29.989"/>
	<path fill="none" stroke="#FFFFFF" stroke-width="5" stroke-linecap="round" stroke-miterlimit="10" d="M3428,1944
		c28.367,4.648,37.676,24.396,38,51.788c0.146,12.3-3.307,26.35-7.223,34.013c-8.277,16.199-21.562,23.915-21.562,23.915"/>
	<path fill="none" stroke="#FFFFFF" stroke-width="5" stroke-linecap="round" stroke-miterlimit="10" d="M3552.543,2024.426
		c-5.27,1.53-22.322,6.115-30.043,19.074c-5.246,8.805-2.338,22.451,1,30c7.5,16.964,17.5,16.143,23.7,19.66"/>
	<path fill="none" stroke="#FFFFFF" stroke-width="5" stroke-linecap="round" stroke-miterlimit="10" d="M3535.814,2138.968
		c-15.238-0.128-29.444,12.669-33.594,24.032c-6.171,16.9,3.192,27.633,18.355,32"/>
	<path fill="none" stroke="#FFFFFF" stroke-width="5" stroke-linecap="round" stroke-miterlimit="10" d="M3579,1766
		c-0.731-9.055,1.971-17.767,2-27"/>
	<path fill="none" stroke="#FFFFFF" stroke-width="5" stroke-linecap="round" stroke-miterlimit="10" d="M3603,1955
		c4.897,14.435-0.838,38.861,0,54.977c0.88,16.921,3.735,34.609,8,51.023c9.581,36.872,27.372,78.594,54.646,106.071"/>
	<path fill="none" stroke="#FFFFFF" stroke-width="5" stroke-linecap="round" stroke-miterlimit="10" d="M3576,1975
		c6.461,5.348,13.425,13.688,18.274,20.722c5.042,7.315,3.172,14.799,8.641,20.853"/>
	<path fill="none" stroke="#FFFFFF" stroke-width="5" stroke-linecap="round" stroke-miterlimit="10" d="M3928,2033.286
		c0,22.077-1.399,43.192-9.723,62.77c-3.524,8.291-5.812,17-10.777,24.445c-4.398,6.595-14,21.349-20.5,25.5"/>
	<path fill="none" stroke="#FFFFFF" stroke-width="5" stroke-linecap="round" stroke-miterlimit="10" d="M3700.005,2353.978
		c0,0,16.351,0.746,52.995-24.478c14.802-10.188,29.502-39.455,38-52.5"/>
	<path fill="none" stroke="#FFFFFF" stroke-width="8" stroke-linecap="round" stroke-miterlimit="10" d="M3555.154,1932.151
		c-5.464-6.246-9.309-8.164-15.202-14.178c-6.77-6.908-8.706-16.798-14.952-23.973"/>
	<path fill="none" stroke="#FFFFFF" stroke-width="8" stroke-linecap="round" stroke-miterlimit="10" d="M3059,2125
		c0,0-11,27-9.5,41.983c1.574,15.726-11.173,27.645-21.5,41.017"/>
	<path fill="none" stroke="#FFFFFF" stroke-width="5" stroke-linecap="round" stroke-miterlimit="10" d="M2906,2007
		c1.131,11.328,5.497,23.357,8.028,33.948c3.009,12.589,5.002,23.644,6.92,36.104c1.754,11.392,4.579,23.507,2.829,35.726
		c-1.909,13.338-14.201,40.879-14.777,40.938"/>
	<path fill="none" stroke="#FFFFFF" stroke-width="8" stroke-linecap="round" stroke-miterlimit="10" d="M3039.868,2189.822
		c-5.646-9.343-24.512-16.019-34.868-19.845c-13.965-5.16-28.72-10.016-44-9.977c-29.696,0.076-72.671-4.142-88-32"/>
	<path fill="none" stroke="#FFFFFF" stroke-width="5" stroke-linecap="round" stroke-miterlimit="10" d="M2981,2120
		c-9.082-9.922-59.268,27.163-68.083,34.817"/>
	<path fill="none" stroke="#FFFFFF" stroke-width="5" stroke-linecap="round" stroke-miterlimit="10" d="M2881,2101
		c2.996,8.252,14.874,13.023,20.752,20.251c3.773,4.639,4.648,8.023,5.248,13.749c0.484,4.622,2,18.716,2,18.716"/>
	<path fill="none" stroke="#FFFFFF" stroke-width="8" stroke-linecap="round" stroke-miterlimit="10" d="M2654,2254
		c-4.861,23.447,20.004,63.189,41,76"/>
	<path fill="none" stroke="#FFFFFF" stroke-width="8" stroke-linecap="round" stroke-miterlimit="10" d="M2602.546,2442
		c11.629,17.26,17.066,20.607,30.121,30.854c17.148,13.46,22.054,20.988,44.212,30.854"/>
</g>
</svg>
