<?xml version="1.0" encoding="utf-8"?>
<!-- Generator: Adobe Illustrator 16.0.4, SVG Export Plug-In . SVG Version: 6.00 Build 0)  -->
<!DOCTYPE svg PUBLIC "-//W3C//DTD SVG 1.1//EN" "http://www.w3.org/Graphics/SVG/1.1/DTD/svg11.dtd">
<svg version="1.1" xmlns="http://www.w3.org/2000/svg" xmlns:xlink="http://www.w3.org/1999/xlink" x="0px" y="0px" width="4896px"
	 height="3809px" viewBox="0 0 4896 3809" enable-background="new 0 0 4896 3809" xml:space="preserve">
<g id="hardware">
	<g>
		<path fill="none" stroke="#FFFFFF" stroke-width="8" stroke-linecap="round" stroke-miterlimit="10" d="M2541.737,2472.325
			c36.91-15.309,69.202-28.308,85.763-34.692c1.85-0.713,4.328-0.734,7.292-0.188"/>
		<path fill="none" stroke="#FFFFFF" stroke-width="8" stroke-linecap="round" stroke-miterlimit="10" d="M2541.737,2472.325"/>
		<path fill="none" stroke="#FFFFFF" stroke-width="8" stroke-linecap="round" stroke-miterlimit="10" d="M2391.243,2537.827"/>
		<path fill="none" stroke="#FFFFFF" stroke-width="8" stroke-linecap="round" stroke-miterlimit="10" d="M2347.201,2587.938
			c0.416-8.034,1.05-16.824,1.799-25.938c0.256-3.117,16.962-12.191,42.243-24.173"/>
		<path fill="none" stroke="#FFFFFF" stroke-width="8" stroke-linecap="round" stroke-miterlimit="10" d="M2525.913,2657.354
			c-12.722,6.016-24.779,11.58-35.7,16.452"/>
		<path fill="none" stroke="#FFFFFF" stroke-width="8" stroke-linecap="round" stroke-miterlimit="10" d="M2525.913,2657.354"/>
		<path fill="none" stroke="#FFFFFF" stroke-width="8" stroke-linecap="round" stroke-miterlimit="10" d="M2685.571,2576.031"/>
		<path fill="none" stroke="#FFFFFF" stroke-width="8" stroke-linecap="round" stroke-miterlimit="10" d="M2730.267,2538.652
			c-0.277,3.226-0.777,6.485-1.573,9.876c-0.673,2.868-17.646,13.367-43.122,27.503"/>
		<path fill="none" stroke="#FFFFFF" stroke-width="8" stroke-linecap="round" stroke-miterlimit="10" d="M2710.863,2516.85"/>
		<path fill="none" stroke="#FFFFFF" stroke-width="8" stroke-linecap="round" stroke-miterlimit="10" d="M2653.682,2549.795
			c23.499-12.471,43.744-23.997,57.182-32.945"/>
		<path fill="none" stroke="#FFFFFF" stroke-width="8" stroke-linecap="round" stroke-miterlimit="10" d="M2653.682,2549.795"/>
		<path fill="none" stroke="#FFFFFF" stroke-width="8" stroke-linecap="round" stroke-miterlimit="10" d="M2488.846,2628.555"/>
		<path fill="none" stroke="#FFFFFF" stroke-width="8" stroke-linecap="round" stroke-miterlimit="10" d="M2450.262,2643.424
			c8.786-2.735,22.24-7.965,38.584-14.869"/>
		<path fill="none" stroke="#FFFFFF" stroke-width="8" stroke-linecap="round" stroke-miterlimit="10" d="M2450.262,2643.424"/>
		<path fill="none" stroke="#FFFFFF" stroke-width="8" stroke-linecap="round" stroke-miterlimit="10" d="M2373.536,2597.605"/>
		<path fill="none" stroke="#FFFFFF" stroke-width="8" stroke-linecap="round" stroke-miterlimit="10" d="M2349,2566.035
			c2.582,8.078,12.278,19.697,24.536,31.57"/>
	</g>
	<g>
		<polygon fill="none" stroke="#FFFFFF" stroke-width="8" stroke-linecap="round" stroke-miterlimit="10" points="709.936,2775.235 
			2938.523,1790.985 2798.283,125.918 245.859,444.652 		"/>
		<path fill="none" stroke="#FFFFFF" stroke-width="8" stroke-linecap="round" stroke-miterlimit="10" d="M1402.011,899.564
			c-5.367,28.78-2.516,52.037,11.098,76.545c9.603,17.289,17.784,45.714,32.303,59.498c19.775,18.771,53.835,2.692,73.473-9.348
			c24.441-14.985,41.969-28.23,73.148-25.073c28.087,2.844,53.706,6.836,83.3,6.8c28.062-0.035,50.678,11.806,76.54,17.333
			c6.738,1.439,17.966,4.693,19.51,12.417c6.801,34,17.824,35.854,41.657,50.521c11.606,7.144,23.285,15.112,28.555,30.189
			c4.378,12.523-0.896,28.223,3.698,40.878c7.473,20.575,21.591,39.182,31.49,60.311c14.048,29.985,18.65,58.307,20.4,90.95
			c0.959,17.896-1.65,51.812-5.95,68.851c-4.198,16.641-2.874,21.537-7.172,38.254c-4.254,16.543-10.969,34.284-13.563,51.021
			c-2.206,14.229,4.844,27.804,9.044,41.625c3.68,12.105,3.104,26.207,7.653,38.059c4.769,12.422,14.151,20.042,15.088,34.191
			c0.45,6.798-1.386,14.601-0.02,21.25c1.19,5.788,5.015,11.268,6.61,17c6.878,24.695-2.865,55.885-14.028,78.181
			c-5.832,11.653-8.92,23.347-14.852,34.869c-7.33,14.242-17.631,19.885-31.261,25.497c-1.227,0.505-4.499,0.191-5.822,0.133
			c-1.297,10.96,10.606,26.443,15.81,35.594c6.02,10.592,7.814,21.114,16.532,29.496c17.349,16.68,15.368,58.758-13.109,61.431
			c-24.341,2.286-37.599,6.76-52.298,27.225c-10.208,14.213-34.79,33.684-41.202,6.014c-12.22,7.345-12.042,28.229-27.841,33.271
			c-19.923,6.357-23.796-17.978-32.319-28.36c-6.676,5.039-6.146,7.549-15.3,7.752c-8.682,0.19-12.346-0.191-17.638-5.95
			c-9.854-10.727-19.628-12.925-32.532-18.866c-8.859-4.081-30.131-14.694-21.888-27.736c3.51-5.553,10.334-4.774,12.364-12.901
			c1.876-7.498-0.463-16.724-1.464-23.985c-1.536-11.146-8.525-36.606,0.146-45.791c6.562-6.952,10.354-4.187,10.86-15.86
			c0.287-6.631-1.874-16.182,1.062-22.12c3.169-6.404,11.465-8.245,14.875-14.684c3.572-6.75,0.678-11.819-0.662-18.612
			c-2.243-11.383-0.608-35.415-18.821-24.312c-17.613,10.737-18.238,31.767-38.957,39.547c-19.992,7.51-36.942,13.438-53.622,27.277
			c-11.716,9.722-24.756,9.68-36.708,19.266c-16,12.83-20.839,26.876-43.967,25.729c-9.538-0.474-19.942-4.095-29.757-2.57
			c-9.59,1.497-15.256,6.747-24.793,4.385c-10.075-2.497-20.143-6.01-30.303-8.568c-11.686-2.941-22.729-10.225-34.17-14.284
			c-12.391-4.397-27.38-2.752-39.122-9.562c-11.985-6.951-23.638-23.006-30.622-34.749c-8.22-13.817-7.768-27.396-9.28-42.604
			c-1.543-15.516-0.213-28.621,5.121-43.303c4.81-13.239,7.103-28.673-0.688-40.844c-12.205-19.068-28.973-9.267-47.108-3.655
			c-12.4,3.836-26.545,5.446-38.098,11.495c-5.904,3.091-12.851,7.504-17.232,12.371c-3.686,4.094-5.113,10.487-10.134,13.62
			c-8.108,5.06-25.523,4.532-35.326,4.419c-12.46-0.144-25.065-2.827-32.89-12.072c-7.692-9.09-14.833-15.615-25.948-21.074
			c-11.938-5.863-18.23-14.524-27.224-24.676c-19.98-22.554-36.799-45.271-51.209-71.378c-4.155-7.528-10.319-14.023-14.217-21.25
			c-3.488-6.465-2.903-13.879-3.59-21.25c-1.363-14.646-5.575-29.214-11.921-42.544c-7.522-15.8-14.927-25.207-15.75-43.306
			c-0.723-15.855,4.061-29.485,7.652-44.202c3.322-13.607,6.43-27.428,11.666-40.46c4.912-12.226,11.451-22.354,12.836-35.994
			c1.299-12.784,2.139-26.521,1.527-39.039c-12.976-2.714-24.925-9.943-38.121-11.815c-7.113-1.01-15.43-0.681-22.083,1.302
			c-9.671,2.882-14.37,7.697-23.841,7.839c-9.621,0.145-19.576-0.81-28.876,0.917c-8.221,1.526-12.35,3.463-18.911-3.237
			c-8.833-9.019-7.041-21.472-17.869-29.75c-5.014-3.832-11.81-5.926-14.197-11.263c-3.297-7.37,1.045-15.092,2.48-22.097
			c2.975-14.517,6.745-34.747,0.047-48.47c-6.233-12.769-11.332-22.735-6.824-37.404c3.104-10.099,11.789-28.815,19.743-36.505
			c8.7-8.409,32.987-13.628,44.881-13.621c15.205,0.008,25.98,9.884,39.973,14.261c13.329,4.17,29.606,8.459,43.118,2.527
			c8.991-3.947,13.63-8.74,19.546-16.124c4.898-6.115,10.548-9.723,16.174-14.905c10.074-9.278,7.88-22.854,16.367-33.379
			c5.531-6.859,13.938-8.806,21.412-12.521c8.487-4.221,16.013-10.983,22.74-17.21c15.146-14.017,34.188-15.299,54.437-14.449
			c21.133,0.886,33.096,10.883,49.343,23.03c20.89,15.618,57.027,38.736,83.194,18.66c14.966-11.483,6.646-37.416,12.774-53.588
			c2.396-6.32,7.645-11.322,9.372-17.853c1.84-6.954,2.299-16.22,3.211-23.14c1.044-7.925,0.051-15.174-3.852-21.911
			c-3.478-6.001-10.824-9.783-13.192-15.916c-2.879-7.457,1.312-12.083,4.25-18.272c2.965-6.248,1.504-14.746,4.442-20.252
			c6.912-12.952,31.584-7.483,43.394-10.798c14.871-4.172,27.523-11.126,39.967-19.594c6.601-4.491,11.875-13.436,19.701-12.508
			C1370.483,775.222,1410.345,854.868,1402.011,899.564z"/>
		<path fill="none" stroke="#FFFFFF" stroke-width="8" stroke-linecap="round" stroke-miterlimit="10" d="M1898.882,1134.679
			c0.827,15.926-0.695,29.978-1.699,45.856c-0.92,14.534,5.186,28.112,5.949,42.5c0.841,15.843-0.501,58.98,2.551,79.9
			c11.899,81.6,42.216,97.181,56.761,107.122c15.137,10.347,19.469,24.116,22.119,41.2c2.561,16.498-0.154,31.062-5.567,46.283
			c-5.789,16.271-7.013,32.868-7.013,50.172c0,41.417,9.027,82.509,27.184,120.001c2.875,5.937,8.787,17.03,16.807,16.74
			c4.913-0.179,12.062-9.885,15.534-13.617c10.713-11.516,25.886-20.838,43.113-19.401c14.536,1.212,18.129,12.054,8.69,22.098
			c-8.04,8.559-22.42,26.71-25.457,38.258c-2.349,8.929-2.495,17.636,1.018,26.344c4.46,11.059,20.348,33.084,33.786,28.688
			c3.047-0.997,3.83-4.666,6.805-4.927c4.707-0.41,9.173,4.971,11.917,7.736c4.921,4.96,9.021,18.238,15.114,21.246
			c14.849,7.338,13.882-30.45,18.698-38.356c3.643-5.979,9.084-12.511,16.341-12.687c6.564-0.159,9.944,5.901,15.961,2.547
			c10.53-5.87,5.766-30.124,6.267-39.815c11.668,0.619,30.259,15.58,38.122-2.682c3.005-6.978-1.296-14.257,1.916-21.246
			c3.686-8.018,13.34-8.955,20.225-13.392c6.392-4.118,9.594-8.147,5.292-15.765c-1.217-2.157-4.492-2.6-6.013-5.653
			c-1.548-3.108-0.981-10.145-1.02-13.644c-0.178-16.35,2.862-30.173-4.897-44.99c-4.725-9.021-10.834-17.378-15.267-26.371
			c-4.428-8.983-6.273-19.089-10.205-28.089c-5.301-12.135-18.148-31.409,6.549-30.411c9.849,0.397,15.47,5.451,25.562,2.128
			c8.229-2.71,15.131-8.156,23.759-10.179c9.3-2.18,18.615-1.014,28.239-1.488c17.237-0.85,32.271-8.907,47.642-16.23
			c10.827-5.159,21.529-9.614,32.899-13.522c6.328-2.175,14.722-4.51,19.569-9.307c12.385-12.254,13.532-31.201,28.876-41.734
			c11.617-7.975,32.364-13.139,39.788-25.5c4.765-7.933,1.226-16.353,2.717-25.077c1.545-9.042,8.521-16.756,10.429-25.896
			c3.477-16.664-7.003-25.326-13.17-39.744c-5.201-12.161-7.812-36.892-2.336-49.445c5.559-12.741,14.365-1.865,22.286-5.087
			c11.657-4.741,2.49-19.354,18.554-11.107c6.041,3.102,11.979,8.363,19.508,6.841c7.627-1.542,13.979-9.263,20.209-13.022
			c21.178-12.78,35.934-24.916,50.129-45.837c10.193-15.025,10.238-33.792,13.787-50.875c5.045-24.27,16.703-48.729,18.766-73.501
			c1.738-20.882,0.441-43.421-2.801-63.819c-3.6-22.656,4.338-47.536-5.105-69.142c-6.24-14.272-15.629-26.628-21.035-41.674
			c-5.787-16.109-11.539-37.433-2.504-53.36c9.984-17.596,31.27-24.07,41.371-41.183c9.039-15.311,15.08-30.905,24.693-45.747
			c8.104-12.51,5.189-28.011,4.439-42.521c-0.848-16.437-3.865-24.465-13.367-37.529c-9.307-12.796-13.498-26.557-29.982-30.477
			c-14.076-3.349-29.834-2.644-44.199-4.248c-20.158-2.251-34.588-1.399-54.441,5.991c-17.787,6.622-28.219,19.924-42.396,31.244
			c-8.711,6.956-17.359,13.656-28.113,15.509c-8.148,1.403-16.985,2.116-23.611,7.653c-6.295,5.261-9.125,13.94-14.598,19.716
			c-8.178,8.631-21.195,18.737-31.488,24.563c-9.202-5.291-20.916-18.659-26.542-27.943c-7.105-11.727-13.444-25.671-14.922-39.289
			c-1.812-16.699,2.656-34.953-2.078-51c-1.33-4.509-6.699-16.056-12.561-15.399c-4.636,0.518-8.615,12.582-12.555,14.79
			c-5.237,2.935-12.969,1.459-18.949,1.459c-15.765,0-36.412-4.905-46.696,8.526c-10.701,13.974-14.45,30.198-14.45,47.574
			c0,37.162,4.992,73.488,1.703,110.544c-2.258,25.44,12.87,65.376-14.453,81.578c-18.9,11.208-43.562,11.407-64.6,15.467
			c-26.939,5.199-53.669,6.658-80.75,11.524c-21.541,3.871-37.291,19.407-56.182,29.894c-33.71,18.713-57.472,44.989-69.387,81.832
			c-6.574,20.329-20.695,32.511-32.722,49.771c-5.202,7.468-9.12,14.623-11.541,23.372c-1.062,3.841-2.377,8.415-2.764,12.523
			C1901.466,1099.255,1897.971,1117.131,1898.882,1134.679z"/>
	</g>
</g>
<g id="hands">
	<path fill="none" stroke="#FFFFFF" stroke-width="8" stroke-linecap="round" stroke-miterlimit="10" d="M4685.313,2372.334
		c-34.646-30.529-73.702-56.765-104.646-83.333c-27.41-23.535-53.642-47.004-80.021-70.544
		c-22.106-19.727-48.575-35.716-69.979-54.79c-19.343-17.236-37.206-36.199-56.667-52.667
		c-33.53-28.374-65.217-37.299-106.665-47.333c-19.813-4.796-50.499-10.261-69.334-14.667c-34.542-8.079-51.572-12.83-86.677-15.74
		c-33.281-2.759-68.446-1.44-102.021-7.083c-12.082-2.03-103.968-4.51-103.968-4.51c-24.859-0.091-57.357-4.074-81.335-12.667
		c-24.061-8.624-45.204-24.661-68-36c-21.367-10.626-38.361-25.269-60.518-33.333c-23.91-8.703-48.066-17.689-71.965-25.732
		c-14.721-4.955-44.852-27.155-60.035-22.905c-23.044,6.451-19.147,55.527,2.739,67.302"/>
	<path fill="none" stroke="#FFFFFF" stroke-width="8" stroke-linecap="round" stroke-miterlimit="10" d="M3752.511,3536.52
		c-1.139,1.215-49.945-62.171-85.846-110.186c-7.648-10.229-26.312-43.658-42-71.333c-6.387-11.268-36.113-64.961-52-93.334
		c-23.671-42.275-23.333-47.952-46.979-92.293c-10.368-19.443-23.918-42.135-33.688-61.707c-9.214-18.461-27.894-34.954-32-54.666
		c-2.683-12.878,5.66-19.759,8.69-30.953c3.41-12.592,8.955-28.985,11.976-41.714c5.57-23.469,20.751-46.26,29.334-69.333
		c8.06-21.665,12.818-38.826,6.688-64.105c-6.874-28.348-15.44-41.254,1.794-69.413c20.851-34.069,56.853-73.814,23.705-124.048
		c-14.167-21.47-30.186-29.767-57.519-25.101c-25.208,4.303-56.667,7.334-112.667,60.667c-17.381,16.553-39.82,50.649-44.667,50.667
		c-73.641,0.271-130.632-46.551-189.334-91.334c-22.783-17.38-65.124-47.945-84.666-69.333
		c-16.119-17.642-29.569-24.601-46.358-41.47c-17.03-17.111-81.056-52.017-101.641-64.529
		c-21.739-13.215-55.959-43.207-73.78-55.422c-16.958-11.623-50.79-31.613-67.567-43.482
		c-33.935-24.008-51.072-38.058-84.258-64.181c-50.283-39.582-104.291-65.013-121.566-14.167
		c-15.422,45.391,8.531,70.828,38.505,101.918c32.778,34,79.631,83.495,110.023,114.776c14.769,15.2,30.665,36.179,46.644,49.189
		c19.352,15.758,47.016,37.798,44,40.701c-18,17.333-69.021,0.914-104-20.665c-16.177-9.979-66.078-55.845-82.667-68
		c-36.195-26.522-92.116-51.017-128.183-77.008c-17.801-12.828-29.785-19.069-48.484-33.659
		c-21.424-16.716-44.112-48.69-71.333-66.667c-27.319-18.042-64.871-15.528-77.733-7.337
		c-22.013,14.019-28.602,47.017-15.688,78.004c7.971,19.126,29.881,36.961,40.713,50.661c15.436,19.523,39.748,37.864,57.883,54.775
		c17.6,16.413,27.825,32.375,44.864,49.502c15.1,15.178,32.283,28.663,48.405,42.75c18.557,16.214,36.824,32.12,56.223,46.312
		c17.377,12.713,35.564,26.903,52,40.667c14.121,11.824,35.346,41.106,22.666,45.333c-26,8.667-65.76-35.733-96.054-58.812
		c-30.189-23-59.449-46.829-91.912-65.245c-41.958-23.804-47.776-18.937-91.706-39.217c-14.546-6.715-76.25-40.113-104.775-59.062
		c-31.76-21.097-57.561-57.736-98.947-53.018c-35.272,4.021-48.87,33.799-53.968,51.889
		c-15.031,53.335,45.458,77.206,79.859,101.653c21.299,15.136,40.009,33.287,61.945,46.518
		c17.841,10.762,28.561,29.433,45.867,40.482c22.747,14.523,46.343,27.698,68.793,42.69c28.372,18.948,53.624,43.005,82.814,60.766
		c20.01,12.175,38.707,25.438,58.492,37.498c17.78,10.838,44.233,31.981,40.164,55.908c-3.785,22.251-15.18,38.35-35.907,38.617
		c-18.453,0.236-50.923-14.606-67.458-20.967c-10.188-3.918-44.276-13.182-51.217-15.515c-15.659-5.264-32.329-7.172-47.908-12.631
		c-23.86-8.36-78.75-12.221-104.083-18.888c-48.252-12.698-64.486-14.064-113.406-26.482c-39.167-9.943-96.94-40.83-133.928-8.184
		c-21.185,18.699-18.288,55.972-2.362,74.736c13.235,15.594,25.443,29.237,53.028,37.264
		c48.076,13.989,92.672,34.278,141.759,46.872c26.823,6.883,41.445,14.414,66.908,25.795c27.018,12.076,66.459,24.915,95.083,30.908
		c40.146,8.406,73.714,18.46,110.917,36.425c19.085,9.215,31.73,18.813,46.199,32.867c14.183,13.774,31.881,23.683,48.707,33.797
		c22.949,13.794,44.052,29.928,67.235,43.493c20.978,12.273,38.865,26.933,59.925,39.046c22.842,13.139,32.097,20.345,54.6,36.797
		c23.536,17.206,64.271,36.553,91.232,48.654c24.04,10.79,46.934,24.387,69.819,38.32c24.21,14.74,55.542,14.633,78.025,32.959
		c24.18,19.709,47.172,53.295,64.806,79.05c32.804,47.91,68.008,93.26,105.294,138.326c12.394,14.979,27.749,27.736,39.796,43.058
		c11.473,14.592,40.361,54.3,40.361,54.3"/>
	<path fill="none" stroke="#FFFFFF" stroke-width="8" stroke-linecap="round" stroke-miterlimit="10" d="M3793.332,2013.668
		c0,0-70.057-9.047-97.85-16c-24.434-6.113-45.042-16.653-69.482-23.333c-14.686-4.014-115.123-31.885-139.334-41.333
		c-27.333-10.667-57.209-19.212-83.73-30.267c-56.938-23.733-77.91-64.478-110.271-45.066c-13.337,8-19.333,32.825-12.023,48.667
		c9.247,20.04,35.827,35.444,44.769,42.894c17.396,14.495,44.311,21.852,65.357,27.519"/>
	<path fill="none" stroke="#FFFFFF" stroke-width="8" stroke-linecap="round" stroke-miterlimit="10" d="M4169.185,2364.827
		c18.592,8.634,40.054,10.496,55.548,24.556c14.859,13.483,25.463,35.418,35.821,52.426c13.138,21.572,28.589,40.388,42.805,61.263
		c11.489,16.873,23.404,31.603,35.307,47.93c19,26.063,43.721,52.763,60.382,80.641"/>
	<path fill="none" stroke="#FFFFFF" stroke-width="8" stroke-linecap="round" stroke-miterlimit="10" d="M3148.568,2001.884
		c-8.398-11.55-10.135-31.187-8.027-44.776c3.783-24.403,22.839-34.06,44.501-22.595c37.158,19.667,63.529,23.402,102.956,31.821
		c23.194,4.952,47.509,3.532,71.334,6c29.83,3.09,48.231,8.038,78.666,8c14.844-0.019,86.408,15.001,100.059,18.8
		c28.087,7.816,61.597,10.542,91.418,12.04c18.63,0.936,36.523,3.389,55.19,2.494c18.735-0.898,36.988,0.09,55.56,2.078"/>
	<path fill="none" stroke="#FFFFFF" stroke-width="8" stroke-linecap="round" stroke-miterlimit="10" d="M4258.221,2318.531
		c-6.148,16.019-45.323,17.656-59.227,24.994c-22.998,12.138-40.357,33.068-62.479,46.629c-25.942,15.902-55.01,29.52-82.518,42.847
		c-48.779,23.636-97.908,47.117-150,62c-50,14.285-92.801,27.212-138,58c-46,31.333-89.306,70.026-146.977,59.563
		c-41.689-7.563-53.056-95.534-20.356-127.563c21.229-20.794,55.263-41.711,111.849-71.931
		c21.591-11.531,34.857-26.14,29.711-52.736c-3.969-20.506-27.516-45.676-38.226-63.333
		c-24.667-40.667-72.797-65.603-120.667-83.333c-23.094-8.555-49.682-18.785-74-23.334c-51.924-9.714-101.343-27.726-155.266-37.079
		c-50.538-8.766-100.326-20.605-147.401-41.587c-26.659-11.881-60.916-32.218-70.123-63.074c-2.858-9.579-1.512-17.475,1.7-26.643
		c2.169-6.192,2.086-15.525,8.571-18.784c6.754-3.393,15.059-0.812,21.333,1.021c6.529,1.907,45.949,20.489,52.484,23.665
		c5.229,2.54,26.125,4.838,30.735,6.481c19.647,7.004,39.161,11.515,60.599,12.667c21.583,1.16,42.521,1.248,64.033-0.669
		c12.716-1.133,24.164,0.829,37.334,1.336c7.758,0.299,19.878,1.853,36.553,4.815c10.625,1.887,22.013,2.782,32.78,4.37
		c11.806,1.741,23.163,2.925,34.7,6.112c13.375,3.694,28.661,3.663,41.967,6.703c10.521,2.404,23.236,2.667,34,2.667
		c12.169,0,20.861-0.892,32.65-0.518c37.35,1.185,112.016-5.482,112.016-5.482"/>
</g>
<g id="details_1_">
	<path fill="none" stroke="#FFFFFF" stroke-width="5" stroke-linecap="round" stroke-miterlimit="10" d="M2620.904,2273.475
		c0,0,17.329,19.39,22.594,28.03c7.702,12.64,2.26,15.662-8.033,23.664c-9.451,7.348-16.866,11.873-29.468,17.317
		c-9.511,4.108-20.977,7.985-30.517,2.353c-7.42-4.381-22.008-26.37-22.008-26.37"/>
	<path fill="none" stroke="#FFFFFF" stroke-width="5" stroke-linecap="round" stroke-miterlimit="10" d="M2331.08,2324.204
		c0,0,13.725,13.21,19.386,22.282c5.307,8.506,14.226,18.716,10.033,29.348c-3.605,9.145-16.493,14.067-24.165,19.499
		c-8.458,5.988-16.854,12.351-27.002,13.819c-12.418,1.797-21.171-7.151-28.998-15.819c-3.927-4.349-17.418-23.978-17.418-23.978"/>
	<path fill="none" stroke="#FFFFFF" stroke-width="5" stroke-linecap="round" stroke-miterlimit="10" d="M2099.896,2463.261
		c0,0,24.738,13.038,31.771,18.739c6.165,4.997,23.481,17.262,23.344,26.337c-0.093,6.076-7.807,16.281-10.822,21.494
		c-6.55,11.322-14.855,24.884-33.522,24.884c-11.562,0-17.178-1.791-28.038-5.192c-8.89-2.784-30.166-15.519-30.166-15.519"/>
	<path fill="none" stroke="#FFFFFF" stroke-width="5" stroke-linecap="round" stroke-miterlimit="10" d="M1945.737,2829.671
		c0,0,30.196,2.179,42.928,5.353c11.059,2.756,38.334,7.643,41.315,38.647c1.154,12.003-3.184,28.457-13.982,36.181
		c-10.927,7.815-28.332,4.956-40.667,4.485c-6.426-0.245-38.701-4.114-38.701-4.114"/>
	<path fill="none" stroke="#FFFFFF" stroke-width="5" stroke-linecap="round" stroke-miterlimit="10" d="M2297.332,3018.337
		c0.139-8.14,5.683-16.357,8.884-23.604c3.917-8.864,7.178-18.682,13.097-26.468c3.854-5.068,6.021-4.98,10.684-7.225
		c2.365-1.139,3.718-0.343,4.669-2.704"/>
	<path fill="none" stroke="#FFFFFF" stroke-width="5" stroke-linecap="round" stroke-miterlimit="10" d="M2324.665,3031.004
		c4.099-16.75,16.426-33.422,26.059-47.437c3.117-4.536,7.763-8.658,6.608-14.563"/>
	<path fill="none" stroke="#FFFFFF" stroke-width="5" stroke-linecap="round" stroke-miterlimit="10" d="M2369.332,3003.004
		c2.402-6.144,5.856-11.971,8.529-18.045c0.407-0.926,4.539-10.163,2.804-7.288"/>
	<path fill="none" stroke="#FFFFFF" stroke-width="5" stroke-linecap="round" stroke-miterlimit="10" d="M2105.332,2928.337
		c0.153-7.418,16.46-26.098,23.334-32.666"/>
	<path fill="none" stroke="#FFFFFF" stroke-width="5" stroke-linecap="round" stroke-miterlimit="10" d="M2095.332,2924.337
		c-0.128-7.439,3.586-17.352,6.667-24"/>
	<path fill="none" stroke="#FFFFFF" stroke-width="5" stroke-linecap="round" stroke-miterlimit="10" d="M2189.951,2602.766
		c0.436-19.121,15.533-38.388,29.293-50.656"/>
	<path fill="none" stroke="#FFFFFF" stroke-width="5" stroke-linecap="round" stroke-miterlimit="10" d="M2181.999,2569.004
		c3.252,0.125,22.217-25.141,24-22"/>
	<path fill="none" stroke="#FFFFFF" stroke-width="5" stroke-linecap="round" stroke-miterlimit="10" d="M2341.332,2708.337
		c7.824,2.808,28.733-9.984,34.622-15.272c11.801-10.598,24.256-20.812,36.474-30.76"/>
	<path fill="none" stroke="#FFFFFF" stroke-width="5" stroke-linecap="round" stroke-miterlimit="10" d="M2380.666,2711.004
		c10.406,5.112,59.996-17.723,57.333-22"/>
	<path fill="none" stroke="#FFFFFF" stroke-width="5" stroke-linecap="round" stroke-miterlimit="10" d="M2347.332,2680.337
		c7.75-14.069,17.049-32.532,31.334-44"/>
	<path fill="none" stroke="#FFFFFF" stroke-width="5" stroke-linecap="round" stroke-miterlimit="10" d="M2365.333,2451.671
		c1.662-9.2,10.146-18.795,16.472-25.322c8.155-8.413,17.028-10.669,26.191-14.629"/>
	<path fill="none" stroke="#FFFFFF" stroke-width="5" stroke-linecap="round" stroke-miterlimit="10" d="M2390,2455.004
		c8.449,2.765,24.57,0.375,30.666-6"/>
	<path fill="none" stroke="#FFFFFF" stroke-width="5" stroke-linecap="round" stroke-miterlimit="10" d="M2484,2559.671
		c3.693-8.996,14.065-21.757,21.27-28.517c7.652-7.179,18.4-12.451,27.44-17.538c2.896-1.63,7.397-3.595,7.956-5.279"/>
	<path fill="none" stroke="#FFFFFF" stroke-width="5" stroke-linecap="round" stroke-miterlimit="10" d="M2506.666,2547.671
		c19.989-1.936,39.684-9.129,55.915-20.502"/>
	<path fill="none" stroke="#FFFFFF" stroke-width="5" stroke-linecap="round" stroke-miterlimit="10" d="M2502.666,2567.004
		c14.894,1.052,33.863-7.411,47.543-12.516c8.598-3.209,19.851-11.604,28.457-12.151"/>
	<path fill="none" stroke="#FFFFFF" stroke-width="5" stroke-linecap="round" stroke-miterlimit="10" d="M2646,2386.338
		c7.888-4.336,15.907-10.251,23.378-15.379c6.777-4.651,13.806-12.934,22.053-14.736"/>
	<path fill="none" stroke="#FFFFFF" stroke-width="5" stroke-linecap="round" stroke-miterlimit="10" d="M2720.666,2459.004
		c2.151-9.631,23.028-19.474,32.043-22.061c5.249-1.506,12.288-0.05,16.719-1.941"/>
	<path fill="none" stroke="#FFFFFF" stroke-width="5" stroke-linecap="round" stroke-miterlimit="10" d="M2742,2459.671
		c11.132,0.229,21.363-2.021,31.003-7.808c3.167-1.901,27.714-20.437,25.663-22.859"/>
	<path fill="none" stroke="#FFFFFF" stroke-width="5" stroke-linecap="round" stroke-miterlimit="10" d="M3489.249,2627.663
		c0,0-13.194,18.612-18.413,28.191c-1.963,3.603-3.865,10.569-4.021,14.63c-0.242,6.27,2.909,6.137,7.169,10.021
		c9.728,8.871,15.261,15.997,19.98,25.494c5.005,10.07,15.633,54.953,20.87,47.666c7.666-10.666,35.178-30.14,35.096-30.407"/>
	<path fill="none" stroke="#FFFFFF" stroke-width="5" stroke-linecap="round" stroke-miterlimit="10" d="M3453.332,2701.67
		c8.273,0.268,19.229,5.84,25.186,11.333c6.183,5.702,9.304,15.903,15.446,20.601"/>
	<path fill="none" stroke="#FFFFFF" stroke-width="5" stroke-linecap="round" stroke-miterlimit="10" d="M3427.332,2710.336
		c17.532,7.16,38.283,9.31,52.667,22.519c8.036,7.38,17.504,19.364,20,30.148"/>
	<path fill="none" stroke="#FFFFFF" stroke-width="5" stroke-linecap="round" stroke-miterlimit="10" d="M3416.634,2755.672
		c24.944,2.292,51.117,4.879,68.847,25.331c6.647,7.668,14.084,32.062,23.186,34"/>
	<path fill="none" stroke="#FFFFFF" stroke-width="5" stroke-linecap="round" stroke-miterlimit="10" d="M3614.334,2518.666
		c1.996-4.586,19.296-13.688,32.33-18.331c13.024-4.641,17.034-2.725,27.337,6.331c8.661,7.612,17.417,24.152,21.598,35
		c4.756,12.339-0.562,25.259-8.658,33.854c-12.592,13.37-27.592,27.54-33.273,26.48c-15.381-2.868-27.807-34.052-30.829-41.812
		C3619.177,2550.789,3611.561,2525.037,3614.334,2518.666z"/>
	<path fill="none" stroke="#FFFFFF" stroke-width="5" stroke-linecap="round" stroke-miterlimit="10" d="M3703.331,2466.335
		c7.679,8.872,20.484,15.049,28.845,23.987c8.38,8.96,11.656,20.823,17.121,31.189"/>
	<path fill="none" stroke="#FFFFFF" stroke-width="5" stroke-linecap="round" stroke-miterlimit="10" d="M3704.664,2455.001
		c0,0,20.467,3.963,25.736,5.231c6.058,1.459,12.23,3.223,17.448,6.738c7.77,5.232,16.035,14.566,20.329,22.699
		c3.911,7.41,3.82,15.094,3.819,23.279c-0.001,5.177-2.776,14.253-1.333,18.052"/>
	<path fill="none" stroke="#FFFFFF" stroke-width="5" stroke-linecap="round" stroke-miterlimit="10" d="M3435.001,2056.667
		c3.333,8-7.615,22.907-10.333,23.002"/>
	<path fill="none" stroke="#FFFFFF" stroke-width="5" stroke-linecap="round" stroke-miterlimit="10" d="M3421.001,2048.441
		c-5.333,8.332-13.831,13.214-15.375,16.838c-3.541,8.312-2.114,13.395-6.292,19.056"/>
	<path fill="none" stroke="#FFFFFF" stroke-width="5" stroke-linecap="round" stroke-miterlimit="10" d="M3268.668,2047.668
		c-1.519,2.91-5.279,5.095-7.482,8.281c-3.158,4.569-3.138,9.417-4.518,13.719"/>
	<path fill="none" stroke="#FFFFFF" stroke-width="5" stroke-linecap="round" stroke-miterlimit="10" d="M3218.668,2028.335
		c1.282,9.04-12,9.444-18.67,9.333c-10.976-0.182-28.997-2.335-45.997-11.185c-4.449-2.316-16-10.738-16-10.738"/>
	<path fill="none" stroke="#FFFFFF" stroke-width="5" stroke-linecap="round" stroke-miterlimit="10" d="M3144.031,1945.333
		c0,0,12.756,7.587,19.97,10.187c6.827,2.459,14.704,4.808,21.964,5.146c14.349,0.669,28.582-2.419,41.933-7.348"/>
	<path fill="none" stroke="#FFFFFF" stroke-width="5" stroke-linecap="round" stroke-miterlimit="10" d="M3288.001,1967.668
		c0.398-0.353-0.337-0.903-0.003-1.334c-1.997,3.441-6.198,6.908-9.997,7.334"/>
	<path fill="none" stroke="#FFFFFF" stroke-width="5" stroke-linecap="round" stroke-miterlimit="10" d="M3464.416,1983.814
		c-14.116,14.633-28.313,29.648-48.175,37.099c-1.455-0.117,0.183-0.56,0.093-1.245"/>
	<path fill="none" stroke="#FFFFFF" stroke-width="5" stroke-linecap="round" stroke-miterlimit="10" d="M3445.334,1980.902
		c-9.369,3.069-17.302,23.364-27.333,22.099"/>
	<path fill="none" stroke="#FFFFFF" stroke-width="5" stroke-linecap="round" stroke-miterlimit="10" d="M3424.668,1980.02
		c-1.8,2.709-6.523,11.723-7.334,10.981"/>
	<path fill="none" stroke="#FFFFFF" stroke-width="5" stroke-linecap="round" stroke-miterlimit="10" d="M3297.185,1855.311
		c-1.733,4.868-3.22,16.963-0.384,22.209c3.025,5.597,17.731,8.825,23.2,9.967c16,3.341,33.232,1.276,49.139-2.661"/>
	<path fill="none" stroke="#FFFFFF" stroke-width="5" stroke-linecap="round" stroke-miterlimit="10" d="M3384.668,1913.001
		c6.354-1.649,13.782-9.841,20.764-9.241"/>
	<path fill="none" stroke="#FFFFFF" stroke-width="5" stroke-linecap="round" stroke-miterlimit="10" d="M3525.334,1977.001
		c9.426-8.286,19.738-19.012,31.792-22.099"/>
	<path fill="none" stroke="#FFFFFF" stroke-width="5" stroke-linecap="round" stroke-miterlimit="10" d="M3548.001,1973.668
		c3.408-3.451,8.306-5.66,11.427-9.364c1.389-1.647,1.721-6.013,3.24-7.802"/>
	<path fill="none" stroke="#FFFFFF" stroke-width="5" stroke-linecap="round" stroke-miterlimit="10" d="M3554.668,1896.816
		c4.039,9.446,20.895,15.334,29.666,16.185c7.352,0.713,26.17,2.331,32.461-1.909"/>
	<path fill="none" stroke="#FFFFFF" stroke-width="5" stroke-linecap="round" stroke-miterlimit="10" d="M3685.334,1959.001
		c3.561-1.441,8.051-0.646,11.992-1.824c4.812-1.438,12.127-6.95,15.538-9.541"/>
	<path fill="none" stroke="#FFFFFF" stroke-width="5" stroke-linecap="round" stroke-miterlimit="10" d="M3687.334,1949.668
		c4.866-2.614,6.657-8.429,12.372-8.36"/>
</g>
</svg>
