<?xml version="1.0" encoding="utf-8"?>
<!-- Generator: Adobe Illustrator 16.0.4, SVG Export Plug-In . SVG Version: 6.00 Build 0)  -->
<!DOCTYPE svg PUBLIC "-//W3C//DTD SVG 1.1//EN" "http://www.w3.org/Graphics/SVG/1.1/DTD/svg11.dtd">
<svg version="1.1" xmlns="http://www.w3.org/2000/svg" xmlns:xlink="http://www.w3.org/1999/xlink" x="0px" y="0px" width="4896px"
	 height="3809px" viewBox="0 0 4896 3809" enable-background="new 0 0 4896 3809" xml:space="preserve">
<g id="hardware">
	<g>
		<path fill="none" stroke="#FFFFFF" stroke-width="8" stroke-linecap="round" stroke-miterlimit="10" d="M2651.469,2594.458
			c-80.678,42.658-197.785,99.116-214.168,99.106c-19.832-0.012-84.605-59.899-88.301-67.498c-3.68-7.566-2.465-34.066,0-64.066
			c0.746-9.089,141.319-68.814,226.547-103.586"/>
		<path fill="none" stroke="#FFFFFF" stroke-width="8" stroke-linecap="round" stroke-miterlimit="10" d="M2675.341,2457.401
			c5.583,3.62,11.176,7.478,16.522,11.355"/>
		<path fill="none" stroke="#FFFFFF" stroke-width="8" stroke-linecap="round" stroke-miterlimit="10" d="M2728.176,2501.5"/>
		<path fill="none" stroke="#FFFFFF" stroke-width="8" stroke-linecap="round" stroke-miterlimit="10" d="M2349,2566.035
			c7.5,23.465,75.026,76.803,91,79.465c9.31,1.552,84.904-31.412,156.334-66.506"/>
	</g>
	<path fill="none" stroke="#FFFFFF" stroke-width="8" stroke-linecap="round" stroke-miterlimit="10" d="M2440,2645.5
		c0,12.034-1.35,34-2.699,48.064"/>
	<g>
		<polygon fill="none" stroke="#FFFFFF" stroke-width="8" stroke-linecap="round" stroke-miterlimit="10" points="709.934,2775.236 
			2938.521,1790.986 2798.28,125.919 245.856,444.653 		"/>
		<path fill="none" stroke="#FFFFFF" stroke-width="8" stroke-linecap="round" stroke-miterlimit="10" d="M2038.534,1290.444
			c-22.873,5.03-51.28,22.348-67.794,40.51c-20.266,22.288-32.255,51.307-48.483,76.621c-13.582,21.185-31.548,38.14-42.975,61.023
			c-5.87,11.757-10.954,26.85-23.325,34.51c-12.909,7.992-26.096,2.861-41.319,11.479c-15.541,8.796-26.757,23.509-40.74,34.412
			c-13.546,10.561-28.379,20.069-41.227,31.51c-26.934,23.979-56.142,55.327-73.062,87.078c-7.158,13.433-15.198,37.475-27.2,47.128
			c-10.157,8.17-23.614,5.896-36.984,3.918c-31.682-4.688-44.581-22.671-59.873-49.258c-6.438-11.197-17.875-24.562-20.104-37.488
			c-2.562-14.859,12.204-33.994,10.019-38.849c-3.631-8.071-63.687,10.377-94.897,15.001c-34.48,5.108-61.463-10.175-86.651-34.291
			c-24.307-23.271-26.215-46.281-37.911-76.236c-11.3-28.94-22.683-54.572-28.438-84.925c-7.06-37.238-2.429-64.915,15.633-98.173
			c14.887-27.411,34.7-50.97,37.028-82.033c5.104-68.133,53.098-104.167,86.233-160.084c20.893-35.256,37.749-59.479,66.854-87.731
			c24.338-23.626,49.479-43.286,79.812-58.185c27.112-13.315,50.994-34.97,78.16-48.915c30.342-15.575,62.252-23.674,95.28-33.955
			c59.756-18.602,121.746-36.432,183.228-17.292c56.263,17.515,130.661,3.896,169.954,57.62
			c17.085,23.359,22.58,55.374,34.709,81.648c12.297,26.639,27.787,36.49,52.362,51.378
			c55.098,33.378,35.228,103.394,49.646,157.634c7.622,28.67,15.897,62.225,18.449,91.8c2.929,33.962-0.582,67.537,2.383,101.047
			c2.945,33.264,1.096,69.278-26.178,92.457c-49.793,42.315-88.404,95.604-137.793,138.13
			c-55.265,47.587-99.156,105.018-163.2,140.758c-27.085,15.115-60.983,9.23-73.007-22.061
			c-12.575-32.731,0.588-75.192,6.707-106.843c6.833-35.34-23.271-76.768,2.127-106.679"/>
		<path fill="none" stroke="#FFFFFF" stroke-width="8" stroke-linecap="round" stroke-miterlimit="10" d="M1476.431,1511.187
			c16.172-1.222,21.453,16.722,33.911,22.56c15.922,7.461,40.464,2.044,57.84,2.901c33.999,1.677,62.736,0.609,93.888-14.762
			c33.355-16.459,51.913-48.249,82.41-66.709c22.484-13.61,51.692-22.183,40.022-54.476c-6.653-18.419-20.498-24.145-15.841-47.194
			c5.521-27.328,35.022-49.519,51.674-70.16c17.584-21.798,24.331-54.391,35.195-74.761"/>
		<path fill="none" stroke="#FFFFFF" stroke-width="8" stroke-linecap="round" stroke-miterlimit="10" d="M1394.83,1419.386
			c11.949-6.909,13.991-22.652,20.324-33.921c10.442-18.58,22.146-23.25,39.176-32.806c29.127-16.343,51.081-39.297,54.312-72.467
			c2.554-26.221-2.08-28.561-11.467-49.33c-8.673-19.188-0.531-37.021,6.542-55.17c8.279-21.24,28.516-88.959,47.513-92.906"/>
		<path fill="none" stroke="#FFFFFF" stroke-width="8" stroke-linecap="round" stroke-miterlimit="10" d="M1597.13,1208.586
			c8.979-6.87,10.421-28.344,14.847-41.051c5.488-15.762,13.148-30.188,18.688-46.076c9.896-28.389,11.276-56.957,18.749-86.194
			c6.85-26.801,21.826-59.293,54.817-52.772c23.365,4.617,32.971,23.498,59.113,24.051"/>
		<path fill="none" stroke="#FFFFFF" stroke-width="8" stroke-linecap="round" stroke-miterlimit="10" d="M1790.931,965.487
			c47.185,16.935,62.275-33.923,103.699-35.282c36.944-1.212,34.08,59.789,51,81.182"/>
		<path fill="none" stroke="#FFFFFF" stroke-width="8" stroke-linecap="round" stroke-miterlimit="10" d="M1860.63,1109.987
			c6.956-20.275-34.562-43.123-54.016-31.868c-17.696,10.239-23.699,48.268-25.884,65.868"/>
		<path fill="none" stroke="#FFFFFF" stroke-width="8" stroke-linecap="round" stroke-miterlimit="10" d="M1699.13,1169.487
			c16.68,20.23,27.2,49.761,27.2,69.7"/>
		<path fill="none" stroke="#FFFFFF" stroke-width="8" stroke-linecap="round" stroke-miterlimit="10" d="M1658.33,1242.586
			c0.616-7.008-2.376,5.988-3.27,7.952c-3.462,7.604-7.035,14.087-9.048,22.188c-2.939,11.83-4.679,25.346-6.383,37.438
			c-3.025,21.479-9.32,67.984,11.825,81.38"/>
		<path fill="none" stroke="#FFFFFF" stroke-width="8" stroke-linecap="round" stroke-miterlimit="10" d="M1882.73,1254.487
			c37.662,22.349,85.788-13.359,122.36-24.172c64.87-19.179,96.377-57.733,126.898-113.91"/>
		<path fill="none" stroke="#FFFFFF" stroke-width="8" stroke-linecap="round" stroke-miterlimit="10" d="M2187.03,1305.487
			c13.139,25.492-49.396,67.311-64.6,81.554c-13.784,12.915-28.051,32.42-36.979,49.307c-5.837,11.038-7.635,22.419-10.534,34"/>
		<path fill="none" stroke="#FFFFFF" stroke-width="8" stroke-linecap="round" stroke-miterlimit="10" d="M2071.431,1330.987
			c0,26.974-1.008,45.811-11.9,69.739c-4.954,10.884-8.873,23.381-13.983,33.961c-7.556,15.639-9.634,11.722-24.778,17.378
			c-23.701,8.853-27.636,34.098-38.084,56.061c-11.202,23.551-23.209,57.462-40.454,76.161"/>
		<path fill="none" stroke="#FFFFFF" stroke-width="8" stroke-linecap="round" stroke-miterlimit="10" d="M1890.526,873.034
			c-30.533,12.587-71.294,14.199-104.487,12.69c-41.266-1.875-66.774,25.013-107.152,30.79
			c-40.507,5.796-56.787,33.165-94.282,46.474c-19.173,6.806-40.505,9.53-58.144,20.331c-17.204,10.536-24.513,32.042-41.365,40.158
			"/>
	</g>
</g>
<g id="hands">
	<path fill="none" stroke="#FFFFFF" stroke-width="8" stroke-linecap="round" stroke-miterlimit="10" d="M4280.482,2614.069
		c-43.312,3.945-103.312,24.892-139.148,48.931c-23.903,16.035-49.559,35.844-68,57.419c-13.806,16.152-31.296,33.068-46.333,48.914
		c-32.283,34.016-67.368,54-105,82.333c-40.599,30.566-92.147,52.42-140.66,64.216c-48.362,11.76-99.934,12.867-149.16,21.837
		c-53.401,9.731-103.659,27.457-154.235,49.46c-45.195,19.662-96.814,33.517-144.944,39.487
		c-45.874,5.69-95.647,8.612-123.841-36.073c-13.096-20.756-21.068-36.927-22.826-60.26c-1.931-25.633,0.982-56.333,11.334-74.667
		c24.512-43.413,73.516-52.664,110.999-65c32.905-10.829,58.051-25.057,107.334-34.333c28.333-5.333,158.415-3.034,196.681-36.187
		c4.969-4.304,8.632-9.163,13.833-13.082"/>
	<path fill="none" stroke="#FFFFFF" stroke-width="8" stroke-linecap="round" stroke-miterlimit="10" d="M3523.021,2747.46
		c0,0-24.02-35.46-33.41-52.097c-10.099-17.891-24.847-32.513-40.087-45.296c-35.027-29.38-73.713-36.21-116.994-46.498
		c-48.426-11.512-101.18-13.499-151.498-13.499c-53.24,0-109.03,8.596-161.652,2.666c-31.625-3.563-55.904-9.991-87.248-2.584
		c-31.831,7.522-70.295,12.549-103.13,12.848c-13.649,0.124-48.052-2.906-60.667-1.667c-26.634,2.617-55.419,3.838-80-0.333
		c-47.417-8.047-87.887-14.309-130-41.667c-17.567-11.411-27.667-57.666-19.705-77.333c3.271-8.081,20.822-10.423,28.372-11.924
		c46.564-9.258,99.48,1.896,147.56-2.295c50.969-4.443,99.725-7.566,148.493-24.704c46.235-16.247,90.868-29.16,137.993-39.075
		c24.098-5.07,49.979-6.356,74.996-8.922c30.43-3.12,62.711-7.358,92.966-1.457c31.204,6.086,63.825,13.426,95.803,6.324
		c28.563-6.343,52.367-25.204,80.062-32.992c13.296-3.739,27.036-1.197,40.154-4.874"/>
	<path fill="none" stroke="#FFFFFF" stroke-width="8" stroke-linecap="round" stroke-miterlimit="10" d="M2809.581,2457.572
		c-54.939,0-115.752-2.877-170.017,2.004c-25.444,2.289-51.563,6.757-75.563-5.999c-17.47-9.285-35.381-24.064-39.932-42.577
		c-6.772-27.547-7.336-63.544,22.931-65c29.857-1.436,63.909,3.743,93.301,0.301c55.5-6.5,94.06-12.432,144.699-23.217
		c52.625-11.208,130.039-36.707,183.048-41.999c26.071-2.603,49.095,1.887,76.045,1.915c29.64,0.031,58.708-2.842,88.407-2.5
		c27.069,0.312,54.285,0.475,81.5,1.5c26.419,0.995,48.496-1.048,73.477-8c27.279-7.592,59.455-8.84,95.523-8.5
		c30.835,0.29,58.43,0.331,89.023,1"/>
	<path fill="none" stroke="#FFFFFF" stroke-width="8" stroke-linecap="round" stroke-miterlimit="10" d="M2816.874,2315.504
		c-19.391,0-55.584-3.642-77.374-8.004c-25.36-5.076-44.28-11.633-61.5-31.5c-15.602-18-19-40.008-12.85-56.411
		c6.059-16.16,11.85-30.451,49.41-27.589c25.586,1.95,52.068,14.591,77.939,15.59c24.914,0.963,64.277,8.221,89.009,5.047
		c54.549-7,106.165-6.814,163.335-9.471c31.037-1.441,58.438-3.243,90.156-1.576c16.05,0.844,30.709,4.767,45.781,8.999
		c13.662,3.837,27.804,4.368,42.254,5.923c55.053,5.922,115.481,1.17,169.158,13.915c23.55,5.592,44.384,5.901,69.336,7.161
		c15.735,0.795,83.99,4.499,83.99,4.499"/>
	<path fill="none" stroke="#FFFFFF" stroke-width="8" stroke-linecap="round" stroke-miterlimit="10" d="M3048.001,2203.018
		c-19.807-8.518-43.383-24.329-46.976-45.518c-6.668-39.325,6.134-58.25,40.362-46.019c13.504,4.826,41.424,13.515,55.612,15.164
		c19.187,2.23,44.153,8.562,68,10.355c27.517,2.07,54.437,3.724,100.032,12.5c23.217,4.468,96.432,27.47,117.468,37.141
		c22.227,10.218,36.936,14.571,61.024,18.282c53.636,8.263,108.352,8.125,161.476,20.077c60,13.499,126.763,6.734,187.932,12.511
		c89.665,8.466,208.762,16.172,298.807,20.695c45.997,2.311,158.433,58.58,182.262,73.794c25.582,16.333,50.066,31.96,77,46
		c26.848,13.994,55.566,34.555,81,50c22.66,13.761,128.34,83.021,152,95c42.432,21.481,182.458,67,182.458,67"/>
	<path fill="none" stroke="#FFFFFF" stroke-width="8" stroke-linecap="round" stroke-miterlimit="10" d="M4069.991,2724.263
		c35.343,37.07,61.461,75.199,98.073,111.83c36.967,36.983,72.331,76.261,110.937,113.24
		c28.22,27.031,122.193,122.788,149.333,150.333"/>
</g>
<g id="details_1_">
	<path fill="none" stroke="#FFFFFF" stroke-width="5" stroke-linecap="round" stroke-miterlimit="10" d="M3002.546,2120.683
		c0,0,21.67,9.804,36.954,10.575c18.133,0.915,30.298-2.249,46.14-6.677"/>
	<path fill="none" stroke="#FFFFFF" stroke-width="5" stroke-linecap="round" stroke-miterlimit="10" d="M2666.915,2214.285
		c-6.35,34.447,103.182,18.704,113.647-7.897"/>
	<path fill="none" stroke="#FFFFFF" stroke-width="5" stroke-linecap="round" stroke-miterlimit="10" d="M2520.721,2374.339
		c13.976,27.256,44.312,19.229,69.613,12.328c14.667-4,37.527-18.419,49.967-40.366"/>
	<path fill="none" stroke="#FFFFFF" stroke-width="5" stroke-linecap="round" stroke-miterlimit="10" d="M2536.115,2493.652
		c25.598,29.829,47.066,28.692,84.219,20.015c11.648-2.721,39-13.592,47.724-22.597c16.767-17.308-25.729-23.946-25.729-23.946"/>
	<path fill="none" stroke="#FFFFFF" stroke-width="5" stroke-linecap="round" stroke-miterlimit="10" d="M2962.048,2425.079
		c6.845,26.915,4.189,59.774,11.671,85.404"/>
	<path fill="none" stroke="#FFFFFF" stroke-width="5" stroke-linecap="round" stroke-miterlimit="10" d="M3008.545,2416.079
		c-6.91,18.734-21.299,66.354,7.5,74.996"/>
	<path fill="none" stroke="#FFFFFF" stroke-width="5" stroke-linecap="round" stroke-miterlimit="10" d="M2753.559,2474.576
		c-2.648,14.097-11.721,46.238-1.5,58.497"/>
	<path fill="none" stroke="#FFFFFF" stroke-width="5" stroke-linecap="round" stroke-miterlimit="10" d="M2729.56,2480.576
		c-4.536,9.907-9.338,30.146-4.5,38.998"/>
	<path fill="none" stroke="#FFFFFF" stroke-width="5" stroke-linecap="round" stroke-miterlimit="10" d="M2714.561,2341.083
		c-12.443,13.264-17.013,41.233-16.725,59.733"/>
	<path fill="none" stroke="#FFFFFF" stroke-width="5" stroke-linecap="round" stroke-miterlimit="10" d="M2947.049,2293.086
		c-9.746,14.607-21.975,43.148-15,59.996"/>
	<path fill="none" stroke="#FFFFFF" stroke-width="5" stroke-linecap="round" stroke-miterlimit="10" d="M2968.048,2297.585
		c10.954,13.42,11.016,46.495,5.999,61.497"/>
	<path fill="none" stroke="#FFFFFF" stroke-width="5" stroke-linecap="round" stroke-miterlimit="10" d="M3074.542,2209.09
		c-20.099,4.409-44.168,34.079-46.348,53.805"/>
	<path fill="none" stroke="#FFFFFF" stroke-width="5" stroke-linecap="round" stroke-miterlimit="10" d="M3104.541,2207.59
		c1.921,24.522-14.705,37.129-32.826,51.016"/>
	<path fill="none" stroke="#FFFFFF" stroke-width="5" stroke-linecap="round" stroke-miterlimit="10" d="M2852.553,2219.589
		c-6.341,7.115-13.883,19.559-11.999,26.999"/>
	<path fill="none" stroke="#FFFFFF" stroke-width="5" stroke-linecap="round" stroke-miterlimit="10" d="M3265.032,2186.591
		c0.937,1.302,3.224-23.396,12-25.499"/>
	<path fill="none" stroke="#FFFFFF" stroke-width="5" stroke-linecap="round" stroke-miterlimit="10" d="M3295.031,2162.592
		c-6.597,4.41-12.083,18.048-15.063,26.546c-0.271-1.969,0.728-2.478,1.563-4.047"/>
	<path fill="none" stroke="#FFFFFF" stroke-width="5" stroke-linecap="round" stroke-miterlimit="10" d="M3433.56,2638.316
		c0,0,43.441,2.752,68.384,2.752c27.189,0,50.391-9.068,74.391-21.068"/>
	<path fill="none" stroke="#FFFFFF" stroke-width="5" stroke-linecap="round" stroke-miterlimit="10" d="M3475.685,2675.566
		c28.142,2.182,41.297,12.406,69.607,4.238"/>
	<path fill="none" stroke="#FFFFFF" stroke-width="5" stroke-linecap="round" stroke-miterlimit="10" d="M3311.608,2854.134
		c29.188,0.656,34.881,15.5,42.559,41.158c5.137,17.168,21.083,48.091,14.1,66.759c-7.892,21.097-41.308,33.128-59.735,41.627
		c-12.857,5.93-34.943,16.053-49.125,7.609c-10.451-6.223-24.742-49.653-28.319-60.712c-5.229-16.165-13.794-79.511-0.296-88.763
		C3247.531,2850.338,3296.961,2853.805,3311.608,2854.134z"/>
	<path fill="none" stroke="#FFFFFF" stroke-width="5" stroke-linecap="round" stroke-miterlimit="10" d="M3424.025,2818.059
		c9.384,1.311,22.889,34.199,28.838,44.997c10.832,19.663,14.552,40.29,14.66,62.997"/>
	<path fill="none" stroke="#FFFFFF" stroke-width="5" stroke-linecap="round" stroke-miterlimit="10" d="M3491.522,2864.556
		c1.74,10.015,9.051,17.758,10.499,28.833c0.531,4.062,0.271,9.065,0,13.17"/>
	<path fill="none" stroke="#FFFFFF" stroke-width="5" stroke-linecap="round" stroke-miterlimit="10" d="M3476.72,2802.535
		c17.64,12.915,36.765,22.24,48.925,41.064c9.321,14.432,8.783,34.961,9.714,51.692"/>
</g>
</svg>
