<?xml version="1.0" encoding="utf-8"?>
<!-- Generator: Adobe Illustrator 16.0.4, SVG Export Plug-In . SVG Version: 6.00 Build 0)  -->
<!DOCTYPE svg PUBLIC "-//W3C//DTD SVG 1.1//EN" "http://www.w3.org/Graphics/SVG/1.1/DTD/svg11.dtd">
<svg version="1.1" xmlns="http://www.w3.org/2000/svg" xmlns:xlink="http://www.w3.org/1999/xlink" x="0px" y="0px" width="4896px"
	 height="3809px" viewBox="0 0 4896 3809" enable-background="new 0 0 4896 3809" xml:space="preserve">
<g id="hardware">
	<g>
		<path fill="none" stroke="#FFFFFF" stroke-width="8" stroke-linecap="round" stroke-miterlimit="10" d="M2349,2562
			c0.941-11.461,224.223-103.44,278.5-124.367c18.5-7.133,99.898,54.9,100.676,63.867c1.646,19,4.124,31.668,0.518,47.028
			C2726,2560,2462.5,2693.579,2437.301,2693.564c-19.832-0.012-84.605-59.899-88.301-67.498C2345.32,2618.5,2346.535,2592,2349,2562
			z"/>
		<path fill="none" stroke="#FFFFFF" stroke-width="8" stroke-linecap="round" stroke-miterlimit="10" d="M2349,2566.035
			c7.5,23.465,75.026,76.803,91,79.465c18,3,283.792-123.031,288.176-144"/>
	</g>
	<path fill="none" stroke="#FFFFFF" stroke-width="8" stroke-linecap="round" stroke-miterlimit="10" d="M2440,2645.5
		c0,12.034-1.35,34-2.699,48.064"/>
	<g>
		<polyline fill="none" stroke="#FFFFFF" stroke-width="8" stroke-linecap="round" stroke-miterlimit="10" points="
			2927.086,1655.192 2798.283,125.918 245.859,444.652 709.936,2775.235 2823.314,1841.866 		"/>
		<path fill="none" stroke="#FFFFFF" stroke-width="8" stroke-linecap="round" stroke-miterlimit="10" d="M2085.033,1475.486
			c0.111-24.343-15.171-52.601-23.377-74.8c-9.928-26.857-18.276-55.139-27.575-81.648c-18.731-53.41-40.124-103.201-70.981-151.34
			c-31.418-49.012-74.37-89.893-106.288-139.264c-16.393-25.357-24.461-47.718-30.172-76.549
			c-5.06-25.545-14.309-49.858-17.007-76.5c-5.948-58.743,13.712-121.039,69.322-151.766c49.217-27.193,106.628,9.451,172.03,26.393
			c26.475,6.858,50.453,27.484,62.652,53.974c12.103,26.283,24.92,50.708,39.817,76.412c27.997,48.312,60.354,89.281,81.178,140.338
			c12.154,29.801,33.076,49.229,39.101,79.899c5.792,29.497,2.038,57.33,5.1,87.551c6.986,68.949,6.586,137.683-0.007,207.021
			c-1.826,19.211,0.028,40.333-3.776,59.5c-3.007,15.141-6.849,44.775-9.816,59.878c-6.837,34.784-11.194,49.312-28.981,81.262
			c-14.574,26.178-38.359,58.351-71.312,59.927c-30.837,1.475-51.425-21.64-59.884-47.271
			C2094.515,1576.568,2084.88,1509.115,2085.033,1475.486z"/>
		<path fill="none" stroke="#FFFFFF" stroke-width="8" stroke-linecap="round" stroke-miterlimit="10" d="M1928.632,1591.509
			c-26.112-10.254-54.431-13.581-81.6-19.124c-65.166-13.293-120.506-45.594-178.494-81.177
			c-63.819-39.16-131.592-74.447-205.706-85.384c-34.186-5.045-49.839,6.502-67.149,40.761
			c-17.27,34.178-12.907,85.037-9.472,119.851c8.599,87.122,35.821,146.199,100.67,203.176
			c31.563,27.733,69.611,52.604,110.251,61.174c42.527,8.968,98.552,15.79,139.4,30.6c65.052,23.586,132.587,17.854,202.3,17
			c40.435-0.494,70.857-24.153,102.261-46.661c30.22-21.662,52.444-36.084,63.012-73.667c8.991-31.975,9.546-72.158-16.954-96.044
			c-24.893-22.434-68.32-34.672-99.019-43.728C1972.488,1613.67,1943.817,1597.471,1928.632,1591.509z"/>
		<path fill="none" stroke="#FFFFFF" stroke-width="8" stroke-linecap="round" stroke-miterlimit="10" d="M2085.033,1475.486
			c-23.814-6.26-51.534-25.326-71.4-39.101c-28.337-19.649-59.719-32.379-86.233-54.218c-26.48-21.81-57.729-40.022-83.767-62.994
			c-26.081-23.012-50.384-49.083-75.218-73.188c-28.46-27.627-52.199-63.55-77.315-93.839
			c-19.891-23.987-44.085-44.191-68.427-64.268c-28.355-23.386-49.023-50.651-75.091-76.034
			c-17.481-17.022-26.828-27.582-39.699-48.909c-9.377-15.541-27.1-37.53-34.85-53.645c-26.18-54.438-53.477-99.696-20.939-153.107
			c20.868-34.258,63.586-72.438,99.715-89.049c33.021-15.182,68.675-39.29,104.824-42.5c41.395-3.675,72.719,5.004,108.531,23.801
			c38.959,20.446,72.181,53.712,102.402,82.261"/>
		<path fill="none" stroke="#FFFFFF" stroke-width="8" stroke-linecap="round" stroke-miterlimit="10" d="M1458.66,1405.228
			c-23.576-6.697-101.713-101.591-119.927-129.492c-39.694-60.805-48.928-139.077-36.55-207.4
			c9.521-52.556,16.149-142.8,79.05-164.05c27.055-9.14,47.453,2.997,70.078,20.021c14.657,11.028,41.027,34.87,56.571,38.629"/>
		<path fill="none" stroke="#FFFFFF" stroke-width="8" stroke-linecap="round" stroke-miterlimit="10" d="M1945.762,1395.585
			c22.525,26.351,62.176,59.425,66.631,127.494c6.34,96.906-58.321,76.068-90.561,66.306"/>
		<path fill="none" stroke="#FFFFFF" stroke-width="8" stroke-linecap="round" stroke-miterlimit="10" d="M1552.933,730.885
			c12.502-1.304,29.11,14.583,40.794,20.016c16.429,7.641,31.129,7.652,45.905-4.337c10.63-8.624,14.497-22.021,25.373-29.569
			c7.387-5.126,12.139-5.39,20.487-6.509c4.504-0.604,28.111-0.796,20.44,0"/>
		<path fill="none" stroke="#FFFFFF" stroke-width="8" stroke-linecap="round" stroke-miterlimit="10" d="M1513.833,907.686
			c10.738-3.16,31.242,12.755,40.888,18.699c17.889,11.024,32.994,21.119,52.068,30.262c15.396,7.38,47.69,34.721,63.816,24.221
			c16.729-10.893,9.828-47.816,9.828-64.643c0-27.165,6.717-66.759-11.9-88.439"/>
		<path fill="none" stroke="#FFFFFF" stroke-width="8" stroke-linecap="round" stroke-miterlimit="10" d="M1892.933,807.385
			c41.261-16.18,52.952-55.295,140.98-26.931c12.354,3.981-35.848,27.291-49.005,45.931c-9.174,12.996-17.176,41.687-17.176,41.687"
			/>
		<path fill="none" stroke="#FFFFFF" stroke-width="8" stroke-linecap="round" stroke-miterlimit="10" d="M1947.333,955.286
			c24.532,5.451,60.425,16.417,78.193,35.618c19.846,21.444,27.884,57.142,51.379,74.543c9.874,7.313,25.066,10.406,35.321,18.618
			c11.585,9.274,23.635,21.833,33.674,32.675c14.377,15.53,25.87,33.641,32.665,54.195c6.131,18.543,0.87,38.377,6.767,56.351"/>
		<path fill="none" stroke="#FFFFFF" stroke-width="8" stroke-linecap="round" stroke-miterlimit="10" d="M1422.033,955.286
			c6.523,26.545,22.849,53.58,35.328,79.9c11.519,24.297,19.479,51.877,42.493,68.943c21.378,15.852,61.579,23.706,33.528,101.906"
			/>
		<path fill="none" stroke="#FFFFFF" stroke-width="8" stroke-linecap="round" stroke-miterlimit="10" d="M1364.233,1043.686
			c17.251,34.071,15.3,72.676,15.3,110.034c0,29.105,5.454,57.447,6.679,84.979"/>
		<path fill="none" stroke="#FFFFFF" stroke-width="8" stroke-linecap="round" stroke-miterlimit="10" d="M1466.233,1252.786
			c3.475,8.879,9.365,22.47,10.2,35.7c0.791,12.562-3.387,31.859,3.784,42.582c7.553,11.295,24.647,17.685,33.663,28.823
			c8.506,10.508,14.276,22.956,23.287,32.077"/>
		<path fill="none" stroke="#FFFFFF" stroke-width="8" stroke-linecap="round" stroke-miterlimit="10" d="M1520.632,1455.085
			c39.279,7.222,36.265,53.54,48.922,78.098"/>
		<path fill="none" stroke="#FFFFFF" stroke-width="8" stroke-linecap="round" stroke-miterlimit="10" d="M1639.632,1579.186
			c19.915,9.049,49.721-3.784,72.755,5.479c24.331,9.782,50.746,18.146,71.315,34.854c23.579,19.155,49.269,33.019,77.309,44.667
			c13.743,5.709,35.949,9.49,45.521,13.6"/>
		<path fill="none" stroke="#FFFFFF" stroke-width="8" stroke-linecap="round" stroke-miterlimit="10" d="M1520.632,1597.885
			c1.441,15.014,58.197,35.15,71.56,44.267c20.479,13.972,25.241,36.776,47.819,46.212c43.435,18.15,124.4,65.36,118.345,77.517
			c-3.44,6.904-54.993-8.469-82.848-9.895c-12.404-0.636-68.176,1.7-68.176,1.7"/>
		<path fill="none" stroke="#FFFFFF" stroke-width="8" stroke-linecap="round" stroke-miterlimit="10" d="M1773.933,695.186
			c15.701-3.54,21.57,75.534,18.739,90.061c-3.812,19.551-20.531,21.054-25.958,37.823c-7.115,21.995,5.258,44.176,7.219,65.396"/>
		<path fill="none" stroke="#FFFFFF" stroke-width="8" stroke-linecap="round" stroke-miterlimit="10" d="M2079.933,883.885
			c10.037,7.476,21.17,37.862,17.033,52.7c-6.135,22.005-27.008,13.311-42.872,10.2c-34.308-6.727-74.486-1.142-106.762,8.5"/>
		<path fill="none" stroke="#FFFFFF" stroke-width="8" stroke-linecap="round" stroke-miterlimit="10" d="M1429,1566.599
			c45.657,30.149,10.025,109.337,38.248,150.442"/>
	</g>
</g>
<g id="hands">
	<path fill="none" stroke="#FFFFFF" stroke-width="8" stroke-linecap="round" stroke-miterlimit="10" d="M3125.765,1923.593
		c-34.677,18.322-81.173,9-117.779,5.423c-24.611-2.405-52.443-11.503-78.317-9.683c-14.651,1.031-36.334,2.717-60.809,0.574
		c-51.225-4.485-72.541-3.875-89.525,6.093c-17.542,10.295-24.426,21.702-28.148,40.334c-4.295,21.499,3.615,44.836,19.001,60.499
		c8.794,8.953,40.617,18.094,45.814,19.482c40.333,10.769,72.139,18.219,96,17.352c18.054-0.656,80.164-2.334,98.333-3
		c17.611-0.646,35.375-0.25,52.186,2.203c14.025,2.047,69.62,17.183,92.146,23.442c8.688,2.414,53.002,12.021,89.669,13.355
		c24.551,0.893,92.71-10.956,103.667-13.318c48-10.349,78.666-25.016,95-38.016c14.758-11.746,55.133-36.382,69.703-41.482
		c15.844-5.546,29.158-7.586,46.111-9.185c10.288-0.97,20.753-0.851,31.04-2.146c8.485-1.068,20.312-0.815,27.479-3.854"/>
	<path fill="none" stroke="#FFFFFF" stroke-width="8" stroke-linecap="round" stroke-miterlimit="10" d="M3093.947,1736.186
		c-19.057,1.439-36.829-5.904-55.946-5.852c-17.393,0.048-34.09,3.446-51.333,3.965c-34.334,1.035-65.508-1.799-97.945-6.102
		c-14.422-1.913-29.284-0.984-43.446-2.689c-14.603-1.758-29.339-6.375-44.609-6.375c-21.456,0-40.666,0-62.667,2.555
		c-24.306,2.822-47.801,3.368-74.666,0.646c-22.522-2.282-42.3-7.333-64.333-15.333c-15.486-5.623-47.041-12.445-54.169,4.849
		c-8.831,21.424,5.31,44.08,15.502,55.151c22.4,24.333,72.886,35.738,110.331,44.038c21.4,4.744,49.654,5.755,69.669,8.962
		c21.259,3.406,77.666,21.102,90.333,23.668c10.806,2.189,65.34,14.268,80.08,17.332c8.417,1.75,58.958,16.871,69.91,22.815
		c23.677,12.852,49.067,27.404,58.364,48.659"/>
	<path fill="none" stroke="#FFFFFF" stroke-width="8" stroke-linecap="round" stroke-miterlimit="10" d="M3188.668,1707
		c-24.028,0-46.349-5.88-69.415-11.333c-22.817-5.394-48.35-8.731-70.569-15.981c-23.08-7.531-43.742-15.136-67.349-18.538
		c-20.439-2.946-41.681-2.45-61.76-7.639c-17.242-4.456-33.848-5.914-51.573-8.509c-10.357-1.516-20.435-5.902-30.664-8.817
		c-10.403-2.965-22.006-5.053-32.003-9.167c-16.521-6.798-41.581-19.14-55.446-19.643c-7.222-0.262-11.619,2.551-16.222,10.626
		c-10.649,1.839-12.898,24.023-9.354,32.971c3.215,8.115,13.396,15.177,13.396,15.177"/>
	<path fill="none" stroke="#FFFFFF" stroke-width="8" stroke-linecap="round" stroke-miterlimit="10" d="M3164.001,1715
		c-23.245,0-45.789-1.119-67.968-5.836c-14.589-3.103-57.365-9.603-72.699-12.164c-20.946-3.499-63.651-12.333-68.147-13.854
		c-9.508-3.215-19.103-6.53-28.518-9.333c-14.865-4.425-29.849-9.414-45.307-10.144c-8.757-0.414-17.439-1.111-26.062-1.968
		c-17.741-1.762-37.389-1.375-55.132,1.153c-12.558,1.789-25.716,1.403-38.267,2.812c-12.597,1.415-34.235,0.027-47.568-0.334
		c-11.624-0.315-57.091-2.206-77.333-8.854c-8.599-2.824-19-7.813-36.333-5.479c-11.646,1.568-19.279,15.575-20.667,26.065
		c-1.667,12.601,4.349,25.855,4.349,25.855"/>
	<path fill="none" stroke="#FFFFFF" stroke-width="8" stroke-linecap="round" stroke-miterlimit="10" d="M2999.527,1663.668
		c-10.527-13.271,2.474-24.334,15.899-22.667c9.274,1.152,23.931,5.609,32.574,9.97c18.085,9.125,34.392,10.243,53.499,15.363
		c20.389,5.464,44.935,14.151,65.165,19.187c20.843,5.188,40.059,14.567,60.817,20.645c19.036,5.573,40.775,7.983,63.853,10.168
		c24.824,2.351,53.823,7.351,77.999,10.668c22.487,3.085,45.265,7.035,68.016,9.315c21.333,2.139,42.164,8.093,63.317,11.201
		c23.646,3.474,48.922,8.325,72.001,12.149c25.658,4.252,48.092,11.61,73.348,16.515c14.25,2.768,28.407,6.756,41.271,13.62
		c16.087,8.583,32.185,26.193,44.534,39.196c6.612,6.961,44.355,26.364,54.847,34.001c11.2,8.153,91.364,67.416,105.456,76.001
		c14.273,8.696,176.056,113.617,181.928,118.083"/>
	<path fill="none" stroke="#FFFFFF" stroke-width="8" stroke-linecap="round" stroke-miterlimit="10" d="M3721.334,2255.668
		c0,0-15.768-19.03-20.148-25.357c-5.738-8.289-11.832-16.794-17.854-24.823c-11.847-15.796-23.464-32.202-36.665-46.821
		c-12.629-13.985-25.197-27.172-39.37-39.812c-17.35-15.473-35.044-30.586-52.479-45.839c-10.573-9.248-19.636-16.407-31.151-25.016
		c-15.638-11.691-28.3-16.633-46.611-22.375"/>
</g>
<g id="details_1_">
	<path fill="none" stroke="#FFFFFF" stroke-width="5" stroke-linecap="round" stroke-miterlimit="10" d="M2733.667,1618
		c-0.793,15.231,27.659,18.175,37.667,17.652c13.043-0.682,25.058-2.391,36-7.848"/>
	<path fill="none" stroke="#FFFFFF" stroke-width="5" stroke-linecap="round" stroke-miterlimit="10" d="M2999.527,1647.001
		c5.973,6.445,16.468,9.68,27.424,11.499c11.049,1.834,21.855-0.006,27.425-4.6"/>
	<path fill="none" stroke="#FFFFFF" stroke-width="5" stroke-linecap="round" stroke-miterlimit="10" d="M2582.734,1667.001
		c0,0,13.6,9.333,34.6,10.065c12.118,0.422,41.322-7.027,42-16.065"/>
	<path fill="none" stroke="#FFFFFF" stroke-width="5" stroke-linecap="round" stroke-miterlimit="10" d="M2546.668,1709.667
		c3.878,18.201,20.301,19.742,36.066,20.666c13.333,0.782,34.606-2.714,42.6-14.666"/>
	<path fill="none" stroke="#FFFFFF" stroke-width="5" stroke-linecap="round" stroke-miterlimit="10" d="M2682.668,1676.334
		c0.617-2.217,4.867-11.584,7.531-12.181"/>
	<path fill="none" stroke="#FFFFFF" stroke-width="5" stroke-linecap="round" stroke-miterlimit="10" d="M2694.001,1683.667
		c4.21-3.429,10.608-15.883,15.66-18.579"/>
	<path fill="none" stroke="#FFFFFF" stroke-width="5" stroke-linecap="round" stroke-miterlimit="10" d="M2812.668,1689.667
		c0.619-18.367,15.495-24,30.99-28.799"/>
	<path fill="none" stroke="#FFFFFF" stroke-width="5" stroke-linecap="round" stroke-miterlimit="10" d="M2825.334,1691.001
		c1.87-12.075,28-17.991,32.667-29.037"/>
	<path fill="none" stroke="#FFFFFF" stroke-width="5" stroke-linecap="round" stroke-miterlimit="10" d="M2941.334,1667.001
		c7.955-4.362,16.334-6.638,25.334-6.667"/>
	<path fill="none" stroke="#FFFFFF" stroke-width="5" stroke-linecap="round" stroke-miterlimit="10" d="M2967.334,1673.001
		c7.266,0.28,12.948-6.195,17.674-11.286"/>
	<path fill="none" stroke="#FFFFFF" stroke-width="5" stroke-linecap="round" stroke-miterlimit="10" d="M2772.668,1744.334
		c2.921-10.505,4.056-22.206,16.664-25.187"/>
	<path fill="none" stroke="#FFFFFF" stroke-width="5" stroke-linecap="round" stroke-miterlimit="10" d="M2794.668,1733.001
		c4.994,2.165,14.717-9.199,18.612-12.954"/>
	<path fill="none" stroke="#FFFFFF" stroke-width="5" stroke-linecap="round" stroke-miterlimit="10" d="M2652.668,1741.667
		c7.333-3.667,6.229-10.595,11.999-13.07"/>
	<path fill="none" stroke="#FFFFFF" stroke-width="5" stroke-linecap="round" stroke-miterlimit="10" d="M2827.334,1647.001
		c6.233-1.536,15.603-5.159,21.99-6.973"/>
	<path fill="none" stroke="#FFFFFF" stroke-width="5" stroke-linecap="round" stroke-miterlimit="10" d="M3112.139,1669.345
		c-1.45,1.747-5.472,7.722-5.472,7.722"/>
	<path fill="none" stroke="#FFFFFF" stroke-width="5" stroke-linecap="round" stroke-miterlimit="10" d="M3109.334,1685.001
		c8.639-0.935,12.693-4.87,16.312-11.553"/>
	<path fill="none" stroke="#FFFFFF" stroke-width="5" stroke-linecap="round" stroke-miterlimit="10" d="M2960.001,1932.334
		c12.189,7.053,16.487,19.946,19.479,32.669c2.145,9.119,3.152,19.914,3.703,29.378c0.624,10.716-1.85,15.069-9.249,19.836"/>
	<path fill="none" stroke="#FFFFFF" stroke-width="5" stroke-linecap="round" stroke-miterlimit="10" d="M2932.001,1949.001
		c-10.838,14.08,3.137,47,6.601,61.814"/>
	<path fill="none" stroke="#FFFFFF" stroke-width="5" stroke-linecap="round" stroke-miterlimit="10" d="M2912.001,1965.667
		c-2.494,3.969-3.804,22.859-0.667,24"/>
	<path fill="none" stroke="#FFFFFF" stroke-width="5" stroke-linecap="round" stroke-miterlimit="10" d="M2791.978,1920.584
		c10.298,1.931,33.692,7.907,45.023,11.89c10.704,3.763,24.021,8.684,27.241,21.754c2.751,11.166,1.062,22.256,1.61,33.588
		c0.625,12.899-2.674,22.566-15.519,29.518c-27.151,14.696-59.316,8.399-87.127,1.158"/>
	<path fill="none" stroke="#FFFFFF" stroke-width="5" stroke-linecap="round" stroke-miterlimit="10" d="M3021.16,1909.766
		c8.713-2.427,32.674-0.589,44.403-0.101c6.544,0.272,21.857,0.352,25.104-4.664"/>
</g>
</svg>
