<?xml version="1.0" encoding="UTF-8" standalone="no"?>
<!-- Generator: Adobe Illustrator 16.0.4, SVG Export Plug-In . SVG Version: 6.00 Build 0)  -->

<svg
   xmlns:dc="http://purl.org/dc/elements/1.1/"
   xmlns:cc="http://creativecommons.org/ns#"
   xmlns:rdf="http://www.w3.org/1999/02/22-rdf-syntax-ns#"
   xmlns:svg="http://www.w3.org/2000/svg"
   xmlns="http://www.w3.org/2000/svg"
   xmlns:sodipodi="http://sodipodi.sourceforge.net/DTD/sodipodi-0.dtd"
   xmlns:inkscape="http://www.inkscape.org/namespaces/inkscape"
   version="1.1"
   x="0px"
   y="0px"
   width="4896px"
   height="3809px"
   viewBox="0 0 4896 3809"
   enable-background="new 0 0 4896 3809"
   xml:space="preserve"
   id="svg2"
   inkscape:version="0.91+devel r"
   sodipodi:docname="pinch-01.svg"><metadata
     id="metadata105"><rdf:RDF><cc:Work
         rdf:about=""><dc:format>image/svg+xml</dc:format><dc:type
           rdf:resource="http://purl.org/dc/dcmitype/StillImage" /></cc:Work></rdf:RDF></metadata><defs
     id="defs103" /><sodipodi:namedview
     pagecolor="#ffffff"
     bordercolor="#666666"
     borderopacity="1"
     objecttolerance="10"
     gridtolerance="10"
     guidetolerance="10"
     inkscape:pageopacity="0"
     inkscape:pageshadow="2"
     inkscape:window-width="3200"
     inkscape:window-height="1752"
     id="namedview101"
     showgrid="false"
     inkscape:zoom="0.061958519"
     inkscape:cx="2448"
     inkscape:cy="1904.5"
     inkscape:window-x="0"
     inkscape:window-y="48"
     inkscape:window-maximized="1"
     inkscape:current-layer="svg2" /><g
     id="hardware"
     style="stroke:#ffffff;stroke-opacity:1"><g
       id="g5"
       style="stroke:#ffffff;stroke-opacity:1"><path
         fill="none"
         stroke="#000000"
         stroke-width="8"
         stroke-linecap="round"
         stroke-miterlimit="10"
         d="M1765.583,1423.803    c-41.383,42.613-114.529,133.956-51.556,184.149c33.514,26.713,75.499,20.136,105.802-10.199    c27.236-27.266,56.375-50.702,91.731-68.771c70.545-36.049,149.198-50.57,223.754-75.14    c71.216-23.469,88.586-59.154,104.543-96.337c14.602-34.021,30.936-120.28,23.081-155.542    c-8.408-37.757-17.65-79.797-32.646-114.812c-14.197-33.161-51.632-129.976-126.219-165.033    c-145.169-68.234-315.313-66.439-445.659,19.119c-59.815,39.263-105.335,87.15-132.447,151.155    c-28.949,68.342-56.074,135.745-56.17,214.116c-0.073,58.944,23.714,164.893,96.895,165.741    c35.744,0.415,66.083-16.748,99.377-25.566C1701.005,1437.431,1765.583,1423.803,1765.583,1423.803z"
         id="path7"
         style="stroke:#ffffff;stroke-opacity:1" /><path
         fill="none"
         stroke="#000000"
         stroke-width="8"
         stroke-linecap="round"
         stroke-miterlimit="10"
         d="M1765.583,1423.803    c29.555-12.573,45.685-66.626,52.979-92.362c8.752-30.878,20.584-56.805,46.343-78.987    c49.539-42.663,110.108-95.783,157.745-135.033"
         id="path9"
         style="stroke:#ffffff;stroke-opacity:1" /><path
         fill="none"
         stroke="#000000"
         stroke-width="8"
         stroke-linecap="round"
         stroke-miterlimit="10"
         d="M1696.736,1107.619    c12.484,7.362,17.121,30.084,27.282,43.983c14.593,19.959,20.965,23.086,23.716,50.362c2.271,22.521,4.139,38.612-2.115,56.664    c-8.728,25.199-7.13,32.062,2.296,59.858"
         id="path11"
         style="stroke:#ffffff;stroke-opacity:1" /><path
         fill="none"
         stroke="#000000"
         stroke-width="8"
         stroke-linecap="round"
         stroke-miterlimit="10"
         d="M1964.645,879.391    c-6.899,13.774-25.379,16.359-32.812,31.829c-5.137,10.692-4.521,29.945-7.59,41.423c-5.711,21.355-37.434,65.491-15.868,86.129"
         id="path13"
         style="stroke:#ffffff;stroke-opacity:1" /><path
         fill="none"
         stroke="#000000"
         stroke-width="8"
         stroke-linecap="round"
         stroke-miterlimit="10"
         d="M2040.969,901.08    c-6.187,21.559-18.302,26.853-17.979,51.129c0.25,18.986,3.758,31.906-4.271,50.865c-6.181,14.599-16.284,26.082-21.024,40.872    c-2.771,8.644-4.047,15.896-5.173,25.425c-0.463,3.916,0,28.042,0,17.85"
         id="path15"
         style="stroke:#ffffff;stroke-opacity:1" /><path
         fill="none"
         stroke="#000000"
         stroke-width="8"
         stroke-linecap="round"
         stroke-miterlimit="10"
         d="M1525.968,1092.393    c16.575-6.462,16.506-16.935,29.899-28.131c20.503-17.139,39.867-21.423,61.896-30.516c22.179-9.157,25.62-17.769,37.477-36.339    c14.746-23.097,29.613-21.74,49.146-35.131"
         id="path17"
         style="stroke:#ffffff;stroke-opacity:1" /><path
         fill="none"
         stroke="#000000"
         stroke-width="8"
         stroke-linecap="round"
         stroke-miterlimit="10"
         d="M1858.685,1563    c-6.273-13.526,11.658-31.164,19.66-42.16c11.415-15.689,13.794-24.19,14.732-43.488c1.907-39.268,10.348-51.987,35.698-81.596"
         id="path19"
         style="stroke:#ffffff;stroke-opacity:1" /><path
         fill="none"
         stroke="#000000"
         stroke-width="8"
         stroke-linecap="round"
         stroke-miterlimit="10"
         d="M2145.514,1145.868    c-25.667,52.029-69.343,70.322-112.126,104.48c-25.236,20.148-51.751,12.314-77.254,27.481    c-12.909,7.678-49.854,50.285-47.758,54.179"
         id="path21"
         style="stroke:#ffffff;stroke-opacity:1" /><path
         fill="none"
         stroke="#000000"
         stroke-width="8"
         stroke-linecap="round"
         stroke-miterlimit="10"
         d="M1666.138,1217.263    c16.066-35.325,52.003-23.215,78.973-36.338c13.495-6.565,18.685-22.336,30.549-28.099c14.775-7.177,37.693-0.259,53.104,0.689    c63.851,3.931,120.459-8.25,176.508-30.598c23.607-4.506,41.704-20.421,63.879-30.73c22.751-10.576,43.114-15.691,55.966-40.666"
         id="path23"
         style="stroke:#ffffff;stroke-opacity:1" /><path
         fill="none"
         stroke="#000000"
         stroke-width="8"
         stroke-linecap="round"
         stroke-miterlimit="10"
         d="M1599.841,1115.269    c4.735,29.604-12.023,77.899,7.65,109.645"
         id="path25"
         style="stroke:#ffffff;stroke-opacity:1" /><path
         fill="none"
         stroke="#000000"
         stroke-width="8"
         stroke-linecap="round"
         stroke-miterlimit="10"
         d="M1982.322,1377.906    c22.572-28.306,23.047-15.106,53.343-9.409"
         id="path27"
         style="stroke:#ffffff;stroke-opacity:1" /><path
         fill="none"
         stroke="#000000"
         stroke-width="8"
         stroke-linecap="round"
         stroke-miterlimit="10"
         d="M2069.404,1313.774    c16.512,3.441,26.877,8.305,39.713,13.275c13.777,5.334,28.014,13.279,41.497,2.409"
         id="path29"
         style="stroke:#ffffff;stroke-opacity:1" /><path
         fill="none"
         stroke="#000000"
         stroke-width="8"
         stroke-linecap="round"
         stroke-miterlimit="10"
         d="M1814.031,977.576    c1.165,10.767-4.584,23.572-2.542,33.148c2.668,12.506,11.993,12.937,16.059,22.191c11.014,25.064-2.236,36.852-8.354,59.209"
         id="path31"
         style="stroke:#ffffff;stroke-opacity:1" /><path
         fill="none"
         stroke="#000000"
         stroke-width="8"
         stroke-linecap="round"
         stroke-miterlimit="10"
         d="M1559.043,1360.056    c-0.17,7.27,12.096,10.521,22.939,7.642c13.083-3.473,17.72-15.127,23.648-28.04c13.465-29.327,28.006-32.121,52.645-47.758"
         id="path33"
         style="stroke:#ffffff;stroke-opacity:1" /><polyline
         fill="none"
         stroke="#000000"
         stroke-width="8"
         stroke-linecap="round"
         stroke-miterlimit="10"
         points="    2927.916,1665.053 2798.283,125.918 245.859,444.652 709.936,2775.235 2433.514,2014.022   "
         id="polyline35"
         style="stroke:#ffffff;stroke-opacity:1" /><path
         fill="none"
         stroke="#000000"
         stroke-width="8"
         stroke-linecap="round"
         stroke-miterlimit="10"
         d="M2616.2,1933.339"
         id="path37"
         style="stroke:#ffffff;stroke-opacity:1" /><path
         fill="none"
         stroke="#000000"
         stroke-width="8"
         stroke-linecap="round"
         stroke-miterlimit="10"
         d="M2543.039,1965.65"
         id="path39"
         style="stroke:#ffffff;stroke-opacity:1" /><line
         fill="none"
         stroke="#000000"
         stroke-width="8"
         stroke-linecap="round"
         stroke-miterlimit="10"
         x1="2433.514"
         y1="2014.022"
         x2="2725.297"
         y2="1885.156"
         id="line41"
         style="stroke:#ffffff;stroke-opacity:1" /></g><g
       id="g43"
       style="stroke:#ffffff;stroke-opacity:1"><path
         fill="none"
         stroke="#000000"
         stroke-width="8"
         stroke-linecap="round"
         stroke-miterlimit="10"
         d="M2349,2562    c0.941-11.461,224.223-103.44,278.5-124.367c18.5-7.133,99.898,54.9,100.676,63.867c1.646,19,4.124,31.668,0.518,47.028    C2726,2560,2462.5,2693.579,2437.301,2693.564c-19.832-0.012-84.605-59.899-88.301-67.498C2345.32,2618.5,2346.535,2592,2349,2562    z"
         id="path45"
         style="stroke:#ffffff;stroke-opacity:1" /><path
         fill="none"
         stroke="#000000"
         stroke-width="8"
         stroke-linecap="round"
         stroke-miterlimit="10"
         d="M2349,2566.035    c7.5,23.465,75.026,76.803,91,79.465c18,3,283.792-123.031,288.176-144"
         id="path47"
         style="stroke:#ffffff;stroke-opacity:1" /></g><path
       fill="none"
       stroke="#000000"
       stroke-width="4"
       stroke-linecap="round"
       stroke-miterlimit="10"
       d="M2440,2645.5   c0,12.034-1.35,34-2.699,48.064"
       id="path49"
       style="stroke:#ffffff;stroke-opacity:1" /></g><g
     id="hands"
     style="stroke:#ffffff;stroke-opacity:1"><path
       fill="none"
       stroke="#000000"
       stroke-width="8"
       stroke-linecap="round"
       stroke-miterlimit="10"
       d="M4539.879,2505.503   c0,0-272.014-196.982-281.524-206.79c-26.198-27.018-62.109-42.368-89.243-68.214c-36.754-35.012-75.072-68.59-106.111-109.499   c-26.694-35.184-59.089-73.046-103.462-84.776c-23.06-6.096-47.355-7.525-71.538-9.224c-26.207-1.842-56.963-21.97-80.5-30   c-43.707-14.911-79.961-25.512-123.654-43.267c-93.407-37.957-187.695-71.604-276.334-119.626   c-15.841-8.582-27.309-11.003-42.698-26.331c-39.947-39.789-49.499-56.193-73.313-90.023c-13.312-18.909-25.927-40.248-44-54.753   c-16.153-12.963-15.819-20.525-32.27-33.251c-6.6-5.105-21.304-14.046-35.23-27.249c-14.603-13.843-34.635-48.757-55.5-40.203   c-14.997,6.148-26.016,29.098-27.5,45.203c-1.935,20.979,10.708,39.92,25.5,52.5c14.57,12.39,23.189,29.242,34.245,45.191   c9.536,13.756,24.29,70.418,24.29,70.418"
       id="path52"
       style="stroke:#ffffff;stroke-opacity:1" /><path
       fill="none"
       stroke="#000000"
       stroke-width="8"
       stroke-linecap="round"
       stroke-miterlimit="10"
       d="M3308.528,1817.608   c-43.273-9.213-86.767-23.257-127.493-41.998c-18.93-8.711-40.286-11.659-58.702-21.277c-20.642-10.78-41.067-20.236-62.667-33.333   c-22-13.34-39.666-24-64-33c-44.213-16.352-47.516-16.089-90.648-30.403c-16.283-5.404-43.394-16.142-68.685-17.597   c-6.662-0.383-49.333-28.607-70.587-39.333c-20.66-10.426-48.888-36.306-74.746-33.333c-23.893,2.746-35.828,36.24-32.667,56.832   c2.227,14.502,27.125,41.555,43.001,53.502c12.247,9.216,101.416,55.552,101.416,55.552"
       id="path54"
       style="stroke:#ffffff;stroke-opacity:1" /><path
       fill="none"
       stroke="#000000"
       stroke-width="8"
       stroke-linecap="round"
       stroke-miterlimit="10"
       d="M3116.538,1774.11   c-21.949-5.462-43.663-11.067-65.92-13.577c-11.738-1.324-24.103-3.424-36.07-2.917c-11.557,0.49-29.618,5.497-41.551,5.05   c-56.379-2.111-100.757-20.678-155.333-27.667c-58.46-7.486-76.869-9.52-135.333,0c-23.766,3.87-54.514,7.82-80,8.482   c-24.333,0.632-69.937,4.789-92,1.286c-21-3.333-59-12.101-72.333-3.768c-19.433,12.145-23.076,45.324-12.668,62.668   c21.001,34.998,51.809,41.615,98.334,45.998c11.602,1.093,32.498,2.004,36.4,3.333c18.599,6.333,51.064,15.559,81.6,17   c18.217,0.86,51.172,4.794,57.999,6.521c3.071,0.776,13.243,4.522,25.634,8.637c17.436,5.79,39.263,12.31,51.866,12.31"
       id="path56"
       style="stroke:#ffffff;stroke-opacity:1" /><path
       fill="none"
       stroke="#000000"
       stroke-width="8"
       stroke-linecap="round"
       stroke-miterlimit="10"
       d="M2676.308,2297.995   c-27.748-33.996-36.978-67.329-52.311-108.996c-9.045-24.58-7.079-43.232-8.399-69.94c-0.711-14.402-2.961-22.403-4.934-36.726   c-1.841-13.371-3.964-31.139-4.667-44.333c-1.157-21.742,0.788-41.151,6-61.333c10.177-39.407,78.478-61.175,111.667-69   c25.185-5.938,68.934-11.281,92.999-20c23.194-8.404,27.086-16.241,50.888-22.428c23.602-6.134,41.753-18.649,67.492-17.625   c11.51,0.458,24.249,2.861,36.003,4.161c11.464,1.268,26.335-0.438,37.498,3.333"
       id="path58"
       style="stroke:#ffffff;stroke-opacity:1" /><path
       fill="none"
       stroke="#000000"
       stroke-width="8"
       stroke-linecap="round"
       stroke-miterlimit="10"
       d="M4119.963,2935.209   c-14.917-19.012-232.273-265.014-246.964-282.544c-17.756-21.188-37-37.666-56-58.999c-9.602-10.78-63.724-56.367-73-66   c-8.667-9-67.202-51.744-78-57.667c-50.262-27.571-112-39.667-162.068-27.334c-24.644,6.07-58.492,27.367-83.417,37.333   c-30.848,12.334-70.848,13.668-96.985,18.541c-23.635,4.406-45.584,6.435-70.196,6.46c-45.088,0.047-87.333-7.333-135.293,1.074   c-23.728,4.159-48.717,1.268-71.996-3.328c-24.044-4.746-55.414-21.289-65.92-26.67c-21.218-10.868-72.463-33.452-94.872-40.42   c-21.435-6.665-55.2-6.323-80.327-33.371c-17.873-19.239-27.593-28.951-45.593-28.951c-22.943,0-44.648-5.077-54.118-11.047   c-20.548-12.953-29.653-42.932-29.215-60.287c0.644-25.483,24.281-50,48.691-61.786c22.351-10.792,90.362-9.466,109.974-7.547   c21.231,2.077,27.913,10,34.334,10.333c50.933,2.642,74.225,18.379,115,23c-0.17-11.096,2.918-20.32,1.333-31   c-1.358-9.146-9.31-19.555-13.945-27.778c-12.108-21.481-17.865-43.598-39.631-58.086c-18.091-12.042-42.723-36.221-48.757-38.136   c-7.86-2.494-31.667-27-35-27c-11.785,0-21.238-3.755-31.667-8c-2.416-0.983-1.768,1.713-18.667,6.333   c-12.214,3.339-36.666,7-36.666,7c0,19.667,0.624,41.259-2.442,47.76c-2,4.24,16.312,39.346,25.107,94.487"
       id="path60"
       style="stroke:#ffffff;stroke-opacity:1" /><path
       fill="none"
       stroke="#000000"
       stroke-width="6"
       stroke-linecap="round"
       stroke-miterlimit="10"
       d="M2639.561,2044.098   c16.166,24.606,34.104,32.661,52.497,38.998c22.232,7.66,44.934,13.131,68.939,6.237"
       id="path62"
       style="stroke:#ffffff;stroke-opacity:1" /><path
       fill="none"
       stroke="#000000"
       stroke-width="6"
       stroke-linecap="round"
       stroke-miterlimit="10"
       d="M2648.56,2168.591   c19.764,0.069,42.284,5.564,61.169-1.829c40.269-15.764,48.826-29.67,48.826-29.67"
       id="path64"
       style="stroke:#ffffff;stroke-opacity:1" /></g><g
     id="details_1_"
     style="stroke:#ffffff;stroke-opacity:1"><path
       fill="none"
       stroke="#000000"
       stroke-width="5"
       stroke-linecap="round"
       stroke-miterlimit="10"
       d="M3111.211,1572.962   c0,0,25.122,23.038,45.828,25.986c5.069,0.722,21.959,2.554,19.002-0.529"
       id="path67"
       style="stroke:#ffffff;stroke-opacity:1" /><path
       fill="none"
       stroke="#000000"
       stroke-width="5"
       stroke-linecap="round"
       stroke-miterlimit="10"
       d="M2660.56,1598.62   c15.62,13.671,34.859,16.52,55.773,17.713c13.266,0.757,36.988-4.017,45.593-17.713"
       id="path69"
       style="stroke:#ffffff;stroke-opacity:1" /><path
       fill="none"
       stroke="#000000"
       stroke-width="5"
       stroke-linecap="round"
       stroke-miterlimit="10"
       d="M2422.704,1761.848   c4.766,19.726,40.934,20.177,59.627,8.09c7.75-5.012,28-25.171,28-25.171"
       id="path71"
       style="stroke:#ffffff;stroke-opacity:1" /><path
       fill="none"
       stroke="#000000"
       stroke-width="5"
       stroke-linecap="round"
       stroke-miterlimit="10"
       d="M2533.065,1795.11   c-6.549-13.714,18.083-42.292,29.468-50.343"
       id="path73"
       style="stroke:#ffffff;stroke-opacity:1" /><path
       fill="none"
       stroke="#000000"
       stroke-width="5"
       stroke-linecap="round"
       stroke-miterlimit="10"
       d="M2560.064,1783.111   c4.27-16.797,13.141-23.297,22.499-35.999"
       id="path75"
       style="stroke:#ffffff;stroke-opacity:1" /><path
       fill="none"
       stroke="#000000"
       stroke-width="5"
       stroke-linecap="round"
       stroke-miterlimit="10"
       d="M2765.746,1647.891   c1.585-11.211,24.574-20.539,34.307-22.272"
       id="path77"
       style="stroke:#ffffff;stroke-opacity:1" /><path
       fill="none"
       stroke="#000000"
       stroke-width="5"
       stroke-linecap="round"
       stroke-miterlimit="10"
       d="M2768.554,1670.616   c13.034-13.048,30.742-29.585,46.498-28.499"
       id="path79"
       style="stroke:#ffffff;stroke-opacity:1" /><path
       fill="none"
       stroke="#000000"
       stroke-width="5"
       stroke-linecap="round"
       stroke-miterlimit="10"
       d="M2959.044,1693.115   c-9.362,5.102-40.498,2.551-53.997,16.499"
       id="path81"
       style="stroke:#ffffff;stroke-opacity:1" /><path
       fill="none"
       stroke="#000000"
       stroke-width="5"
       stroke-linecap="round"
       stroke-miterlimit="10"
       d="M2918.546,1679.616   c-15.439,7.515-30.129,12.24-41.997,25.499"
       id="path83"
       style="stroke:#ffffff;stroke-opacity:1" /><path
       fill="none"
       stroke="#000000"
       stroke-width="5"
       stroke-linecap="round"
       stroke-miterlimit="10"
       d="M3172.243,1624.641   c8.757,2.608,17.514,5.659,26.789-0.522"
       id="path85"
       style="stroke:#ffffff;stroke-opacity:1" /><path
       fill="none"
       stroke="#000000"
       stroke-width="5"
       stroke-linecap="round"
       stroke-miterlimit="10"
       d="M3278.528,1708.114   c-2.587-3.143-15.37,11.083-23.528,9.639"
       id="path87"
       style="stroke:#ffffff;stroke-opacity:1" /><path
       fill="none"
       stroke="#000000"
       stroke-width="5"
       stroke-linecap="round"
       stroke-miterlimit="10"
       d="M2688.331,1776.999   c6.939-0.446,9.016-25.719,18.726-31.387"
       id="path89"
       style="stroke:#ffffff;stroke-opacity:1" /><path
       fill="none"
       stroke="#000000"
       stroke-width="5"
       stroke-linecap="round"
       stroke-miterlimit="10"
       d="M2690.558,1792.11   c8.47-0.206,16.037-18.149,23.401-25.411c5.935-5.854,13.024-10.871,18.597-16.587"
       id="path91"
       style="stroke:#ffffff;stroke-opacity:1" /><path
       fill="none"
       stroke="#000000"
       stroke-width="5"
       stroke-linecap="round"
       stroke-miterlimit="10"
       d="M2708.557,1802.61   c8.314-17.975,49.957-38.354,44.998-59.997"
       id="path93"
       style="stroke:#ffffff;stroke-opacity:1" /><path
       fill="none"
       stroke="#000000"
       stroke-width="5"
       stroke-linecap="round"
       stroke-miterlimit="10"
       d="M2810.552,2282.586   c3.571,9.514,2.415,21.721,5.957,31.541c3.479,9.643,8.779,19.764,11.708,29.967c7.48,26.062-0.193,14.749,13.784,38.907"
       id="path95"
       style="stroke:#ffffff;stroke-opacity:1" /><path
       fill="none"
       stroke="#000000"
       stroke-width="5"
       stroke-linecap="round"
       stroke-miterlimit="10"
       d="M2788.053,2329.083   c9.411,16.467,0,33.25,26.999,47.998"
       id="path97"
       style="stroke:#ffffff;stroke-opacity:1" /><path
       fill="none"
       stroke="#000000"
       stroke-width="5"
       stroke-linecap="round"
       stroke-miterlimit="10"
       d="M2681.736,2280.532   c24.865,2.296,59.929,4.134,65.818,27.552c3.831,15.232,0.921,23.878,10.11,36.915c6.131,8.7,14.736,23.425,16.889,30.979"
       id="path99"
       style="stroke:#ffffff;stroke-opacity:1" /></g></svg>