<?xml version="1.0" encoding="utf-8"?>
<!-- Generator: Adobe Illustrator 16.0.4, SVG Export Plug-In . SVG Version: 6.00 Build 0)  -->
<!DOCTYPE svg PUBLIC "-//W3C//DTD SVG 1.1//EN" "http://www.w3.org/Graphics/SVG/1.1/DTD/svg11.dtd">
<svg version="1.1" xmlns="http://www.w3.org/2000/svg" xmlns:xlink="http://www.w3.org/1999/xlink" x="0px" y="0px" width="4896px"
	 height="3809px" viewBox="0 0 4896 3809" enable-background="new 0 0 4896 3809" xml:space="preserve">
<g id="hardware">
	<g>
		<path fill="none" stroke="#FFFFFF" stroke-width="8" stroke-linecap="round" stroke-miterlimit="10" d="M2349,2562
			c0.941-11.461,224.223-103.44,278.5-124.367c18.5-7.133,99.898,54.9,100.676,63.867c1.646,19,4.124,31.668,0.518,47.028
			C2726,2560,2462.5,2693.579,2437.301,2693.564c-19.832-0.012-84.605-59.899-88.301-67.498C2345.32,2618.5,2346.535,2592,2349,2562
			z"/>
		<path fill="none" stroke="#FFFFFF" stroke-width="8" stroke-linecap="round" stroke-miterlimit="10" d="M2349,2566.035
			c7.5,23.465,75.026,76.803,91,79.465c18,3,283.792-123.031,288.176-144"/>
	</g>
	<path fill="none" stroke="#FFFFFF" stroke-width="8" stroke-linecap="round" stroke-miterlimit="10" d="M2440,2645.5
		c0,12.034-1.35,34-2.699,48.064"/>
	<g>
		<polyline fill="none" stroke="#FFFFFF" stroke-width="8" stroke-linecap="round" stroke-miterlimit="10" points="
			2924.839,1628.516 2798.283,125.918 245.859,444.652 709.936,2775.235 2709.52,1892.124 		"/>
		<path fill="none" stroke="#FFFFFF" stroke-width="8" stroke-linecap="round" stroke-miterlimit="10" d="M2085.033,1475.486
			c0.111-24.343-15.171-52.601-23.377-74.8c-9.928-26.857-18.276-55.139-27.575-81.648c-18.731-53.41-40.124-103.201-70.981-151.34
			c-31.418-49.012-74.37-89.893-106.288-139.264c-16.393-25.357-24.461-47.718-30.172-76.549
			c-5.06-25.545-14.309-49.858-17.007-76.5c-5.948-58.743,13.712-121.039,69.322-151.766c49.217-27.193,106.628,9.451,172.03,26.393
			c26.475,6.858,50.453,27.484,62.652,53.974c12.103,26.283,24.92,50.708,39.817,76.412c27.997,48.312,60.354,89.281,81.178,140.338
			c12.154,29.801,33.076,49.229,39.101,79.899c5.792,29.497,2.038,57.33,5.1,87.551c6.986,68.949,6.586,137.683-0.007,207.021
			c-1.826,19.211,0.028,40.333-3.776,59.5c-3.007,15.141-6.849,44.775-9.816,59.878c-6.837,34.784-11.194,49.312-28.981,81.262
			c-14.574,26.178-38.359,58.351-71.312,59.927c-30.837,1.475-51.425-21.64-59.884-47.271
			C2094.515,1576.568,2084.88,1509.115,2085.033,1475.486z"/>
		<path fill="none" stroke="#FFFFFF" stroke-width="8" stroke-linecap="round" stroke-miterlimit="10" d="M1928.632,1591.509
			c-26.112-10.254-54.431-13.581-81.6-19.124c-65.166-13.293-120.506-45.594-178.494-81.177
			c-63.819-39.16-131.592-74.447-205.706-85.384c-34.186-5.045-49.839,6.502-67.149,40.761
			c-17.27,34.178-12.907,85.037-9.472,119.851c8.599,87.122,35.821,146.199,100.67,203.176
			c31.563,27.733,69.611,52.604,110.251,61.174c42.527,8.968,98.552,15.79,139.4,30.6c65.052,23.586,132.587,17.854,202.3,17
			c40.435-0.494,70.857-24.153,102.261-46.661c30.22-21.662,52.444-36.084,63.012-73.667c8.991-31.975,9.546-72.158-16.954-96.044
			c-24.893-22.434-68.32-34.672-99.019-43.728C1972.488,1613.67,1943.817,1597.471,1928.632,1591.509z"/>
		<path fill="none" stroke="#FFFFFF" stroke-width="8" stroke-linecap="round" stroke-miterlimit="10" d="M2085.033,1475.486
			c-23.814-6.26-51.534-25.326-71.4-39.101c-28.337-19.649-59.719-32.379-86.233-54.218c-26.48-21.81-57.729-40.022-83.767-62.994
			c-26.081-23.012-50.384-49.083-75.218-73.188c-28.46-27.627-52.199-63.55-77.315-93.839
			c-19.891-23.987-44.085-44.191-68.427-64.268c-28.355-23.386-49.023-50.651-75.091-76.034
			c-17.481-17.022-26.828-27.582-39.699-48.909c-9.377-15.541-27.1-37.53-34.85-53.645c-26.18-54.438-53.477-99.696-20.939-153.107
			c20.868-34.258,63.586-72.438,99.715-89.049c33.021-15.182,68.675-39.29,104.824-42.5c41.395-3.675,72.719,5.004,108.531,23.801
			c38.959,20.446,72.181,53.712,102.402,82.261"/>
		<path fill="none" stroke="#FFFFFF" stroke-width="8" stroke-linecap="round" stroke-miterlimit="10" d="M1458.66,1405.228
			c-23.576-6.697-101.713-101.591-119.927-129.492c-39.694-60.805-48.928-139.077-36.55-207.4
			c9.521-52.556,16.149-142.8,79.05-164.05c27.055-9.14,47.453,2.997,70.078,20.021c14.657,11.028,41.027,34.87,56.571,38.629"/>
		<path fill="none" stroke="#FFFFFF" stroke-width="8" stroke-linecap="round" stroke-miterlimit="10" d="M1945.762,1395.585
			c22.525,26.351,62.176,59.425,66.631,127.494c6.34,96.906-58.321,76.068-90.561,66.306"/>
		<path fill="none" stroke="#FFFFFF" stroke-width="8" stroke-linecap="round" stroke-miterlimit="10" d="M1552.933,730.885
			c12.502-1.304,29.11,14.583,40.794,20.016c16.429,7.641,31.129,7.652,45.905-4.337c10.63-8.624,14.497-22.021,25.373-29.569
			c7.387-5.126,12.139-5.39,20.487-6.509c4.504-0.604,28.111-0.796,20.44,0"/>
		<path fill="none" stroke="#FFFFFF" stroke-width="8" stroke-linecap="round" stroke-miterlimit="10" d="M1513.833,907.686
			c10.738-3.16,31.242,12.755,40.888,18.699c17.889,11.024,32.994,21.119,52.068,30.262c15.396,7.38,47.69,34.721,63.816,24.221
			c16.729-10.893,9.828-47.816,9.828-64.643c0-27.165,6.717-66.759-11.9-88.439"/>
		<path fill="none" stroke="#FFFFFF" stroke-width="8" stroke-linecap="round" stroke-miterlimit="10" d="M1892.933,807.385
			c41.261-16.18,52.952-55.295,140.98-26.931c12.354,3.981-35.848,27.291-49.005,45.931c-9.174,12.996-17.176,41.687-17.176,41.687"
			/>
		<path fill="none" stroke="#FFFFFF" stroke-width="8" stroke-linecap="round" stroke-miterlimit="10" d="M1947.333,955.286
			c24.532,5.451,60.425,16.417,78.193,35.618c19.846,21.444,27.884,57.142,51.379,74.543c9.874,7.313,25.066,10.406,35.321,18.618
			c11.585,9.274,23.635,21.833,33.674,32.675c14.377,15.53,25.87,33.641,32.665,54.195c6.131,18.543,0.87,38.377,6.767,56.351"/>
		<path fill="none" stroke="#FFFFFF" stroke-width="8" stroke-linecap="round" stroke-miterlimit="10" d="M1422.033,955.286
			c6.523,26.545,22.849,53.58,35.328,79.9c11.519,24.297,19.479,51.877,42.493,68.943c21.378,15.852,61.579,23.706,33.528,101.906"
			/>
		<path fill="none" stroke="#FFFFFF" stroke-width="8" stroke-linecap="round" stroke-miterlimit="10" d="M1364.233,1043.686
			c17.251,34.071,15.3,72.676,15.3,110.034c0,29.105,5.454,57.447,6.679,84.979"/>
		<path fill="none" stroke="#FFFFFF" stroke-width="8" stroke-linecap="round" stroke-miterlimit="10" d="M1466.233,1252.786
			c3.475,8.879,9.365,22.47,10.2,35.7c0.791,12.562-3.387,31.859,3.784,42.582c7.553,11.295,24.647,17.685,33.663,28.823
			c8.506,10.508,14.276,22.956,23.287,32.077"/>
		<path fill="none" stroke="#FFFFFF" stroke-width="8" stroke-linecap="round" stroke-miterlimit="10" d="M1520.632,1455.085
			c39.279,7.222,36.265,53.54,48.922,78.098"/>
		<path fill="none" stroke="#FFFFFF" stroke-width="8" stroke-linecap="round" stroke-miterlimit="10" d="M1639.632,1579.186
			c19.915,9.049,49.721-3.784,72.755,5.479c24.331,9.782,50.746,18.146,71.315,34.854c23.579,19.155,49.269,33.019,77.309,44.667
			c13.743,5.709,35.949,9.49,45.521,13.6"/>
		<path fill="none" stroke="#FFFFFF" stroke-width="8" stroke-linecap="round" stroke-miterlimit="10" d="M1520.632,1597.885
			c1.441,15.014,58.197,35.15,71.56,44.267c20.479,13.972,25.241,36.776,47.819,46.212c43.435,18.15,124.4,65.36,118.345,77.517
			c-3.44,6.904-54.993-8.469-82.848-9.895c-12.404-0.636-68.176,1.7-68.176,1.7"/>
		<path fill="none" stroke="#FFFFFF" stroke-width="8" stroke-linecap="round" stroke-miterlimit="10" d="M1773.933,695.186
			c15.701-3.54,21.57,75.534,18.739,90.061c-3.812,19.551-20.531,21.054-25.958,37.823c-7.115,21.995,5.258,44.176,7.219,65.396"/>
		<path fill="none" stroke="#FFFFFF" stroke-width="8" stroke-linecap="round" stroke-miterlimit="10" d="M2079.933,883.885
			c10.037,7.476,21.17,37.862,17.033,52.7c-6.135,22.005-27.008,13.311-42.872,10.2c-34.308-6.727-74.486-1.142-106.762,8.5"/>
		<path fill="none" stroke="#FFFFFF" stroke-width="8" stroke-linecap="round" stroke-miterlimit="10" d="M1429,1566.599
			c45.657,30.149,10.025,109.337,38.248,150.442"/>
	</g>
</g>
<g id="hands">
</g>
<g id="details_1_">
</g>
<g id="Layer_4">
	<path fill="none" stroke="#FFFFFF" stroke-width="8" stroke-linecap="round" stroke-miterlimit="10" d="M4006.24,2158.672
		c0,0-61.262-43.824-68.332-51.117c-19.483-20.09-46.186-31.505-66.363-50.724c-27.329-26.035-55.822-51.004-78.903-81.424
		c-19.85-26.163-43.939-54.317-76.935-63.04c-17.146-4.532-35.213-5.596-53.195-6.859c-19.488-1.37-42.357-16.337-59.86-22.308
		c-32.501-11.087-59.458-18.97-91.949-32.173c-69.458-28.225-139.57-53.245-205.481-88.954c-11.78-6.381-20.308-8.181-31.752-19.58
		c-29.705-29.587-36.808-41.786-54.516-66.941c-9.898-14.061-19.278-29.928-32.718-40.715
		c-12.012-9.639-11.763-15.262-23.995-24.725c-4.908-3.797-15.842-10.445-26.198-20.263c-10.858-10.293-25.755-36.256-41.27-29.895
		c-11.151,4.571-19.346,21.637-20.448,33.613c-1.439,15.6,7.963,29.685,18.961,39.039c10.834,9.213,17.244,21.744,25.465,33.604
		c7.091,10.229,18.062,52.363,18.062,52.363"/>
	<path fill="none" stroke="#FFFFFF" stroke-width="8" stroke-linecap="round" stroke-miterlimit="10" d="M3231.616,1749.805
		c-32.179-6.851-64.521-17.294-94.805-31.23c-14.075-6.478-29.956-8.669-43.651-15.822c-15.348-8.016-30.537-15.047-46.599-24.787
		c-16.359-9.92-29.496-17.847-47.591-24.539c-32.876-12.159-35.332-11.963-67.405-22.607c-12.108-4.018-32.268-12.003-51.074-13.085
		c-4.954-0.285-36.684-21.272-52.489-29.248c-15.361-7.753-36.353-26.997-55.58-24.787c-17.768,2.042-26.643,26.949-24.291,42.26
		c1.654,10.784,20.17,30.901,31.975,39.785c9.107,6.853,75.414,41.308,75.414,41.308"/>
	<path fill="none" stroke="#FFFFFF" stroke-width="8" stroke-linecap="round" stroke-miterlimit="10" d="M3088.852,1717.46
		c-16.322-4.062-32.468-8.229-49.018-10.097c-8.729-0.984-17.924-2.546-26.822-2.168c-8.594,0.364-22.023,4.087-30.897,3.755
		c-41.923-1.57-74.922-15.376-115.505-20.573c-43.472-5.566-57.16-7.079-100.634,0c-17.672,2.877-40.537,5.815-59.488,6.307
		c-18.094,0.47-52.006,3.561-68.411,0.956c-15.615-2.479-43.872-8.998-53.786-2.802c-14.451,9.031-17.16,33.703-9.421,46.601
		c15.617,26.024,38.525,30.945,73.121,34.204c8.628,0.812,24.166,1.49,27.068,2.479c13.829,4.71,37.972,11.569,60.677,12.641
		c13.546,0.64,38.052,3.565,43.128,4.849c2.283,0.578,9.849,3.363,19.062,6.422c12.966,4.305,29.196,9.154,38.568,9.154"/>
	<path fill="none" stroke="#FFFFFF" stroke-width="8" stroke-linecap="round" stroke-miterlimit="10" d="M2761.496,2107.021
		c-20.634-25.28-27.497-50.066-38.897-81.05c-6.727-18.278-5.265-32.147-6.246-52.007c-0.529-10.71-2.201-16.659-3.669-27.31
		c-1.369-9.943-2.947-23.155-3.471-32.967c-0.86-16.167,0.586-30.6,4.462-45.607c7.568-29.303,58.356-45.49,83.035-51.309
		c18.728-4.416,51.26-8.388,69.154-14.872c17.248-6.249,20.142-12.077,37.84-16.678c17.551-4.562,31.048-13.868,50.188-13.106
		c8.559,0.341,18.032,2.128,26.772,3.094c8.523,0.943,19.583-0.326,27.883,2.479"/>
	<path fill="none" stroke="#FFFFFF" stroke-width="8" stroke-linecap="round" stroke-miterlimit="10" d="M3737.718,2469.248
		c-11.092-14.137-75.438-85.459-86.36-98.495c-13.205-15.755-27.514-28.008-41.643-43.871c-7.141-8.016-47.385-41.915-54.282-49.077
		c-6.445-6.692-49.972-38.478-58.001-42.882c-37.375-20.502-83.284-29.496-120.515-20.325
		c-18.325,4.514-43.495,20.351-62.029,27.761c-22.938,9.172-52.683,10.163-72.117,13.787c-17.575,3.276-33.897,4.784-52.198,4.804
		c-33.527,0.035-64.941-5.453-100.604,0.799c-17.645,3.093-36.227,0.942-53.537-2.476c-17.879-3.529-41.206-15.83-49.019-19.831
		c-15.776-8.082-53.883-24.875-70.546-30.057c-15.938-4.956-41.047-4.702-59.731-24.814c-13.29-14.306-20.518-21.528-33.903-21.528
		c-17.061,0-33.201-3.775-40.242-8.215c-15.279-9.632-22.051-31.923-21.724-44.83c0.479-18.949,18.055-37.18,36.206-45.944
		c16.62-8.024,67.193-7.039,81.776-5.611c15.788,1.544,20.757,7.436,25.531,7.683c37.874,1.964,55.193,13.667,85.515,17.103
		c-0.128-8.251,2.169-15.11,0.991-23.052c-1.011-6.801-6.923-14.541-10.371-20.656c-9.004-15.974-13.284-32.419-29.469-43.193
		c-13.452-8.954-31.769-26.934-36.256-28.358c-5.844-1.854-23.547-20.077-26.026-20.077c-8.763,0-15.792-2.792-23.547-5.949
		c-1.797-0.731-1.314,1.274-13.881,4.71c-9.082,2.482-27.265,5.205-27.265,5.205c0,14.624,0.464,30.68-1.816,35.515
		c-1.487,3.153,12.129,29.257,18.67,70.26"/>
	<path fill="none" stroke="#FFFFFF" stroke-width="6" stroke-linecap="round" stroke-miterlimit="10" d="M2734.171,1918.223
		c12.021,18.297,25.359,24.287,39.037,28.999c16.532,5.696,33.413,9.765,51.264,4.638"/>
	<path fill="none" stroke="#FFFFFF" stroke-width="6" stroke-linecap="round" stroke-miterlimit="10" d="M2740.862,2010.796
		c14.696,0.051,31.442,4.137,45.485-1.36c29.944-11.722,36.308-22.062,36.308-22.062"/>
	<path fill="none" stroke="#FFFFFF" stroke-width="5" stroke-linecap="round" stroke-miterlimit="10" d="M3084.891,1567.886
		c0,0,18.682,17.131,34.078,19.324c3.77,0.537,16.328,1.899,14.129-0.394"/>
	<path fill="none" stroke="#FFFFFF" stroke-width="5" stroke-linecap="round" stroke-miterlimit="10" d="M2749.785,1586.965
		c11.615,10.166,25.922,12.284,41.474,13.172c9.865,0.562,27.505-2.987,33.903-13.172"/>
	<path fill="none" stroke="#FFFFFF" stroke-width="5" stroke-linecap="round" stroke-miterlimit="10" d="M2572.916,1708.342
		c3.545,14.668,30.439,15.003,44.34,6.017c5.763-3.727,20.82-18.718,20.82-18.718"/>
	<path fill="none" stroke="#FFFFFF" stroke-width="5" stroke-linecap="round" stroke-miterlimit="10" d="M2654.981,1733.075
		c-4.869-10.197,13.446-31.449,21.912-37.435"/>
	<path fill="none" stroke="#FFFFFF" stroke-width="5" stroke-linecap="round" stroke-miterlimit="10" d="M2675.059,1724.153
		c3.175-12.491,9.771-17.324,16.729-26.769"/>
	<path fill="none" stroke="#FFFFFF" stroke-width="5" stroke-linecap="round" stroke-miterlimit="10" d="M2828.002,1623.603
		c1.18-8.336,18.273-15.273,25.511-16.561"/>
	<path fill="none" stroke="#FFFFFF" stroke-width="5" stroke-linecap="round" stroke-miterlimit="10" d="M2830.091,1640.501
		c9.692-9.703,22.86-21.999,34.575-21.191"/>
	<path fill="none" stroke="#FFFFFF" stroke-width="5" stroke-linecap="round" stroke-miterlimit="10" d="M2971.74,1657.232
		c-6.962,3.793-30.115,1.897-40.153,12.269"/>
	<path fill="none" stroke="#FFFFFF" stroke-width="5" stroke-linecap="round" stroke-miterlimit="10" d="M2941.625,1647.194
		c-11.48,5.588-22.404,9.102-31.229,18.961"/>
	<path fill="none" stroke="#FFFFFF" stroke-width="5" stroke-linecap="round" stroke-miterlimit="10" d="M3130.275,1606.314
		c6.51,1.939,13.021,4.208,19.92-0.388"/>
	<path fill="none" stroke="#FFFFFF" stroke-width="5" stroke-linecap="round" stroke-miterlimit="10" d="M3209.308,1668.385
		c-1.924-2.337-11.429,8.242-17.495,7.167"/>
	<path fill="none" stroke="#FFFFFF" stroke-width="5" stroke-linecap="round" stroke-miterlimit="10" d="M2770.437,1719.608
		c5.161-0.332,6.705-19.125,13.925-23.34"/>
	<path fill="none" stroke="#FFFFFF" stroke-width="5" stroke-linecap="round" stroke-miterlimit="10" d="M2772.093,1730.845
		c6.298-0.152,11.925-13.495,17.401-18.896c4.413-4.353,9.685-8.083,13.828-12.334"/>
	<path fill="none" stroke="#FFFFFF" stroke-width="5" stroke-linecap="round" stroke-miterlimit="10" d="M2785.476,1738.652
		c6.184-13.366,37.149-28.521,33.462-44.614"/>
	<path fill="none" stroke="#FFFFFF" stroke-width="5" stroke-linecap="round" stroke-miterlimit="10" d="M2861.319,2095.563
		c2.657,7.074,1.797,16.151,4.431,23.454c2.587,7.17,6.528,14.696,8.706,22.283c5.562,19.379-0.144,10.968,10.25,28.932"/>
	<path fill="none" stroke="#FFFFFF" stroke-width="5" stroke-linecap="round" stroke-miterlimit="10" d="M2844.59,2130.138
		c6.998,12.245,0,24.725,20.076,35.691"/>
	<path fill="none" stroke="#FFFFFF" stroke-width="5" stroke-linecap="round" stroke-miterlimit="10" d="M2765.533,2094.036
		c18.489,1.707,44.562,3.074,48.943,20.487c2.848,11.327,0.684,17.755,7.517,27.45c4.56,6.47,10.959,17.419,12.559,23.036"/>
</g>
</svg>
