<?xml version="1.0" encoding="UTF-8" standalone="no"?>
<!-- Created with Inkscape (http://www.inkscape.org/) -->

<svg
   xmlns:dc="http://purl.org/dc/elements/1.1/"
   xmlns:cc="http://creativecommons.org/ns#"
   xmlns:rdf="http://www.w3.org/1999/02/22-rdf-syntax-ns#"
   xmlns:svg="http://www.w3.org/2000/svg"
   xmlns="http://www.w3.org/2000/svg"
   xmlns:sodipodi="http://sodipodi.sourceforge.net/DTD/sodipodi-0.dtd"
   xmlns:inkscape="http://www.inkscape.org/namespaces/inkscape"
   width="114.05056"
   height="142.37108"
   id="svg2"
   version="1.1"
   inkscape:version="0.48.5 r10040"
   sodipodi:docname="swipe_left.svg">
  <defs
     id="defs4" />
  <sodipodi:namedview
     id="base"
     pagecolor="#ffffff"
     bordercolor="#666666"
     borderopacity="1.0"
     inkscape:pageopacity="0.0"
     inkscape:pageshadow="2"
     inkscape:zoom="3.959798"
     inkscape:cx="29.120734"
     inkscape:cy="102.86017"
     inkscape:document-units="px"
     inkscape:current-layer="layer1"
     showgrid="false"
     inkscape:window-width="3200"
     inkscape:window-height="1752"
     inkscape:window-x="0"
     inkscape:window-y="48"
     inkscape:window-maximized="1"
     fit-margin-top="0"
     fit-margin-left="0"
     fit-margin-right="0"
     fit-margin-bottom="0" />
  <metadata
     id="metadata7">
    <rdf:RDF>
      <cc:Work
         rdf:about="">
        <dc:format>image/svg+xml</dc:format>
        <dc:type
           rdf:resource="http://purl.org/dc/dcmitype/StillImage" />
        <dc:title></dc:title>
      </cc:Work>
    </rdf:RDF>
  </metadata>
  <g
     inkscape:label="Layer 1"
     inkscape:groupmode="layer"
     id="layer1"
     transform="translate(-105.14747,-745.83624)">
    <path
       id="path3243-0"
       style="fill:none;stroke:#ffffff;stroke-width:2;stroke-linecap:butt;stroke-linejoin:miter;stroke-miterlimit:4;stroke-opacity:1;stroke-dasharray:none"
       d="m 152.79743,819.69983 c 1.54411,2.79229 32.1225,-36.69678 51.99539,-55.14235 2.34535,-2.17689 8.93549,-5.81456 12.12854,-2.87609 2.12167,1.95252 0.93233,7.11661 -2.15528,10.85155 -10.52375,12.73017 -26.48584,38.71196 -26.48584,38.71196 0,0 4.64129,0.42288 6.50126,1.6659 2.80763,1.87633 4.49069,5.45469 5.51518,8.67243 0.91412,2.87114 -0.67178,5.82352 0.31908,8.46908 0.84548,2.25739 3.65796,3.38469 4.54198,5.62728 0.9202,2.33437 -0.19478,7.1725 0.54084,7.50813 0.73555,0.33562 4.66003,5.42363 4.41305,8.45133 -0.61092,7.48939 -8.07419,13.25089 -12.87728,19.02968 -3.83224,4.61071 -10.21269,7.01029 -13.2175,12.19833 -3.53549,6.10434 -2.78485,4.59573 -2.78485,4.59573 m -28.43453,-67.76296 c 1.54411,2.79229 32.1225,-36.69678 51.99539,-55.14235 2.34535,-2.17689 8.93549,-5.81456 12.12853,-2.87609 2.12168,1.95252 0.93234,7.11661 -2.15527,10.85155 -10.52375,12.73017 -26.48584,38.71196 -26.48584,38.71196 0,0 4.64129,0.42288 6.50126,1.66589 2.80763,1.87634 4.49069,5.4547 5.51518,8.67244 0.91412,2.87114 -0.67178,5.82352 0.31908,8.46907 0.84548,2.25739 3.65796,3.3847 4.54198,5.62729 0.9202,2.33437 -0.19478,7.17249 0.54084,7.50813 0.73555,0.33562 4.66003,5.42363 4.41305,8.45132 -0.61092,7.4894 -8.07419,13.2509 -12.87728,19.02969 -3.83224,4.6107 -10.21269,7.01029 -13.2175,12.19833 -3.53549,6.10434 -2.78485,4.59572 -2.78485,4.59572 m -47.15626,-9.63082 c 6.09001,-19.09147 1.06264,-38.6972 5.18883,-53.55585 0.96996,-3.49289 19.3166,-16.46273 21.10566,-16.25602 l 4.35742,0.50345"
       inkscape:connector-curvature="0"
       sodipodi:nodetypes="cssscsssscsssccssscsssscsssccssc" />
    <path
       style="fill:none;stroke:#ffffff;stroke-width:2;stroke-linecap:butt;stroke-linejoin:miter;stroke-miterlimit:4;stroke-opacity:1;stroke-dasharray:none"
       d="m 195.40178,759.46041 c 0,0 -24.979,-10.53807 -37.67857,-11.60715 -13.9488,-1.17424 -36.91965,9.73214 -36.91965,9.73214 l -2.05357,-5.75892 -11.07143,13.125 16.875,1.74107 -2.36606,-5.66965 c 0,0 21.30681,-6.62854 34.15944,-4.64788 11.91857,1.83672 30.5727,22.68359 30.5727,22.68359 z"
       id="path3266"
       inkscape:connector-curvature="0"
       sodipodi:nodetypes="cscccccscc" />
  </g>
</svg>
