<?xml version="1.0" encoding="utf-8"?>
<!-- Generator: Adobe Illustrator 16.0.4, SVG Export Plug-In . SVG Version: 6.00 Build 0)  -->
<!DOCTYPE svg PUBLIC "-//W3C//DTD SVG 1.1//EN" "http://www.w3.org/Graphics/SVG/1.1/DTD/svg11.dtd">
<svg version="1.1" xmlns="http://www.w3.org/2000/svg" xmlns:xlink="http://www.w3.org/1999/xlink" x="0px" y="0px"
	 width="140.168px" height="147.103px" viewBox="-11.225 0 140.168 147.103" enable-background="new -11.225 0 140.168 147.103"
	 xml:space="preserve">
<g id="Layer_5">
</g>
<g id="Layer_3">
	<path fill="none" stroke="#FFFFFF" stroke-width="5" stroke-linecap="round" stroke-miterlimit="10" d="M20.263,8.861"/>
	<g>
		<g>
			<path fill="#FFFFFF" stroke="#FFFFFF" stroke-width="0.3" stroke-miterlimit="10" d="M20.263,8.861
				c4.279,1.527,9.597,4.159,12.909,6.974l-2.669-7.101l2.492-7.164C29.754,4.467,24.503,7.229,20.263,8.861z"/>
		</g>
	</g>
	<path fill="#FFFFFF" d="M24.298,77.615c-0.285-1.719-1.464-3.742-1.959-5.37c-0.436-1.435-0.83-2.884-1.161-4.347
		C7.443,66.094,0,55.896,0,40.852c0-6.631,5.132-13.542,5.132-13.542c-2.009-4.778-4.044-9.403-2.461-14.875
		c0.312-1.078,1.461-2.674,1.461-2.674c-10.098,6.511-15.356,20.589-15.356,32.59c0,19.384,15.033,35.278,34.417,35.278
		c0.369,0,0.736-0.005,1.104-0.015"/>
	<path fill="#FFFFFF" d="M59.259,54.36c1.045-3.015,1.614-6.254,1.614-9.674c0-17.966-13.449-36.613-31.284-38.568
		c-1.38-0.145-2.607,0.84-2.758,2.213c-0.15,1.373,0.84,2.607,2.213,2.758c15.295,1.676,24.481,14.353,24.481,29.764
		c0,3.74-0.565,7.181-1.632,10.267c1.452-0.098,2.872-0.013,4.341,0.689c1.101,0.526,1.998,1.692,3.02,2.549"/>
</g>
<g id="Layer_2_1_">
	<path fill="none" stroke="#FFFFFF" stroke-width="0.5" stroke-linecap="round" stroke-miterlimit="10" d="M83.025,146.853
		c0,0-1.764-1.781-2.5-2.496c-1.371-1.33-3.239-2.613-4.666-3.922c-1.758-1.612-2.998-3.371-4.871-4.875
		c-2.191-1.759-4.296-3.589-6.43-5.415c-2.093-1.791-3.922-2.48-6.371-3.455c-2.375-0.944-4.761-2.325-6.958-3.551
		c-1.802-1.004-3.845-1.533-5.583-2.67c-1.854-1.213-3.578-2.631-5.458-3.829c-1.865-1.188-3.867-2.341-5.838-3.287
		c-3.218-1.545-5.959-3.229-7.581-6.214c-3.369-6.202-3.431-12.901-3.827-15.118c-1.125-6.292-0.258-9.298,0.164-10.58
		c0.453-1.379,1.354-2.029,1.241-3.427c-0.011-0.131-0.028-0.264-0.05-0.398c-0.285-1.719-1.464-3.742-1.959-5.37
		c-0.436-1.435-0.83-2.884-1.16-4.348c-0.116-0.513-0.224-1.028-0.324-1.545c-0.482-2.51-1.145-4.595-1.986-7.009
		c-0.816-2.34-4.913-10.024-5.758-12.24c-1.834-4.804-4.485-9.492-5.955-14.418c-0.551-1.846-1.285-3.621-2.023-5.375
		c-2.009-4.778-4.044-9.403-2.461-14.875c0.312-1.078,0.809-1.994,1.458-2.679c1.296-1.369,3.197-1.814,5.434-0.784
		c4.432,2.04,5.647,6.646,7.755,10.587c2.083,3.894,3.329,7.587,5.912,11.255c1.456,2.068,3.05,3.364,4.088,5.745
		c0.874,2.006,1.878,4.09,2.675,6.163c1.113,2.895,2.315,5.782,3.737,8.589c0.806,1.59,2.022,3.987,3.405,5.112
		c2.532,2.058,3.761-2.307,5.517-3.24c2.009-1.066,4.468-1.567,6.626-1.794c0.894-0.094,1.76-0.214,2.616-0.271
		c1.452-0.097,2.872-0.012,4.341,0.69c1.101,0.526,1.998,1.692,3.02,2.549c0.796,0.667,1.668,1.146,2.771,0.993
		c1.318-0.184,3-2.208,7.292-2.042c2.478,0.096,3.864,2.131,6.333,2.625c1.72,0.344,3.724-0.833,5.458-0.833
		c6.292,0,8.177,5.004,10.262,8.531c3.015,5.103,4.623,9.239,5.947,14.928c0.708,3.041,1.959,6.172,2.874,8.794
		c0.876,2.508,1.546,5.48,3.126,7.671c1.266,1.755,2.672,3.662,4.078,5.283c0.711,0.82,1.967,1.553,2.88,2.168
		c1.231,0.83,2.132,0.899,3.425,1.544c2.253,1.124,4.247,3.093,5.812,5.029c2.05,2.536,3.043,4.502,5.43,6.678
		c0.887,0.808,3.75,4.125,3.75,4.125"/>
	<path fill="none" stroke="#FFFFFF" stroke-width="0.5" stroke-linecap="round" stroke-miterlimit="10" d="M15.359,42.352
		c0.942,0.405,2.668,0.167,3.833,0.167"/>
</g>
<g id="Layer_4">
	<path fill="none" stroke="#FFFFFF" stroke-width="0.5" stroke-linecap="round" stroke-miterlimit="10" d="M2.578,12.774
		c0.288,1.632,2.213,4.804,3.781,5.286c1.698,0.522,5.326-0.306,5.892-0.89c0.937-0.966-0.028-5.169-1.302-7.409"/>
	<path fill="none" stroke="#FFFFFF" stroke-width="0.5" stroke-linecap="round" stroke-miterlimit="10" d="M8.859,24.352
		c1.771-0.691,4.193-2.632,5.833-2.5"/>
	<path fill="none" stroke="#FFFFFF" stroke-width="0.5" stroke-linecap="round" stroke-miterlimit="10" d="M15.192,39.352
		c1.864-1.987,3.719-4.091,6.167-4.5"/>
	<path fill="none" stroke="#FFFFFF" stroke-width="0.5" stroke-linecap="round" stroke-miterlimit="10" d="M17.859,40.852
		c1.413-1.216,4.769-0.399,5.333-2.833"/>
	<path fill="none" stroke="#FFFFFF" stroke-width="0.5" stroke-linecap="round" stroke-miterlimit="10" d="M24.65,79.311
		c1.112,3.208,2.365,6.488,3.444,9.721c0.48,1.439,0.971,2.78,1.531,4.161c0.428,1.057,0.484,2.555,1.275,3.368"/>
</g>
</svg>
