<?xml version="1.0" encoding="utf-8"?>
<!-- Generator: Adobe Illustrator 16.0.4, SVG Export Plug-In . SVG Version: 6.00 Build 0)  -->
<!DOCTYPE svg PUBLIC "-//W3C//DTD SVG 1.1//EN" "http://www.w3.org/Graphics/SVG/1.1/DTD/svg11.dtd">
<svg version="1.1" xmlns="http://www.w3.org/2000/svg" xmlns:xlink="http://www.w3.org/1999/xlink" x="0px" y="0px"
	 width="140.168px" height="147.103px" viewBox="-11.225 0 140.168 147.103" enable-background="new -11.225 0 140.168 147.103"
	 xml:space="preserve">
<g id="Layer_3">
	<path fill="none" stroke="#FFFFFF" stroke-width="5" stroke-linecap="round" stroke-miterlimit="10" d="M97.205,8.861"/>
	<g>
		<g>
			<path fill="#FFFFFF" stroke="#FFFFFF" stroke-width="0.3" stroke-miterlimit="10" d="M97.205,8.861
				c-4.278,1.527-9.597,4.159-12.908,6.974l2.669-7.101L84.475,1.57C87.715,4.467,92.966,7.229,97.205,8.861z"/>
		</g>
	</g>
	<path fill="#FFFFFF" d="M93.171,77.615c0.284-1.719,1.464-3.742,1.96-5.37c0.436-1.435,0.829-2.884,1.16-4.347
		c13.734-1.805,21.178-12.002,21.178-27.046c0-6.631-5.132-13.542-5.132-13.542c2.009-4.778,4.044-9.403,2.462-14.875
		c-0.312-1.078-1.462-2.674-1.462-2.674c10.099,6.511,15.356,20.589,15.356,32.59c0,19.384-15.033,35.278-34.417,35.278
		C93.908,77.63,93.54,77.625,93.171,77.615"/>
	<path fill="#FFFFFF" d="M58.21,54.36c-1.045-3.015-1.614-6.254-1.614-9.674c0-17.966,13.449-36.613,31.284-38.568
		c1.38-0.145,2.606,0.84,2.758,2.213c0.15,1.373-0.841,2.607-2.213,2.758C73.13,12.764,63.943,25.441,63.943,40.852
		c0,3.74,0.565,7.181,1.632,10.267c-1.452-0.098-2.872-0.013-4.341,0.689c-1.102,0.526-1.998,1.692-3.021,2.549"/>
</g>
<g id="Layer_2_1_">
	<path fill="none" stroke="#FFFFFF" stroke-width="0.5" stroke-linecap="round" stroke-miterlimit="10" d="M34.443,146.853
		c0,0,1.764-1.781,2.5-2.496c1.371-1.33,3.239-2.613,4.666-3.922c1.758-1.612,2.998-3.371,4.871-4.875
		c2.191-1.759,4.296-3.589,6.43-5.415c2.093-1.791,3.922-2.48,6.371-3.455c2.375-0.944,4.761-2.325,6.958-3.551
		c1.802-1.004,3.845-1.533,5.583-2.67c1.854-1.213,3.578-2.631,5.458-3.829c1.865-1.188,3.867-2.341,5.839-3.287
		c3.217-1.545,5.959-3.229,7.58-6.214c3.369-6.202,3.431-12.901,3.827-15.118c1.125-6.292,0.258-9.298-0.164-10.58
		c-0.453-1.379-1.354-2.029-1.241-3.427c0.011-0.131,0.027-0.264,0.05-0.398c0.284-1.719,1.464-3.742,1.96-5.37
		c0.436-1.435,0.829-2.884,1.16-4.348c0.115-0.513,0.224-1.028,0.323-1.545c0.482-2.51,1.145-4.595,1.986-7.009
		c0.815-2.34,4.913-10.024,5.759-12.24c1.834-4.804,4.484-9.492,5.954-14.418c0.551-1.846,1.285-3.621,2.023-5.375
		c2.009-4.778,4.044-9.403,2.462-14.875c-0.312-1.078-0.81-1.994-1.459-2.679c-1.296-1.369-3.196-1.814-5.434-0.784
		c-4.432,2.04-5.646,6.646-7.755,10.587c-2.083,3.894-3.329,7.587-5.912,11.255c-1.456,2.068-3.05,3.364-4.088,5.745
		c-0.874,2.006-1.878,4.09-2.675,6.163c-1.113,2.895-2.315,5.782-3.738,8.589c-0.806,1.59-2.021,3.987-3.404,5.112
		c-2.531,2.058-3.761-2.307-5.517-3.24c-2.009-1.066-4.468-1.567-6.626-1.794c-0.895-0.094-1.761-0.214-2.616-0.271
		c-1.452-0.097-2.872-0.012-4.341,0.69c-1.102,0.526-1.998,1.692-3.021,2.549c-0.796,0.667-1.668,1.146-2.771,0.993
		c-1.318-0.184-3-2.208-7.292-2.042c-2.478,0.096-3.864,2.131-6.333,2.625c-1.72,0.344-3.724-0.833-5.458-0.833
		c-6.292,0-8.177,5.004-10.262,8.531c-3.015,5.103-4.623,9.239-5.947,14.928c-0.708,3.041-1.959,6.172-2.874,8.794
		c-0.876,2.508-1.546,5.48-3.126,7.671c-1.266,1.755-2.672,3.662-4.078,5.283c-0.711,0.82-1.967,1.553-2.88,2.168
		c-1.231,0.83-2.132,0.899-3.425,1.544c-2.253,1.124-4.247,3.093-5.812,5.029c-2.05,2.536-3.043,4.502-5.43,6.678
		c-0.887,0.808-3.75,4.125-3.75,4.125"/>
	<path fill="none" stroke="#FFFFFF" stroke-width="0.5" stroke-linecap="round" stroke-miterlimit="10" d="M102.109,42.352
		c-0.941,0.405-2.668,0.167-3.833,0.167"/>
</g>
<g id="Layer_4">
	<path fill="none" stroke="#FFFFFF" stroke-width="0.5" stroke-linecap="round" stroke-miterlimit="10" d="M114.891,12.774
		c-0.287,1.632-2.213,4.804-3.781,5.286c-1.697,0.522-5.325-0.306-5.892-0.89c-0.937-0.966,0.028-5.169,1.302-7.409"/>
	<path fill="none" stroke="#FFFFFF" stroke-width="0.5" stroke-linecap="round" stroke-miterlimit="10" d="M108.609,24.352
		c-1.771-0.691-4.193-2.632-5.833-2.5"/>
	<path fill="none" stroke="#FFFFFF" stroke-width="0.5" stroke-linecap="round" stroke-miterlimit="10" d="M102.276,39.352
		c-1.864-1.987-3.72-4.091-6.167-4.5"/>
	<path fill="none" stroke="#FFFFFF" stroke-width="0.5" stroke-linecap="round" stroke-miterlimit="10" d="M99.609,40.852
		c-1.412-1.216-4.768-0.399-5.333-2.833"/>
	<path fill="none" stroke="#FFFFFF" stroke-width="0.5" stroke-linecap="round" stroke-miterlimit="10" d="M92.818,79.311
		c-1.111,3.208-2.365,6.488-3.444,9.721c-0.48,1.439-0.971,2.78-1.53,4.161c-0.429,1.057-0.484,2.555-1.275,3.368"/>
</g>
</svg>
