<?xml version="1.0" encoding="utf-8"?>
<!-- Generator: Adobe Illustrator 16.0.4, SVG Export Plug-In . SVG Version: 6.00 Build 0)  -->
<!DOCTYPE svg PUBLIC "-//W3C//DTD SVG 1.1//EN" "http://www.w3.org/Graphics/SVG/1.1/DTD/svg11.dtd">
<svg version="1.1" xmlns="http://www.w3.org/2000/svg" xmlns:xlink="http://www.w3.org/1999/xlink" x="0px" y="0px" width="4896px"
	 height="3809px" viewBox="0 0 4896 3809" enable-background="new 0 0 4896 3809" xml:space="preserve">
<g id="hardware">
	<g>
		<path fill="none" stroke="#FFFFFF" stroke-width="8" stroke-linecap="round" stroke-miterlimit="10" d="M1611.144,1660.833
			c-81.852,84.286-226.531,264.956-101.975,364.237c66.288,52.836,149.333,39.825,209.27-20.175
			c53.872-53.929,111.508-100.286,181.439-136.023c139.535-71.303,295.106-100.025,442.573-148.622
			c140.861-46.419,175.219-117.003,206.781-190.548c28.881-67.291,61.188-237.908,45.652-307.654
			c-16.631-74.679-34.912-157.832-64.57-227.09c-28.082-65.59-102.127-257.083-249.656-326.427
			c-287.136-134.963-623.67-131.414-881.486,37.817c-118.312,77.66-208.346,172.378-261.972,298.976
			c-57.261,135.176-110.911,268.496-111.102,423.508c-0.145,116.589,46.906,326.147,191.652,327.827
			c70.699,0.822,130.709-33.127,196.562-50.568C1483.412,1687.79,1611.144,1660.833,1611.144,1660.833z"/>
		<path fill="none" stroke="#FFFFFF" stroke-width="8" stroke-linecap="round" stroke-miterlimit="10" d="M1611.144,1660.833
			c58.456-24.869,90.361-131.783,104.789-182.687c17.312-61.075,40.716-112.356,91.664-156.232
			c97.986-84.385,217.788-189.453,312.009-267.088"/>
		<path fill="none" stroke="#FFFFFF" stroke-width="8" stroke-linecap="round" stroke-miterlimit="10" d="M1474.968,1035.441
			c24.691,14.561,33.864,59.503,53.962,86.994c28.865,39.478,41.468,45.663,46.907,99.613c4.493,44.547,8.187,76.374-4.184,112.08
			c-17.262,49.841-14.103,63.417,4.543,118.396"/>
		<path fill="none" stroke="#FFFFFF" stroke-width="8" stroke-linecap="round" stroke-miterlimit="10" d="M2004.875,584.021
			c-13.646,27.243-50.198,32.357-64.898,62.955c-10.16,21.148-8.942,59.23-15.014,81.933
			c-11.295,42.238-74.041,129.537-31.385,170.357"/>
		<path fill="none" stroke="#FFFFFF" stroke-width="8" stroke-linecap="round" stroke-miterlimit="10" d="M2155.84,626.919
			c-12.235,42.642-36.2,53.111-35.562,101.129c0.495,37.554,7.435,63.109-8.447,100.609c-12.224,28.875-32.208,51.588-41.583,80.841
			c-5.48,17.097-8.006,31.442-10.231,50.29c-0.917,7.746,0,55.464,0,35.305"/>
		<path fill="none" stroke="#FFFFFF" stroke-width="8" stroke-linecap="round" stroke-miterlimit="10" d="M1137.2,1005.324
			c32.785-12.78,32.646-33.495,59.14-55.641c40.553-33.899,78.854-42.373,122.424-60.358c43.87-18.112,50.675-35.145,74.126-71.875
			c29.167-45.685,58.574-43.002,97.209-69.488"/>
		<path fill="none" stroke="#FFFFFF" stroke-width="8" stroke-linecap="round" stroke-miterlimit="10" d="M1795.294,1936.155
			c-12.41-26.755,23.058-61.642,38.886-83.392c22.578-31.031,27.282-47.846,29.139-86.017
			c3.773-77.669,20.468-102.826,70.609-161.391"/>
		<path fill="none" stroke="#FFFFFF" stroke-width="8" stroke-linecap="round" stroke-miterlimit="10" d="M2362.624,1111.093
			c-50.77,102.911-137.157,139.094-221.78,206.656c-49.916,39.852-102.36,24.357-152.805,54.357
			c-25.533,15.186-98.608,99.461-94.46,107.162"/>
		<path fill="none" stroke="#FFFFFF" stroke-width="8" stroke-linecap="round" stroke-miterlimit="10" d="M1414.448,1252.31
			c31.778-69.872,102.859-45.918,156.202-71.874c26.693-12.986,36.958-44.18,60.423-55.578
			c29.226-14.195,74.556-0.512,105.037,1.365c126.293,7.773,238.259-16.319,349.12-60.522c46.694-8.911,82.49-40.391,126.35-60.782
			c45-20.919,85.277-31.036,110.698-80.436"/>
		<path fill="none" stroke="#FFFFFF" stroke-width="8" stroke-linecap="round" stroke-miterlimit="10" d="M1283.317,1050.572
			c9.366,58.553-23.783,154.08,15.131,216.87"/>
		<path fill="none" stroke="#FFFFFF" stroke-width="8" stroke-linecap="round" stroke-miterlimit="10" d="M2039.84,1570.051
			c44.645-55.987,45.584-29.879,105.508-18.61"/>
		<path fill="none" stroke="#FFFFFF" stroke-width="8" stroke-linecap="round" stroke-miterlimit="10" d="M2212.082,1443.203
			c32.66,6.807,53.16,16.427,78.549,26.258c27.252,10.551,55.413,26.264,82.08,4.765"/>
		<path fill="none" stroke="#FFFFFF" stroke-width="8" stroke-linecap="round" stroke-miterlimit="10" d="M1706.968,778.223
			c2.307,21.295-9.065,46.625-5.026,65.565c5.277,24.736,23.722,25.588,31.764,43.894c21.783,49.577-4.425,72.89-16.523,117.112"/>
		<path fill="none" stroke="#FFFFFF" stroke-width="8" stroke-linecap="round" stroke-miterlimit="10" d="M1202.621,1534.747
			c-0.336,14.377,23.923,20.807,45.373,15.112c25.877-6.866,35.048-29.919,46.774-55.461
			c26.633-58.007,55.394-63.532,104.129-94.462"/>
		<polygon fill="none" stroke="#FFFFFF" stroke-width="8" stroke-linecap="round" stroke-miterlimit="10" points="709.937,2775.234 
			2938.523,1790.985 2798.283,125.919 245.859,444.652 		"/>
	</g>
	<g>
		<path fill="none" stroke="#FFFFFF" stroke-width="8" stroke-linecap="round" stroke-miterlimit="10" d="M2348.14,2573.082
			c0.263-3.618,0.552-7.322,0.86-11.082c0.14-1.705,5.199-5.191,13.892-9.961"/>
		<path fill="none" stroke="#FFFFFF" stroke-width="8" stroke-linecap="round" stroke-miterlimit="10" d="M2677.237,2580.62"/>
		<path fill="none" stroke="#FFFFFF" stroke-width="8" stroke-linecap="round" stroke-miterlimit="10" d="M2554.806,2466.922
			c31.364-12.93,58.121-23.67,72.694-29.289c18.5-7.133,99.898,54.9,100.676,63.867c1.646,19,4.124,31.668,0.518,47.028
			c-0.744,3.171-21.408,15.667-51.456,32.092"/>
		<path fill="none" stroke="#FFFFFF" stroke-width="8" stroke-linecap="round" stroke-miterlimit="10" d="M2646.525,2553.568
			c45.113-23.652,80.084-44.572,81.65-52.068"/>
		<path fill="none" stroke="#FFFFFF" stroke-width="8" stroke-linecap="round" stroke-miterlimit="10" d="M2646.525,2553.568"/>
		<path fill="none" stroke="#FFFFFF" stroke-width="8" stroke-linecap="round" stroke-miterlimit="10" d="M2440,2645.5"/>
		<path fill="none" stroke="#FFFFFF" stroke-width="8" stroke-linecap="round" stroke-miterlimit="10" d="M2432.123,2642.444
			c3.25,1.667,5.941,2.733,7.877,3.056"/>
		<path fill="none" stroke="#FFFFFF" stroke-width="8" stroke-linecap="round" stroke-miterlimit="10" d="M2432.123,2642.444"/>
		<path fill="none" stroke="#FFFFFF" stroke-width="8" stroke-linecap="round" stroke-miterlimit="10" d="M2360.412,2583.766"/>
		<path fill="none" stroke="#FFFFFF" stroke-width="8" stroke-linecap="round" stroke-miterlimit="10" d="M2349,2566.035
			c1.555,4.865,5.69,11.015,11.412,17.73"/>
	</g>
	<path fill="none" stroke="#FFFFFF" stroke-width="8" stroke-linecap="round" stroke-miterlimit="10" d="M2440,2645.5
		c0,1.31-0.016,2.737-0.046,4.26"/>
</g>
<g id="hands">
	<path fill="none" stroke="#FFFFFF" stroke-width="8" stroke-linecap="round" stroke-miterlimit="10" d="M2605.334,2860.335
		c-15.666-49.667-54.182-107.572-90.889-145.445c-20.688-21.345-46.387-40.206-65.896-62.288
		c-10.68-12.088-21.763-24.878-31.548-37.054c-8.255-10.27-68.667-77.88-75.667-92.547c-13.104-27.456-36.453-54.801-50.896-76.438
		c-35.306-52.892-87.85-81.67-126.933-129.067c-14.951-18.132-49.572-36.396-44.171-61.828c8-37.667,39.711-51.462,65-53
		c56.381-3.431,115.673,42.239,156.207,75.838c43.346,35.929,82.793,70.495,123.46,110.162
		c20.542,20.037,38.013,34.96,61.508,52.831c12.492,9.502,33.178,29.163,53.492,47.502c40.292,36.374,61.328,61.827,104,96.333
		c24.42,19.746,73.247,50.126,99.146,66.335c25.654,16.056,49.11,36.354,75.854,50.666c40.755,21.812,110,66,127.171,50.741"/>
	<path fill="none" stroke="#FFFFFF" stroke-width="8" stroke-linecap="round" stroke-miterlimit="10" d="M2881.053,3762.369
		c-30.805-49.048-63.26-115.886-69.053-140.369c-10.391-43.918-10.706-67.248-21.028-100.046
		c-4.095-13.01-46.972-82.955-64.972-95.621c-22.523-15.85-52.948-38.474-73-57.331c-35.47-33.356-54.277-50.343-92.667-79.667
		c-16.001-12.223-51.981-32.061-70.333-39.597c-50.219-20.621-91.979-46.652-150.999-76.403
		c-24.542-12.372-45.188-33.979-68.951-46.83c-25.176-13.614-49.53-29.27-74.088-47.432c-16.765-12.399-59.34-22.032-69.46-40.575
		c-16.258-29.79,6.994-56.377,33.498-63.498c45.315-12.175,79.297,11.951,118.334,32.669c34.921,18.533,63.66,23.269,99.477,33.343"
		/>
	<path fill="none" stroke="#FFFFFF" stroke-width="8" stroke-linecap="round" stroke-miterlimit="10" d="M2502,3049
		c6.123-15.692-31.536-62.41-40-79.498c-15.725-31.747-37.612-56.49-61.498-83.043c-38.855-43.196-93.889-77.639-129.993-125.516
		c-36.71-48.68-63.967-102.891-103.058-151.395c-17.675-21.933-23.456-42.978-40.451-65.214c-18.257-23.888-42.581-42.086-62-63.949
		c-20.319-22.877-54.852-39.215-68.556-65.877c-15.802-30.744,15.286-70.124,52.556-75.509c29.125-4.208,70.54,22.433,109,50.002
		c37.688,27.016,72.61,54.798,83.334,67.666c60.366,72.438,85.024,103.608,173,170c12.722,9.6,38.785,37.722,52.101,44.325"/>
	<path fill="none" stroke="#FFFFFF" stroke-width="8" stroke-linecap="round" stroke-miterlimit="10" d="M2496,3163
		c-39.189-51.756-80.705-94.815-134-133.998c-47.305-34.778-87.666-77.333-128.445-121.5
		c-40.771-44.159-70.604-105.507-123.117-138.997c-25.561-16.301-48.412-35.638-74.392-51.505
		c-16.78-10.248-31.125-13.301-36.484-34c-3.972-15.344,0.673-34.082,9.105-46.998c28.092-43.03,85.161-20.142,115-1
		c35.333,22.666,68,47.998,104.813,63.773"/>
	<path fill="none" stroke="#FFFFFF" stroke-width="8" stroke-linecap="round" stroke-miterlimit="10" d="M2987.333,2821.668
		c30.981-61.078-64.197-172.064-95.333-220.667c-31.635-49.381-67.73-145.964-75.333-174.667
		c-5.991-22.619-20.415-79.326-15.961-104.443c5.294-29.853,38.688-56.992,58.627-65.252c32.955-13.651,61.703,2.155,89.065,23.82
		c22.99,18.202,44.244,36.292,63.602,57.907c20.933,23.374,28.983,48.197,47.451,73.079c18.648,25.124,32.4,50.014,45.216,77.556
		c14.014,30.118,24.386,58.646,36.835,90.045c24.202,61.043,53.106,113.599,98.053,162.064
		c50.595,54.557,65.714,107.093,90.445,171.89c33.333,87.334,34.748,147.873,52,209.333c21.333,76,11.333,142-2.667,178.499
		c-33.002,86.04-4.386,129.228,2.667,146.168c6.768,16.254,13.076,32.461,17.972,49c9.929,33.547,16.509,42.774,28.263,75.513"/>
	<path fill="none" stroke="#FFFFFF" stroke-width="8" stroke-linecap="round" stroke-miterlimit="10" d="M4126,1981
		c0,3.784,0-6.146,0-7.948c0-5.147-0.226-10.157-0.777-15.052c-1.066-9.453-3.385-18.858-5.223-28
		c-3.15-15.668-6.825-31.508-13.249-46.774c-5.457-12.968-12.852-24.074-16.803-37.174c-4.36-14.459-17.429-24.564-25.697-38.1
		c-15.724-25.74-23.879-58.545-27.199-88.003c-1.646-14.608-3.357-32.441,2.948-45.948c6.195-13.27,12.182-25.748,21-36.5
		c10.477-12.772,26.908-18.148,43.5-19c17.751-0.911,22.988,13.574,29.525,28.475c11.762,26.813,23.329,51.483,42.975,76.025
		c8.876,11.088,21.25,19.398,32.752,29.248c10.316,8.833,19.549,16.375,25.497,28.503c6.388,13.024,6.476,28.07,13.751,41.249
		c7.62,13.803,15.846,27.931,22.749,42.052c6.09,12.457,10.737,24.626,19.499,35.701c9.525,12.041,17.556,23.203,27.252,35.248
		c9.646,11.98,18.805,27.57,25.5,41c6.987,14.017,10.771,28.027,14.199,43.226c4.067,18.034,5.691,35.783,11.801,53.274
		c5.504,15.756,13.019,31.955,15.5,48.5c2.854,19.032,12.645,37.302,18.088,55.699c8.704,29.429,15.522,62.238,2.635,91.301
		c-6.058,13.658-16.525,34.5-25.088,45.842"/>
	<path fill="none" stroke="#FFFFFF" stroke-width="8" stroke-linecap="round" stroke-miterlimit="10" d="M3815,1995
		c4.8-7.066,15.423-22.876,12.023-33.023c-2.049-6.115-10.012-9.426-15.298-12.726c-12.175-7.601-24.945-14.411-37.754-22.003
		c-24.623-14.596-51.51-28.61-73.972-46.248c-24.928-19.574-54.804-35.363-83.223-49.777c-27.443-13.92-52.11-32.321-78.023-48
		c-14.033-8.492-28.054-11.785-34.754-28.223c-6.634-16.276-2.785-35.357,6.801-49.1c18.034-25.854,43.699-26.219,74.199-17.9
		c15.913,4.34,35.247,14.262,50.004,21.274c14.6,6.938,26.604,13.696,40.496,22.226c25.699,15.78,53.364,27.252,81.5,37.5
		c30.76,11.204,56.979,28.442,85,46.751c14.52,9.487,32.89,16.204,47.5,25.249c13.041,8.073,24.47,16.583,39.5,22.045
		c31.692,11.516,66.074,21.7,96.246,37.732c28.786,15.297,59.872,25.796,89.706,39.226c2.979,1.341,6.797,2.628,8.937,3.865
		c-1.326-0.506-1.543-1.719-2.889-2.869"/>
	<path fill="none" stroke="#FFFFFF" stroke-width="8" stroke-linecap="round" stroke-miterlimit="10" d="M3764,2106
		c14.1-28.408-35.827-45.201-54.777-54.223c-30.028-14.295-61.052-27.388-90.664-42.53c-26.53-13.566-51.007-31.571-78.559-42.248
		c-33.691-13.056-61.756-30.025-92.004-49.777c-13.301-8.686-15.549-9.929-29.561-16.596c-10.147-4.829-31.758-13.476-41.809-23.205
		c-4.239-4.103-7.57-21.291-6.127-27.027c6.052-24.052,22.717-38.595,37-43.395c15.924-5.352,28.844-2.258,43.5,3.5
		c16.079,6.317,31.312,10.943,46,19c28.344,15.547,58.916,26.179,88.805,38.748c30.615,12.875,63.148,17.022,92.695,30.752
		c28.408,13.201,58.934,31.638,86.146,48c19.155,11.518,40.136,27.383,57.669,36.167"/>
	<path fill="none" stroke="#FFFFFF" stroke-width="8" stroke-linecap="round" stroke-miterlimit="10" d="M3759.333,2255
		c0,0,5.313-29-5-49.667c-4.088-8.192-15.169-16.299-27.281-20.607c-14.203-5.052-27.938-7.978-42.104-14.475
		c-14.656-6.722-29.251-14.614-43.952-20.977c-29.88-12.933-57.282-23.851-85.33-39.941c-12.156-6.974-27.16-15.49-38.861-23.086
		c-12.821-8.323-27.484-13.664-39.776-22.495c-13.401-9.628-26.389-14.812-41.052-20.777c-12.975-5.279-31.977-14.975-39.977-27.972
		c-6.972-11.326-2.752-36.199,4.948-46.98c8.052-11.273,16.379-17.157,32.052-19.023c10.5-1.25,39.178,13.515,54,21.75
		c14.452,8.029,29.223,13.875,44.5,19.5c29.992,11.041,49.158,25.071,80.5,31.5c26.717,5.48,55.811,17.537,80.004,30.25
		c12.478,6.557,26.465,11.736,39.024,18.752c11.582,6.47,21.877,14.897,33.618,20.338"/>
	<path fill="none" stroke="#FFFFFF" stroke-width="8" stroke-linecap="round" stroke-miterlimit="10" d="M3760.129,2248.933
		c-17.358,0.462-28.066-3.603-43.796-8.6c-14.659-4.657-30.653-8.333-46.333-8.333c-34.601,0-67.223-6.667-101-6.667
		c-18.174,0-31.846-2.52-49-3.333c-18.132-0.859-36,7.998-38.945,26c-5.895,36.026,33.945,47,68.949,54.219
		c15.901,3.279,32.092,3.66,47.944,7.781c16.105,4.187,33.156,7.583,49.028,11.026c16.387,3.556,32.502,3.732,49.023,6.196
		c14.424,2.15,28.947,8.271,42.777,13.023c28.041,9.636,48.029,23.624,70.975,44.001c24.582,21.829,58.908,39.942,88.196,54.004
		c15.511,7.447,31.537,11.814,47.274,18.503c17.367,7.382,35.506,16.646,52.773,23.079c32.242,12.011,66.609,19.141,99.078,33.163
		c27.281,11.782,56.058,19.004,86.699,19.004c6.643,0,16.164,1.643,22.274-0.729c7.771-3.016,51.212-35.9,57.952-49.271"/>
	<path fill="none" stroke="#FFFFFF" stroke-width="8" stroke-linecap="round" stroke-miterlimit="10" d="M4412,2217
		c0.33,8.536,10.975,19.042,15.902,25.938c6.727,9.414,13.633,18.336,21.074,27.062c14.848,17.41,104.459,94.15,127.223,123.948
		c19.973,26.143,111.771,119.341,113.801,128.052"/>
	<path fill="none" stroke="#FFFFFF" stroke-width="8" stroke-linecap="round" stroke-miterlimit="10" d="M4172,2531.644
		c13.333,5.689,32.352,25.232,45.248,39.105c15.224,16.378,32.317,31.73,46.529,49.251c13.67,16.853,27.318,32.495,38.977,51
		c12.827,20.358,28.848,35.516,43.246,53.952c15.546,19.903,26.003,45.964,43.697,63.292"/>
</g>
<g id="details_1_">
	<path fill="none" stroke="#FFFFFF" stroke-width="5" stroke-linecap="round" stroke-miterlimit="10" d="M2929.708,2773.754
		c35.724,34.008,67.734,82.782,86.086,128.791"/>
	<path fill="none" stroke="#FFFFFF" stroke-width="5" stroke-linecap="round" stroke-miterlimit="10" d="M2800.481,2345.655
		c0,0,19.992,38.438,28.852,51.345c10.375,15.117,24.233,38.571,43.169,39.498c16.165,0.791,106.507-32.165,112.669-43.498
		c9.639-17.726-7.578-55.14-19.135-76.796c-8.964-16.796-24.173-40.772-24.173-40.772"/>
	<path fill="none" stroke="#FFFFFF" stroke-width="5" stroke-linecap="round" stroke-miterlimit="10" d="M2154.092,2210.516
		c33.602,14.109,84.909,97.152,33.175,131.56"/>
	<path fill="none" stroke="#FFFFFF" stroke-width="5" stroke-linecap="round" stroke-miterlimit="10" d="M2028.327,2345.655
		c14.007,13.345,36.485,37.84,45.281,61.782c9.941,27.062-1.941,47.231-16.735,64.727"/>
	<path fill="none" stroke="#FFFFFF" stroke-width="5" stroke-linecap="round" stroke-miterlimit="10" d="M2013.973,2629.021
		c21.361,8.98,35.603,21.336,49.525,40.035c16.836,22.611,16.169,50.611,2.192,67.943"/>
	<path fill="none" stroke="#FFFFFF" stroke-width="5" stroke-linecap="round" stroke-miterlimit="10" d="M2128,2997
		c27.334,11.002,84.05,38.59,67.962,82.073"/>
	<path fill="none" stroke="#FFFFFF" stroke-width="5" stroke-linecap="round" stroke-miterlimit="10" d="M2678,2957
		c21.936,58.137,45.188,112.269,60.452,173.954c7.099,28.689,16.217,103.38,43.694,118.784"/>
	<path fill="none" stroke="#FFFFFF" stroke-width="5" stroke-linecap="round" stroke-miterlimit="10" d="M2564,3083
		c22.253,28.197,39.896,59.891,60.039,89.641c11.353,16.767,27.919,46.414,45.506,56.502"/>
	<path fill="none" stroke="#FFFFFF" stroke-width="5" stroke-linecap="round" stroke-miterlimit="10" d="M3257.333,3233.12
		c-2.271,30.045,8.248,58.316,10.764,87.958c1.366,16.107-1.184,31.85,2.202,47.467"/>
	<path fill="none" stroke="#FFFFFF" stroke-width="5" stroke-linecap="round" stroke-miterlimit="10" d="M3310,3345
		c-10.78-38.087-24.999-76.137-39.701-111.88"/>
	<path fill="none" stroke="#FFFFFF" stroke-width="5" stroke-linecap="round" stroke-miterlimit="10" d="M2270,2377
		c0,0,13-13.332,26-38"/>
	<path fill="none" stroke="#FFFFFF" stroke-width="5" stroke-linecap="round" stroke-miterlimit="10" d="M2252,2359
		c0.587-13.89,9.931-27.763,16-40"/>
	<path fill="none" stroke="#FFFFFF" stroke-width="5" stroke-linecap="round" stroke-miterlimit="10" d="M2366,2499
		c1.785-12.156,24.25-48.104,34-34"/>
	<path fill="none" stroke="#FFFFFF" stroke-width="5" stroke-linecap="round" stroke-miterlimit="10" d="M2376,2533
		c18.725-11.803,32.307-29.655,52-40"/>
	<path fill="none" stroke="#FFFFFF" stroke-width="5" stroke-linecap="round" stroke-miterlimit="10" d="M2268,2727
		c0.232-37.631,23.834-32.695,48-50"/>
	<path fill="none" stroke="#FFFFFF" stroke-width="5" stroke-linecap="round" stroke-miterlimit="10" d="M2294,2749
		c12.803,13.17,37.334-22.594,44-34"/>
	<path fill="none" stroke="#FFFFFF" stroke-width="5" stroke-linecap="round" stroke-miterlimit="10" d="M2244,2889
		c0-11.952-5.022-32.599,8-38"/>
	<path fill="none" stroke="#FFFFFF" stroke-width="5" stroke-linecap="round" stroke-miterlimit="10" d="M2270.303,2923.303
		c12.966-5.574,24.507-21.922,17.697-34.303"/>
	<path fill="none" stroke="#FFFFFF" stroke-width="5" stroke-linecap="round" stroke-miterlimit="10" d="M2342.445,3162.93
		c-1.519-6.719-0.897-15.311,1.555-19.93"/>
	<path fill="none" stroke="#FFFFFF" stroke-width="5" stroke-linecap="round" stroke-miterlimit="10" d="M2364,3175
		c7.382-0.829,9.545-9.686,10-18"/>
	<path fill="none" stroke="#FFFFFF" stroke-width="5" stroke-linecap="round" stroke-miterlimit="10" d="M2122,2509
		c18.953-7.541,38.039-38.697,50-50"/>
	<path fill="none" stroke="#FFFFFF" stroke-width="5" stroke-linecap="round" stroke-miterlimit="10" d="M2130,2755
		c-1.391-12.431,10.518-33.397,18-44"/>
	<path fill="none" stroke="#FFFFFF" stroke-width="5" stroke-linecap="round" stroke-miterlimit="10" d="M4095,1836
		c13.091,12.862,28.703,16.62,45.996,13.196c8.045-1.593,29.873-7.452,32.004-13.196"/>
	<path fill="none" stroke="#FFFFFF" stroke-width="5" stroke-linecap="round" stroke-miterlimit="10" d="M3721,1863
		c5.873,1.253,18.917-23.985,24-29.997c7.732-9.145,11.542-15.808,16-26.003"/>
	<path fill="none" stroke="#FFFFFF" stroke-width="5" stroke-linecap="round" stroke-miterlimit="10" d="M3607,1792
		c0.328-12.958,12.292-35.276,26.868-35.171c0.866-1.695-0.679-1.114-0.868-1.829"/>
	<path fill="none" stroke="#FFFFFF" stroke-width="5" stroke-linecap="round" stroke-miterlimit="10" d="M3491,1908
		c7.509-8.929,11.812-19.567,20.443-27.78c3.663-3.485,8.361-4.843,8.557-10.22"/>
	<path fill="none" stroke="#FFFFFF" stroke-width="5" stroke-linecap="round" stroke-miterlimit="10" d="M3594,1959
		c1.377-5.325,8.626-23.84,18-31"/>
	<path fill="none" stroke="#FFFFFF" stroke-width="5" stroke-linecap="round" stroke-miterlimit="10" d="M3625,1980
		c10.9-19.552,29.869-37.511,29-62"/>
	<path fill="none" stroke="#FFFFFF" stroke-width="5" stroke-linecap="round" stroke-miterlimit="10" d="M3493,2063
		c0.438,1.842,3.807-12.944,4.972-16.578c2.816-8.784,6.051-17.484,8.829-26.317c2.093-6.653,3.609-9.545,8.199-14.105"/>
	<path fill="none" stroke="#FFFFFF" stroke-width="5" stroke-linecap="round" stroke-miterlimit="10" d="M3617,2112
		c16.218-16.149,10.569-38.999,22.571-57.698c-0.266,1.416-0.997,2.469-1.571,3.698"/>
	<path fill="none" stroke="#FFFFFF" stroke-width="5" stroke-linecap="round" stroke-miterlimit="10" d="M3621,2061
		c-3.803,7.633-11.762,11.881-15.242,21.143c-1.428,1.325-0.244-0.562-0.758-1.143"/>
	<path fill="none" stroke="#FFFFFF" stroke-width="5" stroke-linecap="round" stroke-miterlimit="10" d="M3664,2306
		c-7.665-9.574-17.278-40.845-11-49"/>
	<path fill="none" stroke="#FFFFFF" stroke-width="5" stroke-linecap="round" stroke-miterlimit="10" d="M3583,2279
		c-1.073,4.161-1.689,8.919,0.246,13.038c2.133-7.627-3.459-35.6,3.754-40.038"/>
	<path fill="none" stroke="#FFFFFF" stroke-width="5" stroke-linecap="round" stroke-miterlimit="10" d="M4100,1988
		c7.328-6.882,16.577-19.107,25.709-24.479"/>
	<path fill="none" stroke="#FFFFFF" stroke-width="5" stroke-linecap="round" stroke-miterlimit="10" d="M3863,2062
		c-2.449,0.231,9.588,19.775,12.076,24.126c4.134,7.228,8.105,14.54,11.701,21.977c9.276,19.185,12.886,38.444,15.194,59.896
		c3.065,28.488,11.965,55.228,5.032,84.071c-6.029,25.083-18.004,47.534-18.004,73.701c0-0.924,0-1.849,0-2.772"/>
	<path fill="none" stroke="#FFFFFF" stroke-width="5" stroke-linecap="round" stroke-miterlimit="10" d="M3993,2289
		c-14.559-24.853-31.781-55.146-39.219-82.996c-5.006-18.745-10.132-39.391-11.727-58.797c-0.586-7.133-0.839-38.523-11.055-33.207"
		/>
	<path fill="none" stroke="#FFFFFF" stroke-width="5" stroke-linecap="round" stroke-miterlimit="10" d="M4014,2211
		c-1.085,8.25,28.284,51.635,39,52"/>
	<path fill="none" stroke="#FFFFFF" stroke-width="5" stroke-linecap="round" stroke-miterlimit="10" d="M3974,2092
		c20.883,16.823,35.408,39.944,50.965,62.184c20.198,28.875,42.357,57.131,73.308,75.814c0.749-0.657,0.325-1.323-1.272-1.998"/>
	<path fill="none" stroke="#FFFFFF" stroke-width="5" stroke-linecap="round" stroke-miterlimit="10" d="M2919.275,2586.199
		c12.381,7.852,26.855,16.896,41.725,19.575c18.755,3.379,32.485-4.848,47.961-13.556c24.514-13.794,55.918-25.291,76.039-45.219"/>
	<path fill="none" stroke="#FFFFFF" stroke-width="5" stroke-linecap="round" stroke-miterlimit="10" d="M2937,2549
		c23.299,22.422,53.321,13.356,82.039,10.781"/>
	<path fill="none" stroke="#FFFFFF" stroke-width="5" stroke-linecap="round" stroke-miterlimit="10" d="M2963,2521
		c9.738,9.39,43.984-9.299,56.754-11.223c18.622-2.805,35.944-5.878,54.94-5.758"/>
</g>
</svg>
