<?xml version="1.0" encoding="utf-8"?>
<!-- Generator: Adobe Illustrator 16.0.4, SVG Export Plug-In . SVG Version: 6.00 Build 0)  -->
<!DOCTYPE svg PUBLIC "-//W3C//DTD SVG 1.1//EN" "http://www.w3.org/Graphics/SVG/1.1/DTD/svg11.dtd">
<svg version="1.1" xmlns="http://www.w3.org/2000/svg" xmlns:xlink="http://www.w3.org/1999/xlink" x="0px" y="0px" width="4896px"
	 height="3809px" viewBox="0 0 4896 3809" enable-background="new 0 0 4896 3809" xml:space="preserve">
<g id="hardware">
	<g>
		<path fill="none" stroke="#FFFFFF" stroke-width="8" stroke-linecap="round" stroke-miterlimit="10" d="M1765.583,1423.803
			c-41.383,42.613-114.529,133.956-51.556,184.149c33.514,26.713,75.499,20.136,105.802-10.199
			c27.236-27.266,56.375-50.702,91.731-68.771c70.545-36.049,149.198-50.57,223.754-75.14
			c71.216-23.469,88.586-59.154,104.543-96.337c14.602-34.021,30.936-120.28,23.081-155.542
			c-8.408-37.757-17.65-79.797-32.646-114.812c-14.197-33.161-51.632-129.976-126.219-165.033
			c-145.169-68.234-315.313-66.439-445.659,19.119c-59.815,39.263-105.335,87.15-132.447,151.155
			c-28.949,68.342-56.074,135.745-56.17,214.116c-0.073,58.944,23.714,164.893,96.895,165.741
			c35.744,0.415,66.083-16.748,99.377-25.566C1701.005,1437.431,1765.583,1423.803,1765.583,1423.803z"/>
		<path fill="none" stroke="#FFFFFF" stroke-width="8" stroke-linecap="round" stroke-miterlimit="10" d="M1765.583,1423.803
			c29.555-12.573,45.685-66.626,52.979-92.362c8.752-30.878,20.584-56.805,46.343-78.987
			c49.539-42.663,110.108-95.783,157.745-135.033"/>
		<path fill="none" stroke="#FFFFFF" stroke-width="8" stroke-linecap="round" stroke-miterlimit="10" d="M1696.736,1107.619
			c12.484,7.362,17.121,30.084,27.282,43.983c14.593,19.959,20.965,23.086,23.716,50.362c2.271,22.521,4.139,38.612-2.115,56.664
			c-8.728,25.199-7.13,32.062,2.296,59.858"/>
		<path fill="none" stroke="#FFFFFF" stroke-width="8" stroke-linecap="round" stroke-miterlimit="10" d="M1964.645,879.391
			c-6.899,13.774-25.379,16.359-32.812,31.829c-5.137,10.692-4.521,29.945-7.59,41.423c-5.711,21.355-37.434,65.491-15.868,86.129"
			/>
		<path fill="none" stroke="#FFFFFF" stroke-width="8" stroke-linecap="round" stroke-miterlimit="10" d="M2040.969,901.08
			c-6.187,21.559-18.302,26.853-17.979,51.129c0.25,18.986,3.758,31.906-4.271,50.865c-6.181,14.599-16.284,26.082-21.024,40.872
			c-2.771,8.644-4.047,15.896-5.173,25.425c-0.463,3.916,0,28.042,0,17.85"/>
		<path fill="none" stroke="#FFFFFF" stroke-width="8" stroke-linecap="round" stroke-miterlimit="10" d="M1525.968,1092.393
			c16.575-6.462,16.506-16.935,29.899-28.131c20.503-17.139,39.867-21.423,61.896-30.516c22.179-9.157,25.62-17.769,37.477-36.339
			c14.746-23.097,29.613-21.74,49.146-35.131"/>
		<path fill="none" stroke="#FFFFFF" stroke-width="8" stroke-linecap="round" stroke-miterlimit="10" d="M1858.685,1563
			c-6.273-13.526,11.658-31.164,19.66-42.16c11.415-15.689,13.794-24.19,14.732-43.488c1.907-39.268,10.348-51.987,35.698-81.596"/>
		<path fill="none" stroke="#FFFFFF" stroke-width="8" stroke-linecap="round" stroke-miterlimit="10" d="M2145.514,1145.868
			c-25.667,52.029-69.343,70.322-112.126,104.48c-25.236,20.148-51.751,12.314-77.254,27.481
			c-12.909,7.678-49.854,50.285-47.758,54.179"/>
		<path fill="none" stroke="#FFFFFF" stroke-width="8" stroke-linecap="round" stroke-miterlimit="10" d="M1666.138,1217.263
			c16.066-35.325,52.003-23.215,78.973-36.338c13.495-6.565,18.685-22.336,30.549-28.099c14.775-7.177,37.693-0.259,53.104,0.689
			c63.851,3.931,120.459-8.25,176.508-30.598c23.607-4.506,41.704-20.421,63.879-30.73c22.751-10.576,43.114-15.691,55.966-40.666"
			/>
		<path fill="none" stroke="#FFFFFF" stroke-width="8" stroke-linecap="round" stroke-miterlimit="10" d="M1599.841,1115.269
			c4.735,29.604-12.023,77.899,7.65,109.645"/>
		<path fill="none" stroke="#FFFFFF" stroke-width="8" stroke-linecap="round" stroke-miterlimit="10" d="M1982.322,1377.906
			c22.572-28.306,23.047-15.106,53.343-9.409"/>
		<path fill="none" stroke="#FFFFFF" stroke-width="8" stroke-linecap="round" stroke-miterlimit="10" d="M2069.404,1313.774
			c16.512,3.441,26.877,8.305,39.713,13.275c13.777,5.334,28.014,13.279,41.497,2.409"/>
		<path fill="none" stroke="#FFFFFF" stroke-width="8" stroke-linecap="round" stroke-miterlimit="10" d="M1814.031,977.576
			c1.165,10.767-4.584,23.572-2.542,33.148c2.668,12.506,11.993,12.937,16.059,22.191c11.014,25.064-2.236,36.852-8.354,59.209"/>
		<path fill="none" stroke="#FFFFFF" stroke-width="8" stroke-linecap="round" stroke-miterlimit="10" d="M1559.043,1360.056
			c-0.17,7.27,12.096,10.521,22.939,7.642c13.083-3.473,17.72-15.127,23.648-28.04c13.465-29.327,28.006-32.121,52.645-47.758"/>
		<polyline fill="none" stroke="#FFFFFF" stroke-width="8" stroke-linecap="round" stroke-miterlimit="10" points="
			2744.854,1876.52 2938.523,1790.985 2798.283,125.918 245.859,444.652 709.936,2775.235 2433.514,2014.022 		"/>
		<path fill="none" stroke="#FFFFFF" stroke-width="8" stroke-linecap="round" stroke-miterlimit="10" d="M2744.854,1876.52"/>
		<path fill="none" stroke="#FFFFFF" stroke-width="8" stroke-linecap="round" stroke-miterlimit="10" d="M2616.2,1933.339"/>
		
			<line fill="none" stroke="#FFFFFF" stroke-width="8" stroke-linecap="round" stroke-miterlimit="10" x1="2543.039" y1="1965.65" x2="2616.2" y2="1933.339"/>
		<path fill="none" stroke="#FFFFFF" stroke-width="8" stroke-linecap="round" stroke-miterlimit="10" d="M2543.039,1965.65"/>
		<path fill="none" stroke="#FFFFFF" stroke-width="8" stroke-linecap="round" stroke-miterlimit="10" d="M2433.514,2014.022"/>
	</g>
	<g>
		<path fill="none" stroke="#FFFFFF" stroke-width="8" stroke-linecap="round" stroke-miterlimit="10" d="M2633.774,2603.732
			c-79.112,41.119-181.254,89.841-196.474,89.832c-19.832-0.012-84.605-59.899-88.301-67.498c-3.68-7.566-2.465-34.066,0-64.066
			c0.941-11.461,224.223-103.44,278.5-124.367c18.5-7.133,99.898,54.9,100.676,63.867c1.16,13.393,2.734,23.64,2.299,33.901"/>
		<path fill="none" stroke="#FFFFFF" stroke-width="8" stroke-linecap="round" stroke-miterlimit="10" d="M2693.868,2527.439
			c20.213-11.977,33.36-21.41,34.308-25.939"/>
		<path fill="none" stroke="#FFFFFF" stroke-width="8" stroke-linecap="round" stroke-miterlimit="10" d="M2693.868,2527.439"/>
		<path fill="none" stroke="#FFFFFF" stroke-width="8" stroke-linecap="round" stroke-miterlimit="10" d="M2349,2566.035
			c7.5,23.465,75.026,76.803,91,79.465c8.994,1.499,79.863-29.221,149.069-62.951"/>
	</g>
	<path fill="none" stroke="#FFFFFF" stroke-width="8" stroke-linecap="round" stroke-miterlimit="10" d="M2440,2645.5
		c0,12.034-1.35,34-2.699,48.064"/>
</g>
<g id="hands">
	<path fill="none" stroke="#FFFFFF" stroke-width="8" stroke-linecap="round" stroke-miterlimit="10" d="M2914.05,2626.066
		c0.272-16.642-31.265-34.261-42.404-44.621c-15.662-14.567-27.469-30.475-43.498-43.464
		c-33.884-27.459-74.849-43.193-110.294-69.778c-35.064-26.3-85.354-61.741-117.354-91.703c-28.252-26.452-46.938-33.6-84.5-58
		c-18.595-12.079-41.293-19.082-61-29c-16.147-8.126-45.553-22.666-51.5-38.5c-6.618-17.62,8.975-53.889,29.5-61.887
		c12.375-4.822,35.084-1.399,54,5.387c44.354,15.913,80.896,34.544,121.5,56.5c19.173,10.367,38.644,20.387,56.896,32.712
		c20.125,13.589,41.972,19.994,64.162,27.37c4.364,1.45,12.057,0.67,9,2.999"/>
	<path fill="none" stroke="#FFFFFF" stroke-width="8" stroke-linecap="round" stroke-miterlimit="10" d="M3237.789,2098.573
		c0,0-34.539-15.049-49.292-25.604c-7.887-5.643-36.449-16.679-55.783-28.469c-19.847-12.102-42.542-21.017-62.671-32.313
		c-20.426-11.463-34.044-19.832-37.043-45.187c-5.5-46.5,29.978-57.16,59.5-45.5c12.543,4.954,29.229,14.389,40.54,20.607
		c14.692,8.076,32.888,12.49,47.459,19.281"/>
	<path fill="none" stroke="#FFFFFF" stroke-width="8" stroke-linecap="round" stroke-miterlimit="10" d="M3169.038,1916.603
		c0,0-43.741-22.509-53.038-26.999c-19.022-9.184-39.316-19.103-58.29-28.13c-22.009-10.473-40.377-14.147-49.21-38.474
		c-7.949-21.895,1.069-45.113,7.211-55.447C3041,1725,3106.5,1774,3145,1788c19.904,7.238,49.311,22.005,49.311,22.005"/>
	<path fill="none" stroke="#FFFFFF" stroke-width="8" stroke-linecap="round" stroke-miterlimit="10" d="M4206.001,2745
		c-11.384,1.787-87.281-77.773-108.044-97.331c-15.215-14.332-48.403-42.556-70.589-60.619
		c-20.25-16.488-37.729-35.723-60.054-49.867c-9.383-5.945-18.049-13.401-27.98-18.849c-16.819-9.224-32.496-5.791-50.354-7.037
		c-13.734-0.959-27.331-3.087-40.98-4.797c-46.818-5.866-63.987-14.827-110.49-27.753c-24.263-6.744-46.145-17.066-70.496-22.214
		c-22.282-4.71-49.639-12.385-69.146-26.395"/>
	<path fill="none" stroke="#FFFFFF" stroke-width="8" stroke-linecap="round" stroke-miterlimit="10" d="M3799.007,1931.602
		c-6.412-24.258-3.445-48.355-16.125-70.87C3756,1813,3751.5,1786,3751.5,1786s-37.245-33.351-55.5-77
		c-19.702-47.11-34.822-132.738,21-160c28.139-13.742,40.356-1.197,53.5,22.5c10.844,19.551,24.012,42.804,35.5,62
		c12.708,21.233,32.267,25.885,50.5,41.5c15.799,13.53,35.188,34.493,46,53.5c21.018,36.949,35.639,67.66,58.499,102.607
		c11.31,17.289,48.743,50.763,76.824,107.666c7.062,14.312,23.89,91.968,46.177,133.227c6.505,12.042,22.5,56,28,81.5
		c0,0,8.512,19.485,16.67,28.167c4.181,4.449,9.326,7.8,13.83,11.5c5.103,4.192,32.682,19.341,41.537,23.833
		c11.232,5.697,72.217,45.716,91.148,59.501c21.307,15.515,59.016,40.101,80.815,55.166c34.503,23.845,83.586,55.333,83.333,62.667"
		/>
	<path fill="none" stroke="#FFFFFF" stroke-width="8" stroke-linecap="round" stroke-miterlimit="10" d="M3322.031,1855.397
		c0,0,47.631,28.801,76.496,43.241c14.482,7.245,27.625,16.485,42.033,24.335c11.547,6.292,35.83,20.022,36.939,18.526
		c0,0,2.509-16.173-7.5-24.897c-7.905-6.891-71.361-35.465-89.138-50.998c-31.699-27.695-62.558-45.741-99.335-64.868
		c-42.802-22.261-84.66-47.328-126.356-71.292c-40.271-23.145-45.671-81.946,0.368-103.529c21.319-9.995,47.26,3.028,66.04,12.824
		c20.923,10.913,42.881,17.995,64.228,28.915c19.447,9.949,39.797,22.871,60.18,31.496c22.618,9.571,46.122,13.331,67.874,26.627
		c24.653,15.071,56.223,33.305,83.14,44.721c25.32,10.739,39.532,24.041,63.52,35.108c13.428,6.196,58.113,16.147,75.98,24.892
		c17.881,8.752,40.297,20.444,59.608,26.224c41.662,12.468,58.937,22.119,96.182,33.812"/>
	<path fill="none" stroke="#FFFFFF" stroke-width="8" stroke-linecap="round" stroke-miterlimit="10" d="M2916.931,2237.921
		c0,0-23.333-9.574-35.931-18.157c-13.979-9.524-34.41-22.946-47.5-32.907c-16.467-12.531-42.289-34.581-51.525-40.432
		c-35.315-22.37-81.285-55.181-95.84-69.629C2640,2031,2562.291,1975.991,2545.5,1967c-38.834-20.795-66.061-55.938-113.268-29.807
		c-62.429,34.558,5.899,80.531,36.305,106.83c17.74,15.344,36.877,33.041,53.963,48.477c16.839,15.213,27.216,30.839,42.072,47.59
		c14.953,16.859,31.014,30.761,43.117,49.575c13.404,20.838,21.98,34.825,41.996,49.797c32.8,24.532,65.022,49.818,96.002,77.99
		c18.684,16.991,38.52,32.635,58.366,48.229c16.238,12.759,61.508,54.52,67.947,61.322c6.947,7.337,12.82,14.846,19.347,22.714
		c10.868,13.103,22.147,25.723,33.45,37.97c-0.231,0.637-0.72,0.853-1.466,0.649"/>
	<path fill="none" stroke="#FFFFFF" stroke-width="8" stroke-linecap="round" stroke-miterlimit="10" d="M2589.067,2582.544
		c-18.434-8.236-41.829-11.364-54.87-28.104c-13.197-16.94-2.848-34.278,16.497-45.742c21.948-13.005,39.619-9.913,64.536-3.715
		C2655.5,2515,2669.942,2522.43,2713,2532c32.27,7.173,102.06,15.177,133.385,23.449"/>
	<path fill="none" stroke="#FFFFFF" stroke-width="8" stroke-linecap="round" stroke-miterlimit="10" d="M3340,3359
		c-6.07-6.16-43.043-78.25-47-86c-14.475-28.352-32.541-63.436-49.195-89.952C3213,3134,3204.793,3114.483,3199,3090
		c-10.391-43.918-10.706-67.248-21.028-100.046c-4.095-13.01-61.288-85.799-69.656-96.253
		c-17.21-21.502-36.264-41.378-56.315-60.235c-35.47-33.356-65.062-71.909-103.452-101.233
		c-16.001-12.223-31.617-21.436-54.002-31.17c-40.242-17.5-91.455-36.846-119.046-45.062
		c-39.158-11.662-85.91-35.969-125.099-46.772c-20.947-5.775-37.923-14.732-57.301-24.748c-1.312-0.679-2.659-1.321-4.033-1.936"/>
	<path fill="none" stroke="#FFFFFF" stroke-width="8" stroke-linecap="round" stroke-miterlimit="10" d="M2956.049,2294.584
		c-9.268-25.314-20.354-35.804-39.118-56.663c-13.124-14.589-23.761-33.498-38.838-44.961c-32.456-24.677-52.566-48.5-80.093-77.46
		c-13.508-14.211-36.644-32.853-49-47c-14.722-16.855-26.811-31.702-41.943-48.248c-18.614-20.351-34.082-40.956-55.076-58.985
		c-15.801-13.57-33.38-25.256-49.543-39.036c-23.917-20.39-99.019-59.016-63.744-97.5c33.837-36.916,74.307-25.124,116.282-6
		c23.166,10.555,48.893,28.259,70.024,43.269c15.968,11.341,99.209,73.582,132.5,98.1c35.213,25.933,46.576,29.64,82.5,59.4
		c17.306,14.337,74.977,61.094,94.5,72c20,11.174,68.656,42.263,85.896,51.5c17.217,9.226,73.915,46,87.604,56.5
		c8.817,6.763,84.644,19.035,90.287,14.407c0,0-1.287-22.407-17.287-45.751c-12.186-17.779-20.531-36.619-33-54.656
		c-22.656-32.774-49.707-72.994-57.998-112.868c-9.534-45.859-27.222-90.803-23.964-139.528
		c3.157-47.216,51.245-79.312,90.962-64.104c13.511,5.173,24.815,18.729,31,25c5.712,5.792,27,17.5,58.029,67.598
		c22.383,36.138,47.7,63.347,63.471,102.75c8.715,21.774,17.887,52.1,25.5,73.652c7.124,20.166,15.284,43.403,24.607,62.425
		c10.006,20.416,21.996,36.407,35.393,55.575c5.891,8.43,34.534,52.02,38.942,59.815c24.969,44.133,35.622,90.995,51.558,139.685
		c14.465,44.195,20.278,92.235,30.438,137.614c6.939,30.993,7.728,52.576,8.562,69.386c1.222,24.586-19.424,100.105-31.424,121.041
		c0,0-19.394,45.856-13.1,72.355c4.164,17.528,6.971,34.163,14.023,51.104c6.768,16.254,13.076,32.461,17.972,49
		c9.929,33.547,16.509,42.774,28.263,75.513c10.953,30.51,34.854,73.955,53.766,100.487c19.107,26.809,57.289,79.602,54.979,90.369"
		/>
</g>
<g id="details_1_">
	<path fill="none" stroke="#FFFFFF" stroke-width="5" stroke-linecap="round" stroke-miterlimit="10" d="M2416.018,2203.089
		c0,0,14.136,3.516,20.984,7.247c8.092,4.41,19.145,10.676,25.842,17.307c5.05,5,8.424,20.138,5.658,30.529
		c-2.156,8.105-4.929,21.054-13.17,25.999c-0.86,0.517-3.458,1.54-3.333,1.498"/>
	<path fill="none" stroke="#FFFFFF" stroke-width="5" stroke-linecap="round" stroke-miterlimit="10" d="M2666.666,2409.669
		c4.91-5.91,7.479-15.826,6.714-23.466c-0.395-3.93-1.867-9.078-3.396-12.745"/>
	<path fill="none" stroke="#FFFFFF" stroke-width="5" stroke-linecap="round" stroke-miterlimit="10" d="M2653.332,2401.003
		c0.18-4.87-1.237-8.138-2.164-12.669c-0.907-4.439,0.164-22.665,0.164-22.665"/>
	<path fill="none" stroke="#FFFFFF" stroke-width="5" stroke-linecap="round" stroke-miterlimit="10" d="M3536.667,2074.336
		c1.703,6.037,8.692,13.439,11.833,20.019c2.842,5.955,6.412,11.259,9.352,16.794c7.943,14.951,9.882,29.599,12.133,45.854
		c4.316,31.165,9.165,64.472,1.85,96.017c-1.949,8.404-6.101,16.45-8.521,24.463"/>
	<path fill="none" stroke="#FFFFFF" stroke-width="5" stroke-linecap="round" stroke-miterlimit="10" d="M3610,2079.003
		c3.973,10.178-2.901,24.585-1.202,35.9c2.299,15.311,6.418,30.863,11.37,45.584c5.569,16.558,16.26,29.566,23.848,45.039
		c4.147,8.457,7.587,16.761,12.636,24.795c4.873,7.754,13.446,13.721,17.381,21.827"/>
	<path fill="none" stroke="#FFFFFF" stroke-width="5" stroke-linecap="round" stroke-miterlimit="10" d="M3626.667,2004.336
		c4.9,8.707,3.743,20.357,8.632,29.169c4.375,7.885,10.903,15.211,16.035,22.683c10.362,15.087,17.946,32.478,28.65,46.961
		c12.266,16.594,27.924,29.098,38.065,47.923c4.511,8.372,9.107,16.549,13.95,24.746c2.114,3.577,4.505,6.956,6.535,10.534"/>
	<path fill="none" stroke="#FFFFFF" stroke-width="5" stroke-linecap="round" stroke-miterlimit="10" d="M3700,2192.337
		c-0.108,9.821,11.1,20.248,16.519,27.299c7.883,10.256,15.741,21.478,22.683,32.03"/>
	<path fill="none" stroke="#FFFFFF" stroke-width="5" stroke-linecap="round" stroke-miterlimit="10" d="M3757.333,1785.67
		c6.303,0.636,12.407,4.254,18.767,5.233c7.271,1.119,14.61-0.808,21.515-2.865c7.703-2.295,17.033-4.307,23.915-8.388
		c4.705-2.791,8.337-7.007,12.926-9.978"/>
	<path fill="none" stroke="#FFFFFF" stroke-width="5" stroke-linecap="round" stroke-miterlimit="10" d="M3364,1819.003
		c-0.881-14.034,18.487-30.607,27.404-39.4c9.046-8.92,19.143-17.769,27.263-27.267"/>
	<path fill="none" stroke="#FFFFFF" stroke-width="5" stroke-linecap="round" stroke-miterlimit="10" d="M3139.333,2029.003
		c-2.894-13.297,7.724-31.644,13.147-43.118c1.996-4.221,3.333-8.511,6.853-11.548"/>
	<path fill="none" stroke="#FFFFFF" stroke-width="5" stroke-linecap="round" stroke-miterlimit="10" d="M3894.783,1979.102
		c-0.747,14.421,36.572,23.405,46.998,25.87c14.836,3.508,30.046,5.468,45.084,7.512c3.751,0.51,16.894,1.889,17.802,3.187"/>
	<path fill="none" stroke="#FFFFFF" stroke-width="5" stroke-linecap="round" stroke-miterlimit="10" d="M3224.668,1745.003
		c2.448-12.313,18.002-24.167,26.117-33.283c6.43-7.221,21.808-19.225,25.217-26.05"/>
	<path fill="none" stroke="#FFFFFF" stroke-width="5" stroke-linecap="round" stroke-miterlimit="10" d="M3120.002,1871.003
		c1.064-2.839,0.7-6.384,1.336-9.468c2.435-11.826,10.143-20.988,18.045-29.764c5.163-5.735,9.357-13.252,14.59-18.217"/>
	<path fill="none" stroke="#FFFFFF" stroke-width="5" stroke-linecap="round" stroke-miterlimit="10" d="M4112,2153.5
		c3.923,22.306-5.382,55.78-9.972,77.552c-2.704,12.826-7.978,24.704-13.758,36.683c-6.549,13.574-19.436,22.639-25.517,35.23"/>
	<path fill="none" stroke="#FFFFFF" stroke-width="5" stroke-linecap="round" stroke-miterlimit="10" d="M3906,2510
		c0.19,1.167,0.781,1.808,1.773,1.924c33.422-17.673,72.062-45.195,80.227-84.924"/>
	<path fill="none" stroke="#FFFFFF" stroke-width="5" stroke-linecap="round" stroke-miterlimit="10" d="M2534.223,2522.753
		c0,0,15.807,0.156,23.779,3.581c7.875,3.383,18.679,9.852,24.334,15.666c4.777,4.913,9.013,11.667,9.013,20.318
		c0,8.016-11.201,16.683-11.201,16.683"/>
	<path fill="none" stroke="#FFFFFF" stroke-width="5" stroke-linecap="round" stroke-miterlimit="10" d="M2736.666,2613.003
		c5.233,2.328,10.019,5.277,13.335,10.103c3.658,5.323,4.023,14.078,9.348,17.979"/>
	<path fill="none" stroke="#FFFFFF" stroke-width="5" stroke-linecap="round" stroke-miterlimit="10" d="M3288,1822
		c0,0,16.307,31.04,19.003,38.668c2.086,5.903,15.953,38.698,10.895,42.903c-4.19,3.483-29.143,11.789-52.895,20.43
		c-11.105,4.04-52.405,15.296-59.667,11.172c-5-2.839-19.773-24.51-23.188-29.382c-9.125-13.027-8.103-12.31-16.267-26.005"/>
	<path fill="none" stroke="#FFFFFF" stroke-width="5" stroke-linecap="round" stroke-miterlimit="10" d="M2553.139,1812.074
		c0,0,17.809,7.958,26.159,13.596c9.553,6.449,15.946,12.675,22.868,20.486c15.593,17.595,17.1,36.659,4,55.697
		c-3.955,5.749-11.585,9.095-18.916,7.898"/>
	<path fill="none" stroke="#FFFFFF" stroke-width="5" stroke-linecap="round" stroke-miterlimit="10" d="M3304.693,2002.84
		c4.009-1.101,7.979-2.019,12.02-3.335c9.541-3.107,19.861-4.841,29.918-6.986c15.076-3.214,26.533-2.018,41.276-0.301"/>
	<path fill="none" stroke="#FFFFFF" stroke-width="5" stroke-linecap="round" stroke-miterlimit="10" d="M3262.665,2031.67
		c16.714-0.528,33.708,1.305,50.486-0.016c17.962-1.414,41.632-2.396,56.941-12.633"/>
	<path fill="none" stroke="#FFFFFF" stroke-width="5" stroke-linecap="round" stroke-miterlimit="10" d="M3240.665,2055.67
		c11.567,1.662,22.026,5.234,34.667,5.333c15.76,0.124,30.105,2.694,46.18,0.148c28.809-4.562,54.073-17.906,81.135-27.299"/>
	<path fill="none" stroke="#FFFFFF" stroke-width="5" stroke-linecap="round" stroke-miterlimit="10" d="M2774.666,2075.669
		c1.899-4.295,3.952-9.717,7.478-13.373c6.378-6.614,17.079-10.908,23.855-16.627"/>
	<path fill="none" stroke="#FFFFFF" stroke-width="5" stroke-linecap="round" stroke-miterlimit="10" d="M2752.666,2049.669
		c4.925-14.259,19.301-17.241,29.333-25.333"/>
	<path fill="none" stroke="#FFFFFF" stroke-width="5" stroke-linecap="round" stroke-miterlimit="10" d="M3213.999,2203.67
		c17.709,9.566,21.024,32.351,32.065,47.116"/>
	<path fill="none" stroke="#FFFFFF" stroke-width="5" stroke-linecap="round" stroke-miterlimit="10" d="M3242.666,2207.003
		c3.342,9.824,19.25,9.617,27.352,12.832c9.799,3.888,19.764,9.809,29.092,13.869"/>
	<path fill="none" stroke="#FFFFFF" stroke-width="5" stroke-linecap="round" stroke-miterlimit="10" d="M3522,2623
		c0,24.206,2.709,44.847,6.223,68.176c2.158,14.333,3.264,28.721,6.777,42.772c2.762,11.043,11.979,23.803,12,34.833"/>
	<path fill="none" stroke="#FFFFFF" stroke-width="5" stroke-linecap="round" stroke-miterlimit="10" d="M2428.601,1939.309
		c20.509,7.332,25.183,14.223,41.296,28.871c12.711,11.555,24.772,41.821,1.434,58.671c-4.854,3.504-13.306,3.273-19.478,3.273"/>
	<path fill="none" stroke="#FFFFFF" stroke-width="5" stroke-linecap="round" stroke-miterlimit="10" d="M2645.999,2210.336
		c0-14.848,0.604-29.066,10-41.333"/>
	<path fill="none" stroke="#FFFFFF" stroke-width="5" stroke-linecap="round" stroke-miterlimit="10" d="M2660.666,2219.669
		c14.205,1.684,15.516-19.597,19.333-29.333"/>
</g>
</svg>
